<?xml version="1.0" encoding="UTF-8" standalone="no"?>
<svg
   xmlns:dc="http://purl.org/dc/elements/1.1/"
   xmlns:cc="http://creativecommons.org/ns#"
   xmlns:rdf="http://www.w3.org/1999/02/22-rdf-syntax-ns#"
   xmlns:svg="http://www.w3.org/2000/svg"
   xmlns="http://www.w3.org/2000/svg"
   xmlns:sodipodi="http://sodipodi.sourceforge.net/DTD/sodipodi-0.dtd"
   xmlns:inkscape="http://www.inkscape.org/namespaces/inkscape"
   viewBox="0 0 24 24"
   version="1.1"
   id="svg3311"
   sodipodi:docname="activity-outline.svg"
   inkscape:version="1.0.1 (c497b03c, 2020-09-10)">
  <metadata
     id="metadata3317">
    <rdf:RDF>
      <cc:Work
         rdf:about="">
        <dc:format>image/svg+xml</dc:format>
        <dc:type
           rdf:resource="http://purl.org/dc/dcmitype/StillImage" />
      </cc:Work>
    </rdf:RDF>
  </metadata>
  <defs
     id="defs3315" />
  <sodipodi:namedview
     pagecolor="#ffffff"
     bordercolor="#666666"
     borderopacity="1"
     objecttolerance="10"
     gridtolerance="10"
     guidetolerance="10"
     inkscape:pageopacity="0"
     inkscape:pageshadow="2"
     inkscape:window-width="1367"
     inkscape:window-height="889"
     id="namedview3313"
     showgrid="false"
     inkscape:zoom="30.833333"
     inkscape:cx="12"
     inkscape:cy="12"
     inkscape:window-x="0"
     inkscape:window-y="23"
     inkscape:window-maximized="0"
     inkscape:current-layer="svg3311" />
  <g
     data-name="Layer 2"
     id="g3309">
    <g
       data-name="activity"
       id="g3307">
      <rect
         width="24"
         height="24"
         transform="rotate(90 12 12)"
         opacity="0"
         id="rect3303" />
      <path
         d="M14.33 20h-.21a2 2 0 0 1-1.76-1.58L9.68 6l-2.76 6.4A1 1 0 0 1 6 13H3a1 1 0 0 1 0-2h2.34l2.51-5.79a2 2 0 0 1 3.79.38L14.32 18l2.76-6.38A1 1 0 0 1 18 11h3a1 1 0 0 1 0 2h-2.34l-2.51 5.79A2 2 0 0 1 14.33 20z"
         id="path3305"
         style="fill:#2b73d2;fill-opacity:1" />
    </g>
  </g>
</svg>
