<?xml version="1.0" encoding="UTF-8" standalone="no"?>
<svg
   xmlns:dc="http://purl.org/dc/elements/1.1/"
   xmlns:cc="http://creativecommons.org/ns#"
   xmlns:rdf="http://www.w3.org/1999/02/22-rdf-syntax-ns#"
   xmlns:svg="http://www.w3.org/2000/svg"
   xmlns="http://www.w3.org/2000/svg"
   xmlns:sodipodi="http://sodipodi.sourceforge.net/DTD/sodipodi-0.dtd"
   xmlns:inkscape="http://www.inkscape.org/namespaces/inkscape"
   id="svg71"
   clip-rule="evenodd"
   fill-rule="evenodd"
   stroke-linejoin="round"
   stroke-miterlimit="2"
   version="1.1"
   viewBox="0 0 123 123"
   xml:space="preserve"
   sodipodi:docname="address-book-outline.svg"
   inkscape:version="1.0.1 (c497b03c, 2020-09-10)"><defs
     id="defs3339" /><sodipodi:namedview
     pagecolor="#ffffff"
     bordercolor="#666666"
     borderopacity="1"
     objecttolerance="10"
     gridtolerance="10"
     guidetolerance="10"
     inkscape:pageopacity="0"
     inkscape:pageshadow="2"
     inkscape:window-width="2206"
     inkscape:window-height="1258"
     id="namedview3337"
     showgrid="false"
     inkscape:zoom="5.8780488"
     inkscape:cx="61.5"
     inkscape:cy="88.719917"
     inkscape:window-x="0"
     inkscape:window-y="23"
     inkscape:window-maximized="0"
     inkscape:current-layer="svg71" /><metadata
     id="metadata77"><rdf:RDF><cc:Work
         rdf:about=""><dc:format>image/svg+xml</dc:format><dc:type
           rdf:resource="http://purl.org/dc/dcmitype/StillImage" /><dc:title /></cc:Work></rdf:RDF></metadata><rect
     id="address-book-outline"
     width="122.88"
     height="122.88"
     fill="none" /><clipPath
     id="_clip1"><rect
       id="rect58"
       width="122.88"
       height="122.88" /></clipPath><g
     id="g69"
     clip-path="url(#_clip1)"><g
       id="g65"><path
         id="path61"
         d="m0 0v122.88h122.88v-122.88h-122.88z"
         fill-opacity="0" /><path
         id="path63"
         d="m97.28 15.36c8.426 0 15.36 6.934 15.36 15.36v61.44c0 8.426-6.934 15.36-15.36 15.36h-61.44c-8.426 0-15.36-6.934-15.36-15.36v-5.12h-5.12c-2.809 0-5.12-2.311-5.12-5.12s2.311-5.12 5.12-5.12h5.12v-30.72h-5.12c-2.809 0-5.12-2.311-5.12-5.12s2.311-5.12 5.12-5.12h5.12v-5.12c0-8.426 6.934-15.36 15.36-15.36h61.44zm0 10.24h-61.44c-2.809 0-5.12 2.311-5.12 5.12v5.12h5.12c2.809 0 5.12 2.311 5.12 5.12s-2.311 5.12-5.12 5.12h-5.12v30.72h5.12c2.809 0 5.12 2.311 5.12 5.12s-2.311 5.12-5.12 5.12h-5.12v5.12c0 2.809 2.311 5.12 5.12 5.12h61.44c2.809 0 5.12-2.311 5.12-5.12v-61.44c0-2.809-2.311-5.12-5.12-5.12z"
         fill-rule="nonzero"
         style="fill:#2b73d2;fill-opacity:1" /></g><path
       id="path67"
       d="m61.05 82.359c0.033-5.351 4.445-9.744 9.803-9.744s9.771 4.393 9.803 9.744c0.017 2.787 2.294 5.037 5.081 5.02s5.036-2.294 5.019-5.081c-0.066-10.865-9.025-19.783-19.903-19.783s-19.836 8.918-19.903 19.783c-0.017 2.787 2.232 5.064 5.02 5.081 2.787 0.017 5.063-2.233 5.08-5.02zm9.803-26.572c5.559 0 10.134-4.575 10.134-10.134s-4.575-10.133-10.134-10.133-10.133 4.574-10.133 10.133 4.574 10.134 10.133 10.134z"
       fill-rule="nonzero"
       style="fill:#2b73d2;fill-opacity:1" /></g></svg>
