<?xml version="1.0" encoding="UTF-8" standalone="no"?>
<svg
   xmlns:dc="http://purl.org/dc/elements/1.1/"
   xmlns:cc="http://creativecommons.org/ns#"
   xmlns:rdf="http://www.w3.org/1999/02/22-rdf-syntax-ns#"
   xmlns:svg="http://www.w3.org/2000/svg"
   xmlns="http://www.w3.org/2000/svg"
   xmlns:sodipodi="http://sodipodi.sourceforge.net/DTD/sodipodi-0.dtd"
   xmlns:inkscape="http://www.inkscape.org/namespaces/inkscape"
   id="svg119"
   clip-rule="evenodd"
   fill-rule="evenodd"
   stroke-linejoin="round"
   stroke-miterlimit="2"
   version="1.1"
   viewBox="0 0 123 123"
   xml:space="preserve"
   sodipodi:docname="agenda-outline.svg"
   inkscape:version="1.0.1 (c497b03c, 2020-09-10)"><defs
     id="defs3387" /><sodipodi:namedview
     pagecolor="#ffffff"
     bordercolor="#666666"
     borderopacity="1"
     objecttolerance="10"
     gridtolerance="10"
     guidetolerance="10"
     inkscape:pageopacity="0"
     inkscape:pageshadow="2"
     inkscape:window-width="1978"
     inkscape:window-height="1172"
     id="namedview3385"
     showgrid="false"
     inkscape:zoom="7.8373984"
     inkscape:cx="61.5"
     inkscape:cy="61.5"
     inkscape:window-x="0"
     inkscape:window-y="23"
     inkscape:window-maximized="0"
     inkscape:current-layer="svg119" /><metadata
     id="metadata125"><rdf:RDF><cc:Work
         rdf:about=""><dc:format>image/svg+xml</dc:format><dc:type
           rdf:resource="http://purl.org/dc/dcmitype/StillImage" /><dc:title /></cc:Work></rdf:RDF></metadata><rect
     id="agenda-outline"
     width="122.88"
     height="122.88"
     fill="none" /><clipPath
     id="_clip1"><rect
       id="rect106"
       width="122.88"
       height="122.88" /></clipPath><g
     id="g117"
     clip-path="url(#_clip1)"><g
       id="g115"><path
         id="path109"
         d="m0 0v122.88h122.88v-122.88h-122.88z"
         fill-opacity="0" /><path
         id="path111"
         d="m97.28 15.36c8.426 0 15.36 6.934 15.36 15.36v61.44c0 8.426-6.934 15.36-15.36 15.36h-61.44c-8.426 0-15.36-6.934-15.36-15.36v-5.12h-5.12c-2.809 0-5.12-2.311-5.12-5.12s2.311-5.12 5.12-5.12h5.12v-30.72h-5.12c-2.809 0-5.12-2.311-5.12-5.12s2.311-5.12 5.12-5.12h5.12v-5.12c0-8.426 6.934-15.36 15.36-15.36h61.44zm0 10.24h-61.44c-2.809 0-5.12 2.311-5.12 5.12v5.12h5.12c2.809 0 5.12 2.311 5.12 5.12s-2.311 5.12-5.12 5.12h-5.12v30.72h5.12c2.809 0 5.12 2.311 5.12 5.12s-2.311 5.12-5.12 5.12h-5.12v5.12c0 2.809 2.311 5.12 5.12 5.12h61.44c2.809 0 5.12-2.311 5.12-5.12v-61.44c0-2.809-2.311-5.12-5.12-5.12z"
         fill-rule="nonzero"
         style="fill:#2b73d2;fill-opacity:1" /><path
         id="path113"
         d="m83.184 42.957-19.354 25.6-8.345-10.803c-0.971-1.247-2.465-1.978-4.045-1.978-2.812 0-5.126 2.314-5.126 5.126 0 1.141 0.381 2.249 1.081 3.149l12.442 15.923c0.976 1.236 2.47 1.954 4.045 1.946 1.583-4e-3 3.078-0.742 4.044-1.997l23.399-30.72c0.684-0.897 1.055-1.995 1.055-3.123 0-2.826-2.326-5.151-5.151-5.151-1.606 0-3.123 0.751-4.096 2.028h0.051z"
         fill-rule="nonzero"
         style="fill:#2b73d2;fill-opacity:1" /></g></g></svg>
