<?xml version="1.0" encoding="UTF-8" standalone="no"?>
<svg
   xmlns:dc="http://purl.org/dc/elements/1.1/"
   xmlns:cc="http://creativecommons.org/ns#"
   xmlns:rdf="http://www.w3.org/1999/02/22-rdf-syntax-ns#"
   xmlns:svg="http://www.w3.org/2000/svg"
   xmlns="http://www.w3.org/2000/svg"
   xmlns:sodipodi="http://sodipodi.sourceforge.net/DTD/sodipodi-0.dtd"
   xmlns:inkscape="http://www.inkscape.org/namespaces/inkscape"
   width="100%"
   height="100%"
   viewBox="0 0 123 123"
   version="1.1"
   xml:space="preserve"
   style="fill-rule:evenodd;clip-rule:evenodd;stroke-linejoin:round;stroke-miterlimit:2;"
   id="svg843"
   sodipodi:docname="alert-triangle-2.svg"
   inkscape:version="1.0.1 (c497b03c, 2020-09-10)"><metadata
     id="metadata849"><rdf:RDF><cc:Work
         rdf:about=""><dc:format>image/svg+xml</dc:format><dc:type
           rdf:resource="http://purl.org/dc/dcmitype/StillImage" /><dc:title></dc:title></cc:Work></rdf:RDF></metadata><defs
     id="defs847" /><sodipodi:namedview
     pagecolor="#ffffff"
     bordercolor="#666666"
     borderopacity="1"
     objecttolerance="10"
     gridtolerance="10"
     guidetolerance="10"
     inkscape:pageopacity="0"
     inkscape:pageshadow="2"
     inkscape:window-width="2225"
     inkscape:window-height="1251"
     id="namedview845"
     showgrid="false"
     inkscape:zoom="6.2926829"
     inkscape:cx="61.5"
     inkscape:cy="61.5"
     inkscape:window-x="0"
     inkscape:window-y="23"
     inkscape:window-maximized="0"
     inkscape:current-layer="svg843"
     inkscape:document-rotation="0" /><g
     id="g841"><path
       d="M122.88,122.88l0,-122.88l-122.88,-0l-0,122.88l122.88,0Z"
       style="fill-opacity:0;"
       id="path833" /><path
       d="M115.507,83.456l-39.27,-65.126c-3.224,-5.043 -8.812,-8.103 -14.797,-8.103c-5.985,-0 -11.573,3.06 -14.797,8.103l-39.27,65.126c-2.82,4.701 -2.918,10.568 -0.256,15.36c3.078,5.395 8.841,8.728 15.053,8.704l78.54,-0c6.17,0.066 11.923,-3.182 15.053,-8.499c2.741,-4.844 2.643,-10.814 -0.256,-15.565Z"
       style="fill:#f9cb4d;fill-rule:nonzero;"
       id="path835" /><path
       d="M61.44,87.04c-2.809,-0 -5.12,-2.311 -5.12,-5.12c-0,-2.809 2.311,-5.12 5.12,-5.12c2.809,0 5.12,2.311 5.12,5.12c-0,2.809 -2.311,5.12 -5.12,5.12Z"
       style="fill-rule:nonzero;fill:#333333;fill-opacity:1"
       id="path837" /><path
       d="M66.56,66.56c-0,2.809 -2.311,5.12 -5.12,5.12c-2.809,-0 -5.12,-2.311 -5.12,-5.12l-0,-20.48c-0,-2.809 2.311,-5.12 5.12,-5.12c2.809,-0 5.12,2.311 5.12,5.12l-0,20.48Z"
       style="fill-rule:nonzero;fill:#333333;fill-opacity:1"
       id="path839" /></g></svg>
