<?xml version="1.0" encoding="UTF-8" standalone="no"?>
<svg
   xmlns:dc="http://purl.org/dc/elements/1.1/"
   xmlns:cc="http://creativecommons.org/ns#"
   xmlns:rdf="http://www.w3.org/1999/02/22-rdf-syntax-ns#"
   xmlns:svg="http://www.w3.org/2000/svg"
   xmlns="http://www.w3.org/2000/svg"
   xmlns:sodipodi="http://sodipodi.sourceforge.net/DTD/sodipodi-0.dtd"
   xmlns:inkscape="http://www.inkscape.org/namespaces/inkscape"
   viewBox="0 0 24 24"
   version="1.1"
   id="svg12273"
   sodipodi:docname="alert-triangle.svg"
   inkscape:version="1.0.1 (c497b03c, 2020-09-10)">
  <metadata
     id="metadata12279">
    <rdf:RDF>
      <cc:Work
         rdf:about="">
        <dc:format>image/svg+xml</dc:format>
        <dc:type
           rdf:resource="http://purl.org/dc/dcmitype/StillImage" />
      </cc:Work>
    </rdf:RDF>
  </metadata>
  <defs
     id="defs12277" />
  <sodipodi:namedview
     pagecolor="#ffffff"
     bordercolor="#666666"
     borderopacity="1"
     objecttolerance="10"
     gridtolerance="10"
     guidetolerance="10"
     inkscape:pageopacity="0"
     inkscape:pageshadow="2"
     inkscape:window-width="860"
     inkscape:window-height="480"
     id="namedview12275"
     showgrid="false"
     inkscape:zoom="9.8333333"
     inkscape:cx="12"
     inkscape:cy="12"
     inkscape:window-x="0"
     inkscape:window-y="23"
     inkscape:window-maximized="0"
     inkscape:current-layer="svg12273" />
  <g
     data-name="Layer 2"
     id="g12271">
    <g
       data-name="alert-triangle"
       id="g12269">
      <rect
         width="24"
         height="24"
         transform="rotate(90 12 12)"
         opacity="0"
         id="rect12265" />
      <path
         d="M22.56 16.3L14.89 3.58a3.43 3.43 0 0 0-5.78 0L1.44 16.3a3 3 0 0 0-.05 3A3.37 3.37 0 0 0 4.33 21h15.34a3.37 3.37 0 0 0 2.94-1.66 3 3 0 0 0-.05-3.04zM12 17a1 1 0 1 1 1-1 1 1 0 0 1-1 1zm1-4a1 1 0 0 1-2 0V9a1 1 0 0 1 2 0z"
         id="path12267"
         style="fill:#2b73d2;fill-opacity:1" />
    </g>
  </g>
</svg>
