<?xml version="1.0" encoding="UTF-8" standalone="no"?><!DOCTYPE svg PUBLIC "-//W3C//DTD SVG 1.1//EN" "http://www.w3.org/Graphics/SVG/1.1/DTD/svg11.dtd"><svg width="100%" height="100%" viewBox="0 0 123 123" version="1.1" xmlns="http://www.w3.org/2000/svg" xmlns:xlink="http://www.w3.org/1999/xlink" xml:space="preserve" xmlns:serif="http://www.serif.com/" style="fill-rule:evenodd;clip-rule:evenodd;stroke-linejoin:round;stroke-miterlimit:2;" fill="#fff"><rect id="calendar-outline" x="0" y="0" width="122.88" height="122.88" style="fill:none;"/><g id="master"><rect id="ingombro" x="0" y="0" width="122.88" height="122.88" style="fill-opacity:0;"/><g id="cerchio-esterno" serif:id="cerchio esterno"></g><path d="M77.092,15.36l0,-1.312c0,-2.781 2.258,-5.04 5.04,-5.04c2.782,0 5.04,2.259 5.04,5.04l0,1.312l9.859,0c5.753,0 10.488,4.734 10.489,10.487l0,71.188c-0.002,5.753 -4.738,10.486 -10.491,10.485l-71.178,0c-5.753,0.001 -10.489,-4.732 -10.491,-10.485l0,-71.19c0.002,-5.753 4.738,-10.486 10.491,-10.485l9.633,0l0,-1.312c0,-2.781 2.258,-5.04 5.04,-5.04c2.782,0 5.04,2.259 5.04,5.04l0,1.312l31.528,0Zm10.08,10.083l0,0.594c0,2.781 -2.258,5.04 -5.04,5.04c-2.782,0 -5.04,-2.259 -5.04,-5.04l0,-0.594l-31.528,0l0,0.594c0,2.781 -2.258,5.04 -5.04,5.04c-2.782,0 -5.04,-2.259 -5.04,-5.04l0,-0.594l-7.886,0c-1.191,0 -2.158,0.967 -2.158,2.158l0,67.681c0,1.191 0.967,2.158 2.158,2.158l67.609,0c1.191,0 2.158,-0.967 2.158,-2.158l0,-67.681c0,-1.191 -0.967,-2.158 -2.158,-2.158l-8.035,0Zm-16.372,35.997c0,5.166 -4.194,9.36 -9.36,9.36c-5.166,0 -9.36,-4.194 -9.36,-9.36c0,-5.166 4.194,-9.36 9.36,-9.36c5.166,0 9.36,4.194 9.36,9.36Zm-23.76,0.002c0,4.371 -3.549,7.92 -7.92,7.92c-4.371,0 -7.92,-3.549 -7.92,-7.92c0,-4.372 3.549,-7.92 7.92,-7.92c4.371,0 7.92,3.548 7.92,7.92Zm41.76,-0.002c0,3.576 -2.904,6.48 -6.48,6.48c-3.576,0 -6.48,-2.904 -6.48,-6.48c0,-3.576 2.904,-6.48 6.48,-6.48c3.576,0 6.48,2.904 6.48,6.48Z"/></g></svg>