<?xml version="1.0" encoding="UTF-8" standalone="no"?><!DOCTYPE svg PUBLIC "-//W3C//DTD SVG 1.1//EN" "http://www.w3.org/Graphics/SVG/1.1/DTD/svg11.dtd"><svg fill="#fff" width="100%" height="100%" viewBox="0 0 123 123" version="1.1" xmlns="http://www.w3.org/2000/svg" xmlns:xlink="http://www.w3.org/1999/xlink" xml:space="preserve" xmlns:serif="http://www.serif.com/" style="fill-rule:evenodd;clip-rule:evenodd;stroke-linejoin:round;stroke-miterlimit:2;"><rect id="contacts-outline" x="0" y="0" width="122.88" height="122.88" style="fill:none;"/><g id="master"><rect id="ingombro" x="0" y="0" width="122.88" height="122.88" style="fill-opacity:0;"/><g><g><path d="M58.696,60.738c6.012,-1.157 12.443,1.165 16.324,6.492c0.075,0.103 0.15,0.208 0.221,0.313c2.524,3.675 3.54,8.231 2.827,12.673c-0.237,1.319 -1.348,2.297 -2.65,2.33c-0.044,0.001 -0.088,0.001 -0.132,0c-0.051,0.003 -0.103,0.004 -0.155,0.004l-26.539,0c-0.069,0 -0.136,-0.002 -0.203,-0.007c-0.087,0.007 -0.174,0.009 -0.262,0.006c-1.296,-0.033 -2.402,-1.01 -2.638,-2.33c-0.091,-0.569 -0.153,-1.139 -0.188,-1.71c-0.005,-0.044 -0.009,-0.089 -0.011,-0.134c-0.015,-0.303 -0.022,-0.606 -0.022,-0.909c-0.007,-3.53 1.042,-7.003 3.036,-9.919c0.072,-0.105 0.147,-0.21 0.221,-0.314c2.562,-3.531 6.239,-5.742 10.171,-6.495Z" style="fill-rule:nonzero;"/></g></g><g id="cerchio-esterno" serif:id="cerchio esterno"><path d="M61.44,10.32c28.214,0 51.12,22.906 51.12,51.12c0,28.214 -22.906,51.12 -51.12,51.12c-28.214,0 -51.12,-22.906 -51.12,-51.12c0,-28.214 22.906,-51.12 51.12,-51.12Zm0,10.08c22.651,0 41.04,18.389 41.04,41.04c0,22.651 -18.389,41.04 -41.04,41.04c-22.651,0 -41.04,-18.389 -41.04,-41.04c0,-22.651 18.389,-41.04 41.04,-41.04Z"/><path d="M48.254,54.14c0.932,3.453 -1.116,7.013 -4.569,7.944c-3.453,0.931 -7.012,-1.116 -7.944,-4.569c-0.931,-3.453 1.117,-7.013 4.57,-7.944c3.453,-0.931 7.012,1.116 7.943,4.569Z"/><path d="M90.445,53.765c1.138,4.221 -1.364,8.571 -5.584,9.709c-4.221,1.138 -8.571,-1.364 -9.709,-5.584c-1.138,-4.221 1.364,-8.571 5.584,-9.709c4.221,-1.139 8.571,1.364 9.709,5.584Z"/><path d="M70.477,43.203c1.345,4.988 -1.612,10.129 -6.6,11.474c-4.988,1.345 -10.129,-1.612 -11.474,-6.6c-1.345,-4.987 1.612,-10.129 6.6,-11.474c4.988,-1.345 10.129,1.612 11.474,6.6Z"/></g></g></svg>