<?xml version="1.0" encoding="UTF-8" standalone="no"?><!DOCTYPE svg PUBLIC "-//W3C//DTD SVG 1.1//EN" "http://www.w3.org/Graphics/SVG/1.1/DTD/svg11.dtd"><svg fill="#fff" width="100%" height="100%" viewBox="0 0 123 123" version="1.1" xmlns="http://www.w3.org/2000/svg" xmlns:xlink="http://www.w3.org/1999/xlink" xml:space="preserve" xmlns:serif="http://www.serif.com/" style="fill-rule:evenodd;clip-rule:evenodd;stroke-linejoin:round;stroke-miterlimit:2;"><rect id="drive-outline" x="0" y="0" width="122.88" height="122.88" style="fill:none;"/><path d="M53.376,15.36c1.651,0 3.245,0.653 4.416,1.824l9.984,9.984c0.442,0.442 1.037,0.691 1.651,0.691l28.724,0c5.164,0 9.369,4.186 9.369,9.37l0,60.922c0,5.164 -4.185,9.369 -9.369,9.369l-73.421,0c-5.165,0 -9.37,-4.185 -9.37,-9.369l0,-73.421c0,-5.165 4.205,-9.37 9.37,-9.37l28.646,0Zm13.682,22.31c-1.622,0 -3.186,-0.641 -4.336,-1.791l-9.802,-9.802c-0.434,-0.434 -1.018,-0.679 -1.621,-0.679l-23.601,0c-1.263,0 -2.3,1.037 -2.3,2.3l0,67.484c0,1.263 1.037,2.3 2.3,2.3l67.484,0c1.263,0 2.3,-1.037 2.3,-2.3l0,-55.213c0,-1.263 -1.037,-2.299 -2.3,-2.299l-28.124,0Zm-11.59,20.972c-0.685,-0.743 -1.205,-1.658 -1.487,-2.7c-0.931,-3.453 1.117,-7.013 4.57,-7.944c3.453,-0.931 7.012,1.116 7.943,4.569c0.932,3.453 -1.116,7.013 -4.569,7.944c-0.622,0.168 -1.247,0.239 -1.86,0.223l-4.12,9.058c0.89,0.748 1.647,1.667 2.215,2.723l9.598,-2.15c0.332,-3.163 2.564,-5.947 5.816,-6.824c4.221,-1.139 8.571,1.364 9.709,5.584c1.139,4.221 -1.364,8.571 -5.584,9.709c-3.484,0.94 -7.056,-0.601 -8.837,-3.541l-9.598,2.15c-0.209,3.933 -2.905,7.463 -6.912,8.544c-4.988,1.345 -10.129,-1.613 -11.474,-6.6c-1.345,-4.988 1.612,-10.13 6.6,-11.475c1.303,-0.351 2.617,-0.409 3.871,-0.213l4.119,-9.057Z" style="fill-rule:nonzero;"/></svg>