<?xml version="1.0" encoding="UTF-8" standalone="no"?><!DOCTYPE svg PUBLIC "-//W3C//DTD SVG 1.1//EN" "http://www.w3.org/Graphics/SVG/1.1/DTD/svg11.dtd"><svg fill="#fff" width="100%" height="100%" viewBox="0 0 123 123" version="1.1" xmlns="http://www.w3.org/2000/svg" xmlns:xlink="http://www.w3.org/1999/xlink" xml:space="preserve" xmlns:serif="http://www.serif.com/" style="fill-rule:evenodd;clip-rule:evenodd;stroke-linejoin:round;stroke-miterlimit:2;"><rect id="mail-outline" x="0" y="0" width="122.88" height="122.88" style="fill:none;"/><g id="quadrato-esterno" serif:id="quadrato esterno"><path d="M50.64,49.44c0,3.576 -2.904,6.48 -6.48,6.48c-3.576,0 -6.48,-2.904 -6.48,-6.48c0,-3.576 2.904,-6.48 6.48,-6.48c3.576,0 6.48,2.904 6.48,6.48Z"/><path d="M88.08,48.96c0,4.371 -3.549,7.92 -7.92,7.92c-4.371,0 -7.92,-3.549 -7.92,-7.92c0,-4.371 3.549,-7.92 7.92,-7.92c4.371,0 7.92,3.549 7.92,7.92Z"/><path d="M70.8,61.44c0,5.166 -4.194,9.36 -9.36,9.36c-5.166,0 -9.36,-4.194 -9.36,-9.36c0,-5.166 4.194,-9.36 9.36,-9.36c5.166,0 9.36,4.194 9.36,9.36Z"/><g id="master"><rect id="ingombro" x="0" y="0" width="122.88" height="122.88" style="fill-opacity:0;"/><path d="M25.851,24.48c-5.794,0 -10.491,4.702 -10.491,10.503l0,52.915c0,5.8 4.697,10.502 10.491,10.502l71.178,0c5.794,0 10.491,-4.702 10.491,-10.502l0,-52.916c0,-5.8 -4.697,-10.502 -10.491,-10.502l-71.178,0Zm1.215,10.078c-0.898,0 -1.626,0.729 -1.626,1.626l0,50.51c0,0.898 0.728,1.626 1.626,1.626l68.748,0c0.898,0 1.626,-0.728 1.626,-1.626l0,-50.51c0,-0.897 -0.728,-1.626 -1.626,-1.626l-68.748,0Z"/></g></g></svg>