<?xml version="1.0" encoding="UTF-8" standalone="no"?><!DOCTYPE svg PUBLIC "-//W3C//DTD SVG 1.1//EN" "http://www.w3.org/Graphics/SVG/1.1/DTD/svg11.dtd"><svg fill="#fff" width="100%" height="100%" viewBox="0 0 123 123" version="1.1" xmlns="http://www.w3.org/2000/svg" xmlns:xlink="http://www.w3.org/1999/xlink" xml:space="preserve" xmlns:serif="http://www.serif.com/" style="fill-rule:evenodd;clip-rule:evenodd;stroke-linejoin:round;stroke-miterlimit:2;"><rect id="team" x="0" y="0" width="122.88" height="122.88" style="fill:none;"/><path d="M61.44,10.32c-28.244,0 -51.12,22.876 -51.12,51.12c0,28.244 22.876,51.12 51.12,51.12c2.816,0.01 5.627,-0.224 8.402,-0.702l32.074,-6.391c2.275,-0.586 3.035,-0.826 3.584,-3.822l6.356,-31.77c0.478,-2.786 0.714,-5.609 0.704,-8.435c0,-28.244 -22.876,-51.12 -51.12,-51.12Zm0,10.08c22.651,0 41.04,18.389 41.04,41.04c0,22.651 -18.389,41.04 -41.04,41.04c-22.651,0 -41.04,-18.389 -41.04,-41.04c0,-22.651 18.389,-41.04 41.04,-41.04Z" style="fill-rule:nonzero;"/><path d="M88.8,61.44c0,3.576 -2.904,6.48 -6.48,6.48c-3.576,0 -6.48,-2.904 -6.48,-6.48c0,-3.576 2.904,-6.48 6.48,-6.48c3.576,0 6.48,2.904 6.48,6.48Z"/><path d="M47.04,61.44c0,4.371 -3.549,7.92 -7.92,7.92c-4.371,0 -7.92,-3.549 -7.92,-7.92c0,-4.371 3.549,-7.92 7.92,-7.92c4.371,0 7.92,3.549 7.92,7.92Z"/><path d="M70.8,61.44c0,5.166 -4.194,9.36 -9.36,9.36c-5.166,0 -9.36,-4.194 -9.36,-9.36c0,-5.166 4.194,-9.36 9.36,-9.36c5.166,0 9.36,4.194 9.36,9.36Z"/></svg>