<?xml version="1.0" encoding="UTF-8" standalone="no"?><!DOCTYPE svg PUBLIC "-//W3C//DTD SVG 1.1//EN" "http://www.w3.org/Graphics/SVG/1.1/DTD/svg11.dtd"><svg fill="#fff" width="100%" height="100%" viewBox="0 0 123 123" version="1.1" xmlns="http://www.w3.org/2000/svg" xmlns:xlink="http://www.w3.org/1999/xlink" xml:space="preserve" xmlns:serif="http://www.serif.com/" style="fill-rule:evenodd;clip-rule:evenodd;stroke-linejoin:round;stroke-miterlimit:2;"><g id="master"><rect id="ingombro" x="0" y="0" width="122.88" height="122.88" style="fill-opacity:0;"/><rect x="0" y="0" width="122.88" height="122.88" style="fill-opacity:0;"/><path d="M56.32,20.48l0,-5.12c0,-2.809 2.311,-5.12 5.12,-5.12c2.809,0 5.12,2.311 5.12,5.12l0,5.12l5.12,0c8.426,0 15.36,6.934 15.36,15.36l0,41.28c0,8.426 -6.934,15.36 -15.36,15.36l-41.28,0c-8.426,0 -15.36,-6.934 -15.36,-15.36l0,-41.28c0,-8.426 6.934,-15.36 15.36,-15.36l5.12,0l0,-5.12c0.004,-0.619 0.113,-1.232 0.335,-1.811c0.588,-1.536 1.919,-2.733 3.512,-3.147c0.5,-0.13 1.019,-0.182 1.535,-0.155c0.571,0.029 1.136,0.156 1.665,0.374c0.611,0.251 1.17,0.621 1.642,1.082c0.98,0.957 1.551,2.287 1.551,3.657c0,1.707 0,3.413 0,5.12l10.56,0Zm15.36,61.76c2.809,0 5.12,-2.311 5.12,-5.12l0,-41.28c0,-2.809 -2.311,-5.12 -5.12,-5.12l-5.12,0l0,5.12c0,2.809 -2.311,5.12 -5.12,5.12c-2.809,0 -5.12,-2.311 -5.12,-5.12l0,-5.12l-10.56,0l0,5.12c0,2.809 -2.311,5.12 -5.12,5.12c-2.809,0 -5.12,-2.311 -5.12,-5.12l0,-5.12l-5.12,0c-2.809,0 -5.12,2.311 -5.12,5.12l0,41.28c0.004,0.577 0.098,1.149 0.291,1.694c0.522,1.468 1.72,2.652 3.194,3.155c0.527,0.18 1.079,0.267 1.635,0.271l41.28,0Z" style="fill-rule:nonzero;"/><path d="M97.221,40.96c5.982,2.105 10.32,7.836 10.32,14.5l-0.021,41.82c0,8.426 -6.934,15.36 -15.36,15.36l-41.848,0c-6.635,0 -12.344,-4.299 -14.472,-10.24l56.32,0c2.809,0 5.12,-2.311 5.12,-5.12l-0.059,-56.32Z" style="fill-rule:nonzero;"/></g></svg>