<?xml version="1.0" encoding="UTF-8" standalone="no"?>
<svg
   xmlns:dc="http://purl.org/dc/elements/1.1/"
   xmlns:cc="http://creativecommons.org/ns#"
   xmlns:rdf="http://www.w3.org/1999/02/22-rdf-syntax-ns#"
   xmlns:svg="http://www.w3.org/2000/svg"
   xmlns="http://www.w3.org/2000/svg"
   xmlns:sodipodi="http://sodipodi.sourceforge.net/DTD/sodipodi-0.dtd"
   xmlns:inkscape="http://www.inkscape.org/namespaces/inkscape"
   viewBox="0 0 24 24"
   version="1.1"
   id="svg3520"
   sodipodi:docname="archive-outline.svg"
   inkscape:version="1.0.1 (c497b03c, 2020-09-10)">
  <metadata
     id="metadata3526">
    <rdf:RDF>
      <cc:Work
         rdf:about="">
        <dc:format>image/svg+xml</dc:format>
        <dc:type
           rdf:resource="http://purl.org/dc/dcmitype/StillImage" />
      </cc:Work>
    </rdf:RDF>
  </metadata>
  <defs
     id="defs3524" />
  <sodipodi:namedview
     pagecolor="#ffffff"
     bordercolor="#666666"
     borderopacity="1"
     objecttolerance="10"
     gridtolerance="10"
     guidetolerance="10"
     inkscape:pageopacity="0"
     inkscape:pageshadow="2"
     inkscape:window-width="1740"
     inkscape:window-height="1087"
     id="namedview3522"
     showgrid="false"
     inkscape:zoom="40.416667"
     inkscape:cx="12"
     inkscape:cy="12"
     inkscape:window-x="0"
     inkscape:window-y="23"
     inkscape:window-maximized="0"
     inkscape:current-layer="svg3520" />
  <g
     data-name="Layer 2"
     id="g3518">
    <g
       data-name="archive"
       id="g3516">
      <rect
         width="24"
         height="24"
         transform="rotate(90 12 12)"
         opacity="0"
         id="rect3510" />
      <path
         d="M21 6a3 3 0 0 0-3-3H6a3 3 0 0 0-2 5.22V18a3 3 0 0 0 3 3h10a3 3 0 0 0 3-3V8.22A3 3 0 0 0 21 6zM6 5h12a1 1 0 0 1 0 2H6a1 1 0 0 1 0-2zm12 13a1 1 0 0 1-1 1H7a1 1 0 0 1-1-1V9h12z"
         id="path3512"
         style="fill:#2b73d2;fill-opacity:1" />
      <rect
         x="9"
         y="12"
         width="6"
         height="2"
         rx=".87"
         ry=".87"
         id="rect3514"
         style="fill:#2b73d2;fill-opacity:1" />
    </g>
  </g>
</svg>
