<?xml version="1.0" encoding="UTF-8" standalone="no"?>
<svg
   xmlns:dc="http://purl.org/dc/elements/1.1/"
   xmlns:cc="http://creativecommons.org/ns#"
   xmlns:rdf="http://www.w3.org/1999/02/22-rdf-syntax-ns#"
   xmlns:svg="http://www.w3.org/2000/svg"
   xmlns="http://www.w3.org/2000/svg"
   xmlns:sodipodi="http://sodipodi.sourceforge.net/DTD/sodipodi-0.dtd"
   xmlns:inkscape="http://www.inkscape.org/namespaces/inkscape"
   viewBox="0 0 24 24"
   version="1.1"
   id="svg3964"
   sodipodi:docname="arrowhead-left-outline.svg"
   inkscape:version="1.0.1 (c497b03c, 2020-09-10)">
  <metadata
     id="metadata3970">
    <rdf:RDF>
      <cc:Work
         rdf:about="">
        <dc:format>image/svg+xml</dc:format>
        <dc:type
           rdf:resource="http://purl.org/dc/dcmitype/StillImage" />
      </cc:Work>
    </rdf:RDF>
  </metadata>
  <defs
     id="defs3968" />
  <sodipodi:namedview
     pagecolor="#ffffff"
     bordercolor="#666666"
     borderopacity="1"
     objecttolerance="10"
     gridtolerance="10"
     guidetolerance="10"
     inkscape:pageopacity="0"
     inkscape:pageshadow="2"
     inkscape:window-width="860"
     inkscape:window-height="480"
     id="namedview3966"
     showgrid="false"
     inkscape:zoom="9.8333333"
     inkscape:cx="12"
     inkscape:cy="12"
     inkscape:window-x="0"
     inkscape:window-y="23"
     inkscape:window-maximized="0"
     inkscape:current-layer="svg3964" />
  <g
     data-name="Layer 2"
     id="g3962">
    <g
       data-name="arrowhead-left"
       id="g3960">
      <rect
         width="24"
         height="24"
         transform="rotate(90 12 12)"
         opacity="0"
         id="rect3954" />
      <path
         d="M11.64 5.23a1 1 0 0 0-1.41.13l-5 6a1 1 0 0 0 0 1.27l4.83 6a1 1 0 0 0 .78.37 1 1 0 0 0 .78-1.63L7.29 12l4.48-5.37a1 1 0 0 0-.13-1.4z"
         id="path3956"
         style="fill:#2b73d2;fill-opacity:1" />
      <path
         d="M14.29 12l4.48-5.37a1 1 0 0 0-1.54-1.28l-5 6a1 1 0 0 0 0 1.27l4.83 6a1 1 0 0 0 .78.37 1 1 0 0 0 .78-1.63z"
         id="path3958"
         style="fill:#2b73d2;fill-opacity:1" />
    </g>
  </g>
</svg>
