<?xml version="1.0" encoding="UTF-8" standalone="no"?>
<svg
   xmlns:dc="http://purl.org/dc/elements/1.1/"
   xmlns:cc="http://creativecommons.org/ns#"
   xmlns:rdf="http://www.w3.org/1999/02/22-rdf-syntax-ns#"
   xmlns:svg="http://www.w3.org/2000/svg"
   xmlns="http://www.w3.org/2000/svg"
   xmlns:sodipodi="http://sodipodi.sourceforge.net/DTD/sodipodi-0.dtd"
   xmlns:inkscape="http://www.inkscape.org/namespaces/inkscape"
   viewBox="0 0 24 24"
   version="1.1"
   id="svg3914"
   sodipodi:docname="arrowhead-down-outline.svg"
   inkscape:version="1.0.1 (c497b03c, 2020-09-10)">
  <metadata
     id="metadata3920">
    <rdf:RDF>
      <cc:Work
         rdf:about="">
        <dc:format>image/svg+xml</dc:format>
        <dc:type
           rdf:resource="http://purl.org/dc/dcmitype/StillImage" />
      </cc:Work>
    </rdf:RDF>
  </metadata>
  <defs
     id="defs3918" />
  <sodipodi:namedview
     pagecolor="#ffffff"
     bordercolor="#666666"
     borderopacity="1"
     objecttolerance="10"
     gridtolerance="10"
     guidetolerance="10"
     inkscape:pageopacity="0"
     inkscape:pageshadow="2"
     inkscape:window-width="860"
     inkscape:window-height="480"
     id="namedview3916"
     showgrid="false"
     inkscape:zoom="9.8333333"
     inkscape:cx="12"
     inkscape:cy="12"
     inkscape:window-x="0"
     inkscape:window-y="23"
     inkscape:window-maximized="0"
     inkscape:current-layer="svg3914" />
  <g
     data-name="Layer 2"
     id="g3912">
    <g
       data-name="arrowhead-down"
       id="g3910">
      <rect
         width="24"
         height="24"
         opacity="0"
         id="rect3904" />
      <path
         d="M17.37 12.39L12 16.71l-5.36-4.48a1 1 0 1 0-1.28 1.54l6 5a1 1 0 0 0 1.27 0l6-4.83a1 1 0 0 0 .15-1.41 1 1 0 0 0-1.41-.14z"
         id="path3906"
         style="fill:#2b73d2;fill-opacity:1" />
      <path
         d="M11.36 11.77a1 1 0 0 0 1.27 0l6-4.83a1 1 0 0 0 .15-1.41 1 1 0 0 0-1.41-.15L12 9.71 6.64 5.23a1 1 0 0 0-1.28 1.54z"
         id="path3908"
         style="fill:#2b73d2;fill-opacity:1" />
    </g>
  </g>
</svg>
