<?xml version="1.0" encoding="UTF-8" standalone="no"?>
<svg
   xmlns:dc="http://purl.org/dc/elements/1.1/"
   xmlns:cc="http://creativecommons.org/ns#"
   xmlns:rdf="http://www.w3.org/1999/02/22-rdf-syntax-ns#"
   xmlns:svg="http://www.w3.org/2000/svg"
   xmlns="http://www.w3.org/2000/svg"
   xmlns:sodipodi="http://sodipodi.sourceforge.net/DTD/sodipodi-0.dtd"
   xmlns:inkscape="http://www.inkscape.org/namespaces/inkscape"
   viewBox="0 0 24 24"
   version="1.1"
   id="svg3982"
   sodipodi:docname="arrowhead-right-outline.svg"
   inkscape:version="1.0.1 (c497b03c, 2020-09-10)">
  <metadata
     id="metadata3988">
    <rdf:RDF>
      <cc:Work
         rdf:about="">
        <dc:format>image/svg+xml</dc:format>
        <dc:type
           rdf:resource="http://purl.org/dc/dcmitype/StillImage" />
      </cc:Work>
    </rdf:RDF>
  </metadata>
  <defs
     id="defs3986" />
  <sodipodi:namedview
     pagecolor="#ffffff"
     bordercolor="#666666"
     borderopacity="1"
     objecttolerance="10"
     gridtolerance="10"
     guidetolerance="10"
     inkscape:pageopacity="0"
     inkscape:pageshadow="2"
     inkscape:window-width="1666"
     inkscape:window-height="1104"
     id="namedview3984"
     showgrid="false"
     inkscape:zoom="42"
     inkscape:cx="6.9404762"
     inkscape:cy="12"
     inkscape:window-x="0"
     inkscape:window-y="23"
     inkscape:window-maximized="0"
     inkscape:current-layer="svg3982" />
  <g
     data-name="Layer 2"
     id="g3980">
    <g
       data-name="arrowhead-right"
       id="g3978">
      <rect
         width="24"
         height="24"
         transform="rotate(-90 12 12)"
         opacity="0"
         id="rect3972" />
      <path
         d="M18.78 11.37l-4.78-6a1 1 0 0 0-1.41-.15 1 1 0 0 0-.15 1.41L16.71 12l-4.48 5.37a1 1 0 0 0 .13 1.41A1 1 0 0 0 13 19a1 1 0 0 0 .77-.36l5-6a1 1 0 0 0 .01-1.27z"
         id="path3974"
         style="fill:#2b73d2;fill-opacity:1" />
      <path
         d="M7 5.37a1 1 0 0 0-1.61 1.26L9.71 12l-4.48 5.36a1 1 0 0 0 .13 1.41A1 1 0 0 0 6 19a1 1 0 0 0 .77-.36l5-6a1 1 0 0 0 0-1.27z"
         id="path3976"
         style="fill:#2b73d2;fill-opacity:1" />
    </g>
  </g>
</svg>
