<?xml version="1.0" encoding="UTF-8" standalone="no"?>
<svg
   xmlns:dc="http://purl.org/dc/elements/1.1/"
   xmlns:cc="http://creativecommons.org/ns#"
   xmlns:rdf="http://www.w3.org/1999/02/22-rdf-syntax-ns#"
   xmlns:svg="http://www.w3.org/2000/svg"
   xmlns="http://www.w3.org/2000/svg"
   xmlns:sodipodi="http://sodipodi.sourceforge.net/DTD/sodipodi-0.dtd"
   xmlns:inkscape="http://www.inkscape.org/namespaces/inkscape"
   viewBox="0 0 24 24"
   version="1.1"
   id="svg4569"
   sodipodi:docname="arrowhead-up-outline.svg"
   inkscape:version="1.0.1 (c497b03c, 2020-09-10)">
  <metadata
     id="metadata4575">
    <rdf:RDF>
      <cc:Work
         rdf:about="">
        <dc:format>image/svg+xml</dc:format>
        <dc:type
           rdf:resource="http://purl.org/dc/dcmitype/StillImage" />
      </cc:Work>
    </rdf:RDF>
  </metadata>
  <defs
     id="defs4573" />
  <sodipodi:namedview
     pagecolor="#ffffff"
     bordercolor="#666666"
     borderopacity="1"
     objecttolerance="10"
     gridtolerance="10"
     guidetolerance="10"
     inkscape:pageopacity="0"
     inkscape:pageshadow="2"
     inkscape:window-width="860"
     inkscape:window-height="480"
     id="namedview4571"
     showgrid="false"
     inkscape:zoom="9.8333333"
     inkscape:cx="12"
     inkscape:cy="12"
     inkscape:window-x="0"
     inkscape:window-y="23"
     inkscape:window-maximized="0"
     inkscape:current-layer="svg4569" />
  <g
     data-name="Layer 2"
     id="g4567">
    <g
       data-name="arrowhead-up"
       id="g4565">
      <rect
         width="24"
         height="24"
         transform="rotate(180 12 12)"
         opacity="0"
         id="rect4559" />
      <path
         d="M6.63 11.61L12 7.29l5.37 4.48A1 1 0 0 0 18 12a1 1 0 0 0 .77-.36 1 1 0 0 0-.13-1.41l-6-5a1 1 0 0 0-1.27 0l-6 4.83a1 1 0 0 0-.15 1.41 1 1 0 0 0 1.41.14z"
         id="path4561"
         style="fill:#2b73d2;fill-opacity:1" />
      <path
         d="M12.64 12.23a1 1 0 0 0-1.27 0l-6 4.83a1 1 0 0 0-.15 1.41 1 1 0 0 0 1.41.15L12 14.29l5.37 4.48A1 1 0 0 0 18 19a1 1 0 0 0 .77-.36 1 1 0 0 0-.13-1.41z"
         id="path4563"
         style="fill:#2b73d2;fill-opacity:1" />
    </g>
  </g>
</svg>
