<?xml version="1.0" encoding="UTF-8" standalone="no"?>
<svg
   xmlns:dc="http://purl.org/dc/elements/1.1/"
   xmlns:cc="http://creativecommons.org/ns#"
   xmlns:rdf="http://www.w3.org/1999/02/22-rdf-syntax-ns#"
   xmlns:svg="http://www.w3.org/2000/svg"
   xmlns="http://www.w3.org/2000/svg"
   xmlns:sodipodi="http://sodipodi.sourceforge.net/DTD/sodipodi-0.dtd"
   xmlns:inkscape="http://www.inkscape.org/namespaces/inkscape"
   id="svg2020"
   clip-rule="evenodd"
   fill-rule="evenodd"
   stroke-linejoin="round"
   stroke-miterlimit="2"
   version="1.1"
   viewBox="0 0 123 123"
   xml:space="preserve"
   sodipodi:docname="avatar-outline.svg"
   inkscape:version="1.0.1 (c497b03c, 2020-09-10)"><defs
     id="defs4666" /><sodipodi:namedview
     pagecolor="#ffffff"
     bordercolor="#666666"
     borderopacity="1"
     objecttolerance="10"
     gridtolerance="10"
     guidetolerance="10"
     inkscape:pageopacity="0"
     inkscape:pageshadow="2"
     inkscape:window-width="860"
     inkscape:window-height="480"
     id="namedview4664"
     showgrid="false"
     inkscape:zoom="1.9186992"
     inkscape:cx="61.5"
     inkscape:cy="61.5"
     inkscape:window-x="0"
     inkscape:window-y="23"
     inkscape:window-maximized="0"
     inkscape:current-layer="svg2020" /><metadata
     id="metadata2026"><rdf:RDF><cc:Work
         rdf:about=""><dc:format>image/svg+xml</dc:format><dc:type
           rdf:resource="http://purl.org/dc/dcmitype/StillImage" /><dc:title /></cc:Work></rdf:RDF></metadata><rect
     id="avatar-outline"
     width="122.88"
     height="122.88"
     fill="none" /><g
     id="master"><rect
       id="ingombro"
       width="122.88"
       height="122.88"
       fill-opacity="0" /><rect
       id="rect2015"
       width="122.88"
       height="122.88"
       fill-opacity="0" /><path
       id="path2017"
       d="m61.44 112.64c-28.087-0-51.2-23.113-51.2-51.2s23.113-51.2 51.2-51.2 51.2 23.113 51.2 51.2-23.113 51.2-51.2 51.2zm16.804-13.888c-4.509-3.947-10.398-6.352-16.804-6.352s-12.295 2.405-16.804 6.352c5.14 2.342 10.831 3.648 16.804 3.648s11.664-1.306 16.804-3.648zm8.959-5.567c9.248-7.535 15.197-19 15.197-31.745-0-22.47-18.49-40.96-40.96-40.96s-40.96 18.49-40.96 40.96c-0 12.745 5.949 24.21 15.197 31.745 6.536-6.781 15.693-11.025 25.763-11.025s19.226 4.244 25.763 11.025zm-25.763-21.265c11.235-0 20.48-9.245 20.48-20.48s-9.245-20.48-20.48-20.48-20.48 9.245-20.48 20.48 9.245 20.48 20.48 20.48zm-0-30.72c5.617-0 10.24 4.623 10.24 10.24s-4.623 10.24-10.24 10.24-10.24-4.623-10.24-10.24 4.623-10.24 10.24-10.24z"
       fill-rule="nonzero"
       style="fill:#2b73d2;fill-opacity:1" /></g></svg>
