<?xml version="1.0" encoding="UTF-8" standalone="no"?>
<svg
   xmlns:dc="http://purl.org/dc/elements/1.1/"
   xmlns:cc="http://creativecommons.org/ns#"
   xmlns:rdf="http://www.w3.org/1999/02/22-rdf-syntax-ns#"
   xmlns:svg="http://www.w3.org/2000/svg"
   xmlns="http://www.w3.org/2000/svg"
   xmlns:sodipodi="http://sodipodi.sourceforge.net/DTD/sodipodi-0.dtd"
   xmlns:inkscape="http://www.inkscape.org/namespaces/inkscape"
   viewBox="0 0 24 24"
   version="1.1"
   id="svg4874"
   sodipodi:docname="bell-outline.svg"
   inkscape:version="1.0.1 (c497b03c, 2020-09-10)">
  <metadata
     id="metadata4880">
    <rdf:RDF>
      <cc:Work
         rdf:about="">
        <dc:format>image/svg+xml</dc:format>
        <dc:type
           rdf:resource="http://purl.org/dc/dcmitype/StillImage" />
      </cc:Work>
    </rdf:RDF>
  </metadata>
  <defs
     id="defs4878" />
  <sodipodi:namedview
     pagecolor="#ffffff"
     bordercolor="#666666"
     borderopacity="1"
     objecttolerance="10"
     gridtolerance="10"
     guidetolerance="10"
     inkscape:pageopacity="0"
     inkscape:pageshadow="2"
     inkscape:window-width="860"
     inkscape:window-height="480"
     id="namedview4876"
     showgrid="false"
     inkscape:zoom="9.8333333"
     inkscape:cx="12"
     inkscape:cy="12"
     inkscape:window-x="0"
     inkscape:window-y="23"
     inkscape:window-maximized="0"
     inkscape:current-layer="svg4874" />
  <g
     data-name="Layer 2"
     id="g4872">
    <g
       data-name="bell"
       id="g4870">
      <rect
         width="24"
         height="24"
         opacity="0"
         id="rect4866" />
      <path
         d="M20.52 15.21l-1.8-1.81V8.94a6.86 6.86 0 0 0-5.82-6.88 6.74 6.74 0 0 0-7.62 6.67v4.67l-1.8 1.81A1.64 1.64 0 0 0 4.64 18H8v.34A3.84 3.84 0 0 0 12 22a3.84 3.84 0 0 0 4-3.66V18h3.36a1.64 1.64 0 0 0 1.16-2.79zM14 18.34A1.88 1.88 0 0 1 12 20a1.88 1.88 0 0 1-2-1.66V18h4zM5.51 16l1.18-1.18a2 2 0 0 0 .59-1.42V8.73A4.73 4.73 0 0 1 8.9 5.17 4.67 4.67 0 0 1 12.64 4a4.86 4.86 0 0 1 4.08 4.9v4.5a2 2 0 0 0 .58 1.42L18.49 16z"
         id="path4868"
         style="fill:#2b73d2;fill-opacity:1" />
    </g>
  </g>
</svg>
