<?xml version="1.0" encoding="UTF-8" standalone="no"?>
<svg
   xmlns:dc="http://purl.org/dc/elements/1.1/"
   xmlns:cc="http://creativecommons.org/ns#"
   xmlns:rdf="http://www.w3.org/1999/02/22-rdf-syntax-ns#"
   xmlns:svg="http://www.w3.org/2000/svg"
   xmlns="http://www.w3.org/2000/svg"
   xmlns:sodipodi="http://sodipodi.sourceforge.net/DTD/sodipodi-0.dtd"
   xmlns:inkscape="http://www.inkscape.org/namespaces/inkscape"
   width="100%"
   height="100%"
   viewBox="0 0 123 123"
   version="1.1"
   xml:space="preserve"
   style="fill-rule:evenodd;clip-rule:evenodd;stroke-linejoin:round;stroke-miterlimit:2;"
   id="svg5032"
   sodipodi:docname="bottom-view-outline.svg"
   inkscape:version="1.0.1 (c497b03c, 2020-09-10)"><metadata
     id="metadata5038"><rdf:RDF><cc:Work
         rdf:about=""><dc:format>image/svg+xml</dc:format><dc:type
           rdf:resource="http://purl.org/dc/dcmitype/StillImage" /></cc:Work></rdf:RDF></metadata><defs
     id="defs5036" /><sodipodi:namedview
     pagecolor="#ffffff"
     bordercolor="#666666"
     borderopacity="1"
     objecttolerance="10"
     gridtolerance="10"
     guidetolerance="10"
     inkscape:pageopacity="0"
     inkscape:pageshadow="2"
     inkscape:window-width="860"
     inkscape:window-height="480"
     id="namedview5034"
     showgrid="false"
     inkscape:zoom="1.9186992"
     inkscape:cx="61.5"
     inkscape:cy="61.5"
     inkscape:window-x="0"
     inkscape:window-y="23"
     inkscape:window-maximized="0"
     inkscape:current-layer="svg5032" /><rect
     id="bottom-view-outline"
     x="0"
     y="-0"
     width="122.88"
     height="122.88"
     style="fill:none;" /><g
     id="g5028"><rect
       x="0"
       y="0"
       width="122.88"
       height="122.88"
       style="fill-opacity:0;"
       id="rect5026" /></g><path
     d="M92.16,15.36l-61.44,0c-8.426,0 -15.36,6.934 -15.36,15.36l0,61.44c0,8.426 6.934,15.36 15.36,15.36l61.44,0c8.426,0 15.36,-6.934 15.36,-15.36l0,-61.44c0,-8.426 -6.934,-15.36 -15.36,-15.36Zm5.12,64l-0,12.8c-0,2.809 -2.311,5.12 -5.12,5.12l-61.44,-0c-2.809,-0 -5.12,-2.311 -5.12,-5.12l0,-12.8l71.68,-0Zm-0,-10.24l-71.68,0l0,-17.92l71.68,-0l-0,17.92Zm-66.56,-43.52l61.44,-0c2.809,-0 5.12,2.311 5.12,5.12l-0,10.24l-71.68,-0l0,-10.24c0,-2.809 2.311,-5.12 5.12,-5.12Z"
     style="fill-rule:nonzero;fill:#2b73d2;fill-opacity:1"
     id="path5030" /></svg>
