<?xml version="1.0" encoding="UTF-8" standalone="no"?>
<svg
   xmlns:dc="http://purl.org/dc/elements/1.1/"
   xmlns:cc="http://creativecommons.org/ns#"
   xmlns:rdf="http://www.w3.org/1999/02/22-rdf-syntax-ns#"
   xmlns:svg="http://www.w3.org/2000/svg"
   xmlns="http://www.w3.org/2000/svg"
   xmlns:sodipodi="http://sodipodi.sourceforge.net/DTD/sodipodi-0.dtd"
   xmlns:inkscape="http://www.inkscape.org/namespaces/inkscape"
   clip-rule="evenodd"
   fill-rule="evenodd"
   stroke-linejoin="round"
   stroke-miterlimit="2"
   version="1.1"
   viewBox="0 0 123 123"
   xml:space="preserve"
   id="svg13470"
   sodipodi:docname="calendar-2.svg"
   inkscape:version="1.0.1 (c497b03c, 2020-09-10)"><defs
     id="defs13474" /><sodipodi:namedview
     pagecolor="#ffffff"
     bordercolor="#666666"
     borderopacity="1"
     objecttolerance="10"
     gridtolerance="10"
     guidetolerance="10"
     inkscape:pageopacity="0"
     inkscape:pageshadow="2"
     inkscape:window-width="860"
     inkscape:window-height="480"
     id="namedview13472"
     showgrid="false"
     inkscape:zoom="1.9186992"
     inkscape:cx="61.5"
     inkscape:cy="61.5"
     inkscape:window-x="0"
     inkscape:window-y="23"
     inkscape:window-maximized="0"
     inkscape:current-layer="svg13470" /><metadata
     id="metadata13458"><rdf:RDF><cc:Work
         rdf:about=""><dc:format>image/svg+xml</dc:format><dc:type
           rdf:resource="http://purl.org/dc/dcmitype/StillImage" /><dc:title /></cc:Work></rdf:RDF></metadata><rect
     width="122.88"
     height="122.88"
     fill="none"
     id="rect13460" /><path
     d="m122.88 122.88v-122.88h-122.88v122.88h122.88z"
     fill-opacity="0"
     id="path13462" /><rect
     width="122.88"
     height="122.88"
     fill-opacity="0"
     id="rect13464" /><path
     d="m107.52 56.24h-92.16v41.04c0 8.426 6.934 15.36 15.36 15.36h61.44c8.426 0 15.36-6.934 15.36-15.36v-41.04zm-66.56 30.8c-2.809 0-5.12-2.311-5.12-5.12s2.311-5.12 5.12-5.12 5.12 2.311 5.12 5.12-2.311 5.12-5.12 5.12zm40.96 0h-20.48c-2.809 0-5.12-2.311-5.12-5.12s2.311-5.12 5.12-5.12h20.48c2.809 0 5.12 2.311 5.12 5.12s-2.311 5.12-5.12 5.12z"
     fill-rule="nonzero"
     id="path13466"
     style="fill:#2b73d2;fill-opacity:1" /><path
     d="m76.8 20.48v-5.12c0-2.809 2.311-5.12 5.12-5.12s5.12 2.311 5.12 5.12v5.12h5.12c8.426 0 15.36 6.934 15.36 15.36v10.16h-92.16v-10.16c0-8.426 6.934-15.36 15.36-15.36h5.12v-5.12c2e-3 -0.587 0.102-1.171 0.302-1.723 0.412-1.137 1.231-2.11 2.278-2.715 0.387-0.223 0.804-0.396 1.236-0.512 0.499-0.133 1.018-0.188 1.533-0.165 0.583 0.026 1.159 0.154 1.698 0.376 0.611 0.251 1.17 0.621 1.642 1.082 0.599 0.585 1.054 1.314 1.31 2.112 0.16 0.498 0.241 1.021 0.241 1.545v5.12h30.72z"
     fill-rule="nonzero"
     id="path13468"
     style="fill:#2b73d2;fill-opacity:1" /></svg>
