<?xml version="1.0" encoding="UTF-8" standalone="no"?>
<svg
   xmlns:dc="http://purl.org/dc/elements/1.1/"
   xmlns:cc="http://creativecommons.org/ns#"
   xmlns:rdf="http://www.w3.org/1999/02/22-rdf-syntax-ns#"
   xmlns:svg="http://www.w3.org/2000/svg"
   xmlns="http://www.w3.org/2000/svg"
   xmlns:sodipodi="http://sodipodi.sourceforge.net/DTD/sodipodi-0.dtd"
   xmlns:inkscape="http://www.inkscape.org/namespaces/inkscape"
   width="100%"
   height="100%"
   viewBox="0 0 123 123"
   version="1.1"
   xml:space="preserve"
   style="fill-rule:evenodd;clip-rule:evenodd;stroke-linejoin:round;stroke-miterlimit:2;"
   id="svg5237"
   sodipodi:docname="calendar-warning-outline.svg"
   inkscape:version="1.0.1 (c497b03c, 2020-09-10)"><metadata
     id="metadata5243"><rdf:RDF><cc:Work
         rdf:about=""><dc:format>image/svg+xml</dc:format><dc:type
           rdf:resource="http://purl.org/dc/dcmitype/StillImage" /></cc:Work></rdf:RDF></metadata><defs
     id="defs5241" /><sodipodi:namedview
     pagecolor="#ffffff"
     bordercolor="#666666"
     borderopacity="1"
     objecttolerance="10"
     gridtolerance="10"
     guidetolerance="10"
     inkscape:pageopacity="0"
     inkscape:pageshadow="2"
     inkscape:window-width="860"
     inkscape:window-height="480"
     id="namedview5239"
     showgrid="false"
     inkscape:zoom="1.9186992"
     inkscape:cx="61.5"
     inkscape:cy="61.5"
     inkscape:window-x="0"
     inkscape:window-y="23"
     inkscape:window-maximized="0"
     inkscape:current-layer="svg5237" /><rect
     id="calendar-warning-outline"
     x="0"
     y="-0"
     width="122.88"
     height="122.88"
     style="fill:none;" /><g
     id="master"><rect
       id="ingombro"
       x="0"
       y="0"
       width="122.88"
       height="122.88"
       style="fill-opacity:0;" /><path
       id="path63"
       d="M107.52,97.28c-0,8.426 -6.934,15.36 -15.36,15.36l-61.44,-0c-8.426,-0 -15.36,-6.934 -15.36,-15.36l-0,-61.44c-0,-8.426 6.934,-15.36 15.36,-15.36l5.12,0l-0,-5.12c-0,-2.809 2.311,-5.12 5.12,-5.12c2.809,0 5.12,2.311 5.12,5.12l-0,5.12l30.72,0l-0,-5.12c-0,-2.809 2.311,-5.12 5.12,-5.12c2.809,0 5.12,2.311 5.12,5.12l-0,5.12l5.12,0c8.426,0 15.36,6.934 15.36,15.36l-0,61.44Zm-10.24,-0l-0,-61.44c-0,-2.809 -2.311,-5.12 -5.12,-5.12l-5.12,0l-0,5.12c-0,2.809 -2.311,5.12 -5.12,5.12c-2.809,-0 -5.12,-2.311 -5.12,-5.12l-0,-5.12l-30.72,0l-0,5.12c-0,2.809 -2.311,5.12 -5.12,5.12c-2.809,0 -5.12,-2.311 -5.12,-5.12l-0,-5.12l-5.12,0c-2.809,0 -5.12,2.311 -5.12,5.12l-0,61.44c-0,2.809 2.311,5.12 5.12,5.12l61.44,-0c2.809,-0 5.12,-2.311 5.12,-5.12Zm-35.84,-15.361c2.826,0 5.12,2.294 5.12,5.12c-0,2.826 -2.294,5.12 -5.12,5.12c-2.826,0 -5.12,-2.294 -5.12,-5.12c-0,-2.826 2.294,-5.12 5.12,-5.12Zm-0,-35.84c-2.809,0 -5.12,2.311 -5.12,5.12l-0,20.48c-0,2.809 2.311,5.12 5.12,5.12c2.809,0 5.12,-2.311 5.12,-5.12l-0,-20.48c-0,-2.809 -2.311,-5.12 -5.12,-5.12Z"
       style="fill-rule:nonzero;fill:#2b73d2;fill-opacity:1" /></g></svg>
