<?xml version="1.0" encoding="UTF-8" standalone="no"?>
<svg
   xmlns:dc="http://purl.org/dc/elements/1.1/"
   xmlns:cc="http://creativecommons.org/ns#"
   xmlns:rdf="http://www.w3.org/1999/02/22-rdf-syntax-ns#"
   xmlns:svg="http://www.w3.org/2000/svg"
   xmlns="http://www.w3.org/2000/svg"
   xmlns:sodipodi="http://sodipodi.sourceforge.net/DTD/sodipodi-0.dtd"
   xmlns:inkscape="http://www.inkscape.org/namespaces/inkscape"
   viewBox="0 0 24 24"
   version="1.1"
   id="svg5475"
   sodipodi:docname="checkmark-square-outline.svg"
   inkscape:version="1.0.1 (c497b03c, 2020-09-10)">
  <metadata
     id="metadata5481">
    <rdf:RDF>
      <cc:Work
         rdf:about="">
        <dc:format>image/svg+xml</dc:format>
        <dc:type
           rdf:resource="http://purl.org/dc/dcmitype/StillImage" />
      </cc:Work>
    </rdf:RDF>
  </metadata>
  <defs
     id="defs5479" />
  <sodipodi:namedview
     pagecolor="#ffffff"
     bordercolor="#666666"
     borderopacity="1"
     objecttolerance="10"
     gridtolerance="10"
     guidetolerance="10"
     inkscape:pageopacity="0"
     inkscape:pageshadow="2"
     inkscape:window-width="860"
     inkscape:window-height="480"
     id="namedview5477"
     showgrid="false"
     inkscape:zoom="9.8333333"
     inkscape:cx="12"
     inkscape:cy="12"
     inkscape:window-x="0"
     inkscape:window-y="23"
     inkscape:window-maximized="0"
     inkscape:current-layer="svg5475" />
  <g
     data-name="Layer 2"
     id="g5473">
    <g
       data-name="checkmark-square"
       id="g5471">
      <rect
         width="24"
         height="24"
         opacity="0"
         id="rect5465" />
      <path
         d="M20 11.83a1 1 0 0 0-1 1v5.57a.6.6 0 0 1-.6.6H5.6a.6.6 0 0 1-.6-.6V5.6a.6.6 0 0 1 .6-.6h9.57a1 1 0 1 0 0-2H5.6A2.61 2.61 0 0 0 3 5.6v12.8A2.61 2.61 0 0 0 5.6 21h12.8a2.61 2.61 0 0 0 2.6-2.6v-5.57a1 1 0 0 0-1-1z"
         id="path5467"
         style="fill:#2b73d2;fill-opacity:1" />
      <path
         d="M10.72 11a1 1 0 0 0-1.44 1.38l2.22 2.33a1 1 0 0 0 .72.31 1 1 0 0 0 .72-.3l6.78-7a1 1 0 1 0-1.44-1.4l-6.05 6.26z"
         id="path5469"
         style="fill:#2b73d2;fill-opacity:1" />
    </g>
  </g>
</svg>
