<?xml version="1.0" encoding="UTF-8" standalone="no"?>
<svg
   xmlns:dc="http://purl.org/dc/elements/1.1/"
   xmlns:cc="http://creativecommons.org/ns#"
   xmlns:rdf="http://www.w3.org/1999/02/22-rdf-syntax-ns#"
   xmlns:svg="http://www.w3.org/2000/svg"
   xmlns="http://www.w3.org/2000/svg"
   xmlns:sodipodi="http://sodipodi.sourceforge.net/DTD/sodipodi-0.dtd"
   xmlns:inkscape="http://www.inkscape.org/namespaces/inkscape"
   viewBox="0 0 24 24"
   version="1.1"
   id="svg5884"
   sodipodi:docname="color-palette-outline.svg"
   inkscape:version="1.0.1 (c497b03c, 2020-09-10)">
  <metadata
     id="metadata5890">
    <rdf:RDF>
      <cc:Work
         rdf:about="">
        <dc:format>image/svg+xml</dc:format>
        <dc:type
           rdf:resource="http://purl.org/dc/dcmitype/StillImage" />
      </cc:Work>
    </rdf:RDF>
  </metadata>
  <defs
     id="defs5888" />
  <sodipodi:namedview
     pagecolor="#ffffff"
     bordercolor="#666666"
     borderopacity="1"
     objecttolerance="10"
     gridtolerance="10"
     guidetolerance="10"
     inkscape:pageopacity="0"
     inkscape:pageshadow="2"
     inkscape:window-width="860"
     inkscape:window-height="480"
     id="namedview5886"
     showgrid="false"
     inkscape:zoom="9.8333333"
     inkscape:cx="12"
     inkscape:cy="12"
     inkscape:window-x="0"
     inkscape:window-y="23"
     inkscape:window-maximized="0"
     inkscape:current-layer="svg5884" />
  <g
     data-name="Layer 2"
     id="g5882">
    <g
       data-name="color-palette"
       id="g5880">
      <rect
         width="24"
         height="24"
         opacity="0"
         id="rect5868" />
      <path
         d="M19.54 5.08A10.61 10.61 0 0 0 11.91 2a10 10 0 0 0-.05 20 2.58 2.58 0 0 0 2.53-1.89 2.52 2.52 0 0 0-.57-2.28.5.5 0 0 1 .37-.83h1.65A6.15 6.15 0 0 0 22 11.33a8.48 8.48 0 0 0-2.46-6.25zM15.88 15h-1.65a2.49 2.49 0 0 0-1.87 4.15.49.49 0 0 1 .12.49c-.05.21-.28.34-.59.36a8 8 0 0 1-7.82-9.11A8.1 8.1 0 0 1 11.92 4H12a8.47 8.47 0 0 1 6.1 2.48 6.5 6.5 0 0 1 1.9 4.77A4.17 4.17 0 0 1 15.88 15z"
         id="path5870"
         style="fill:#2b73d2;fill-opacity:1" />
      <circle
         cx="12"
         cy="6.5"
         r="1.5"
         id="circle5872"
         style="fill:#2b73d2;fill-opacity:1" />
      <path
         d="M15.25 7.2a1.5 1.5 0 1 0 2.05.55 1.5 1.5 0 0 0-2.05-.55z"
         id="path5874"
         style="fill:#2b73d2;fill-opacity:1" />
      <path
         d="M8.75 7.2a1.5 1.5 0 1 0 .55 2.05 1.5 1.5 0 0 0-.55-2.05z"
         id="path5876"
         style="fill:#2b73d2;fill-opacity:1" />
      <path
         d="M6.16 11.26a1.5 1.5 0 1 0 2.08.4 1.49 1.49 0 0 0-2.08-.4z"
         id="path5878"
         style="fill:#2b73d2;fill-opacity:1" />
    </g>
  </g>
</svg>
