<?xml version="1.0" encoding="UTF-8" standalone="no"?>
<svg
   xmlns:dc="http://purl.org/dc/elements/1.1/"
   xmlns:cc="http://creativecommons.org/ns#"
   xmlns:rdf="http://www.w3.org/1999/02/22-rdf-syntax-ns#"
   xmlns:svg="http://www.w3.org/2000/svg"
   xmlns="http://www.w3.org/2000/svg"
   xmlns:sodipodi="http://sodipodi.sourceforge.net/DTD/sodipodi-0.dtd"
   xmlns:inkscape="http://www.inkscape.org/namespaces/inkscape"
   id="svg1751"
   clip-rule="evenodd"
   fill-rule="evenodd"
   stroke-linejoin="round"
   stroke-miterlimit="2"
   version="1.1"
   viewBox="0 0 123 123"
   xml:space="preserve"
   sodipodi:docname="contacts-folder-outline.svg"
   inkscape:version="1.0.1 (c497b03c, 2020-09-10)"><defs
     id="defs5983" /><sodipodi:namedview
     pagecolor="#ffffff"
     bordercolor="#666666"
     borderopacity="1"
     objecttolerance="10"
     gridtolerance="10"
     guidetolerance="10"
     inkscape:pageopacity="0"
     inkscape:pageshadow="2"
     inkscape:window-width="860"
     inkscape:window-height="480"
     id="namedview5981"
     showgrid="false"
     inkscape:zoom="1.9186992"
     inkscape:cx="61.5"
     inkscape:cy="61.5"
     inkscape:window-x="0"
     inkscape:window-y="23"
     inkscape:window-maximized="0"
     inkscape:current-layer="svg1751" /><metadata
     id="metadata1757"><rdf:RDF><cc:Work
         rdf:about=""><dc:format>image/svg+xml</dc:format><dc:type
           rdf:resource="http://purl.org/dc/dcmitype/StillImage" /><dc:title /></cc:Work></rdf:RDF></metadata><rect
     id="contacts-folder-outline"
     width="122.88"
     height="122.88"
     fill="none" /><clipPath
     id="_clip1"><rect
       id="rect1740"
       width="122.88"
       height="122.88" /></clipPath><g
     id="g1749"
     clip-path="url(#_clip1)"><g
       id="g1747"><rect
         id="rect1743"
         width="122.88"
         height="122.88"
         fill-opacity="0" /><path
         id="path1745"
         d="m99.84 104.96h-76.8c-6.919 0.085-12.688-5.523-12.8-12.442v-62.156c0.112-6.919 5.881-12.527 12.8-12.442h23.552c1.53 0.01 2.978 0.706 3.942 1.894l13.312 16.282h35.84c0.103-3e-3 0.206-4e-3 0.309-4e-3 6.862 0 12.536 5.585 12.645 12.446v43.98c-0.112 6.919-5.881 12.527-12.8 12.442zm-79.36-74.598v62.156c0.076 1.236 1.113 2.211 2.351 2.211 0.07 0 0.139-3e-3 0.209-9e-3h76.8c0.07 6e-3 0.139 9e-3 0.209 9e-3 1.238 0 2.275-0.975 2.351-2.211v-43.98c-0.076-1.236-1.113-2.211-2.351-2.211-0.07-0-0.139 3e-3 -0.209 9e-3h-38.4c-1.53-0.01-2.978-0.706-3.942-1.894l-13.312-16.282h-21.146c-0.07-6e-3 -0.139-9e-3 -0.209-9e-3 -1.238-0-2.275 0.975-2.351 2.211zm57.472 54.075c1.006 0 1.835-0.828 1.835-1.834-5e-3 -5.03-4.144-9.166-9.174-9.166-2.031 0-4.007 0.675-5.614 1.919-2.406-2.397-5.667-3.744-9.063-3.744-7.039 0-12.833 5.787-12.843 12.825 0 1.007 0.829 1.835 1.835 1.835h22.016c1.006 0 1.835-0.828 1.835-1.835h9.173zm-7.339-12.842c3.02-0 5.504-2.485 5.504-5.504 0-3.02-2.484-5.504-5.504-5.504-3.019-0-5.504 2.484-5.504 5.504 0 3.019 2.485 5.504 5.504 5.504zm-14.677-3.67c4.026 0 7.339-3.312 7.339-7.338s-3.313-7.339-7.339-7.339-7.339 3.313-7.339 7.339 3.313 7.338 7.339 7.338z"
         fill-rule="nonzero"
         style="fill:#2b73d2;fill-opacity:1" /></g></g></svg>
