<?xml version="1.0" encoding="UTF-8" standalone="no"?>
<svg
   xmlns:dc="http://purl.org/dc/elements/1.1/"
   xmlns:cc="http://creativecommons.org/ns#"
   xmlns:rdf="http://www.w3.org/1999/02/22-rdf-syntax-ns#"
   xmlns:svg="http://www.w3.org/2000/svg"
   xmlns="http://www.w3.org/2000/svg"
   xmlns:sodipodi="http://sodipodi.sourceforge.net/DTD/sodipodi-0.dtd"
   xmlns:inkscape="http://www.inkscape.org/namespaces/inkscape"
   width="100%"
   height="100%"
   viewBox="0 0 123 123"
   version="1.1"
   xml:space="preserve"
   style="fill-rule:evenodd;clip-rule:evenodd;stroke-linejoin:round;stroke-miterlimit:2;"
   id="svg14271"
   sodipodi:docname="contacts-folder.svg"
   inkscape:version="1.0.1 (c497b03c, 2020-09-10)"><metadata
     id="metadata14277"><rdf:RDF><cc:Work
         rdf:about=""><dc:format>image/svg+xml</dc:format><dc:type
           rdf:resource="http://purl.org/dc/dcmitype/StillImage" /></cc:Work></rdf:RDF></metadata><defs
     id="defs14275" /><sodipodi:namedview
     pagecolor="#ffffff"
     bordercolor="#666666"
     borderopacity="1"
     objecttolerance="10"
     gridtolerance="10"
     guidetolerance="10"
     inkscape:pageopacity="0"
     inkscape:pageshadow="2"
     inkscape:window-width="860"
     inkscape:window-height="480"
     id="namedview14273"
     showgrid="false"
     inkscape:zoom="1.9186992"
     inkscape:cx="61.5"
     inkscape:cy="61.5"
     inkscape:window-x="0"
     inkscape:window-y="23"
     inkscape:window-maximized="0"
     inkscape:current-layer="svg14271" /><rect
     id="contacts-folder"
     x="0"
     y="-0"
     width="122.88"
     height="122.88"
     style="fill:none;" /><clipPath
     id="_clip1"><rect
       x="0"
       y="-0"
       width="122.88"
       height="122.88"
       id="rect14260" /></clipPath><g
     clip-path="url(#_clip1)"
     id="g14269"><g
       id="g14267"><rect
         x="0"
         y="0"
         width="122.88"
         height="122.88"
         style="fill-opacity:0;"
         id="rect14263" /><path
         d="M99.84,104.96l-76.8,-0c-6.919,0.085 -12.688,-5.523 -12.8,-12.442l0,-62.156c0.112,-6.919 5.881,-12.527 12.8,-12.442l23.552,-0c1.53,0.01 2.978,0.706 3.942,1.894l13.312,16.282l35.84,-0c0.103,-0.003 0.206,-0.004 0.309,-0.004c6.862,0 12.536,5.585 12.645,12.446l0,43.98c-0.112,6.919 -5.881,12.527 -12.8,12.442Zm-21.888,-20.523c1.006,0 1.835,-0.828 1.835,-1.834c-0.005,-5.03 -4.144,-9.166 -9.174,-9.166c-2.031,0 -4.007,0.675 -5.614,1.919c-2.406,-2.397 -5.667,-3.744 -9.063,-3.744c-7.039,0 -12.833,5.787 -12.843,12.825c0,1.007 0.829,1.835 1.835,1.835l22.016,-0c1.006,-0 1.835,-0.828 1.835,-1.835l9.173,0Zm-7.339,-12.842c3.02,-0 5.504,-2.485 5.504,-5.504c0,-3.02 -2.484,-5.504 -5.504,-5.504c-3.019,-0 -5.504,2.484 -5.504,5.504c0,3.019 2.485,5.504 5.504,5.504Zm-14.677,-3.67c4.026,0 7.339,-3.312 7.339,-7.338c-0,-4.026 -3.313,-7.339 -7.339,-7.339c-4.026,-0 -7.339,3.313 -7.339,7.339c0,4.026 3.313,7.338 7.339,7.338Z"
         style="fill-rule:nonzero;fill:#747474;fill-opacity:1"
         id="path14265" /></g></g></svg>
