<svg width="24" height="24" viewBox="0 0 24 24" fill="none" xmlns="http://www.w3.org/2000/svg">
<path d="M9.01561 11C11.21 11 13.0156 9.19434 13.0156 6.99998C13.0156 4.80567 11.21 3 9.01561 3C6.8213 3 5.01562 4.80567 5.01562 6.99998C5.01562 9.19434 6.8213 11 9.01561 11V11ZM9.01561 5.00002C10.1128 5.00002 11.0156 5.90283 11.0156 6.99998C11.0156 8.09719 10.1128 9 9.01561 9C7.91845 9 7.01564 8.09719 7.01564 6.99998C7.01564 5.90283 7.91845 5.00002 9.01561 5.00002Z" fill="#2B73D2"/>
<path d="M19.9634 14.8884C21.8637 13.7912 22.5246 11.3246 21.4274 9.42429C20.3303 7.52393 17.8637 6.86299 15.9633 7.9602C14.063 9.05735 13.4021 11.5239 14.4992 13.4243C15.5964 15.3246 18.063 15.9856 19.9634 14.8884V14.8884ZM16.9634 9.69223C17.5497 9.3537 18.2438 9.3499 18.8183 9.6199C19.1748 9.78743 19.4853 10.0604 19.6954 10.4243C20.244 11.3745 19.9135 12.6078 18.9633 13.1563C18.0132 13.7049 18.5119 12.3745 17.9633 11.4243C17.4148 10.4741 16.0131 10.2408 16.9634 9.69223Z" fill="#2B73D2"/>
<path d="M9.01561 12.999C5.17552 12.999 2.01562 16.159 2.01562 19.9991C2.01562 20.5476 2.46703 20.999 3.01561 20.999C3.56419 20.999 4.01564 20.5476 4.01564 19.9991C4.01564 17.2561 6.27272 14.999 9.01561 14.999C11.7585 14.999 14.0156 17.2561 14.0156 19.9991C14.0156 20.5476 14.467 20.999 15.0156 20.999C15.5642 20.999 16.0156 20.5476 16.0156 19.9991C16.0156 16.159 12.8557 12.999 9.01561 12.999V12.999Z" fill="#2B73D2"/>
</svg>
