<?xml version="1.0" encoding="UTF-8" standalone="no"?>
<svg
   xmlns:dc="http://purl.org/dc/elements/1.1/"
   xmlns:cc="http://creativecommons.org/ns#"
   xmlns:rdf="http://www.w3.org/1999/02/22-rdf-syntax-ns#"
   xmlns:svg="http://www.w3.org/2000/svg"
   xmlns="http://www.w3.org/2000/svg"
   xmlns:sodipodi="http://sodipodi.sourceforge.net/DTD/sodipodi-0.dtd"
   xmlns:inkscape="http://www.inkscape.org/namespaces/inkscape"
   viewBox="0 0 24 24"
   version="1.1"
   id="svg14338"
   sodipodi:docname="copy.svg"
   inkscape:version="1.0.1 (c497b03c, 2020-09-10)">
  <metadata
     id="metadata14344">
    <rdf:RDF>
      <cc:Work
         rdf:about="">
        <dc:format>image/svg+xml</dc:format>
        <dc:type
           rdf:resource="http://purl.org/dc/dcmitype/StillImage" />
      </cc:Work>
    </rdf:RDF>
  </metadata>
  <defs
     id="defs14342" />
  <sodipodi:namedview
     pagecolor="#ffffff"
     bordercolor="#666666"
     borderopacity="1"
     objecttolerance="10"
     gridtolerance="10"
     guidetolerance="10"
     inkscape:pageopacity="0"
     inkscape:pageshadow="2"
     inkscape:window-width="860"
     inkscape:window-height="480"
     id="namedview14340"
     showgrid="false"
     inkscape:zoom="9.8333333"
     inkscape:cx="12"
     inkscape:cy="12"
     inkscape:window-x="0"
     inkscape:window-y="23"
     inkscape:window-maximized="0"
     inkscape:current-layer="svg14338" />
  <g
     data-name="Layer 2"
     id="g14336">
    <g
       data-name="copy"
       id="g14334">
      <rect
         width="24"
         height="24"
         opacity="0"
         id="rect14330" />
      <path
         d="M18 9h-3V5.67A2.68 2.68 0 0 0 12.33 3H5.67A2.68 2.68 0 0 0 3 5.67v6.66A2.68 2.68 0 0 0 5.67 15H9v3a3 3 0 0 0 3 3h6a3 3 0 0 0 3-3v-6a3 3 0 0 0-3-3zm-9 3v1H5.67a.67.67 0 0 1-.67-.67V5.67A.67.67 0 0 1 5.67 5h6.66a.67.67 0 0 1 .67.67V9h-1a3 3 0 0 0-3 3z"
         id="path14332"
         style="fill:#2b73d2;fill-opacity:1" />
    </g>
  </g>
</svg>
