<?xml version="1.0" encoding="UTF-8" standalone="no"?>
<svg
   xmlns:dc="http://purl.org/dc/elements/1.1/"
   xmlns:cc="http://creativecommons.org/ns#"
   xmlns:rdf="http://www.w3.org/1999/02/22-rdf-syntax-ns#"
   xmlns:svg="http://www.w3.org/2000/svg"
   xmlns="http://www.w3.org/2000/svg"
   xmlns:sodipodi="http://sodipodi.sourceforge.net/DTD/sodipodi-0.dtd"
   xmlns:inkscape="http://www.inkscape.org/namespaces/inkscape"
   id="svg1548"
   clip-rule="evenodd"
   fill-rule="evenodd"
   stroke-linejoin="round"
   stroke-miterlimit="2"
   version="1.1"
   viewBox="0 0 123 123"
   xml:space="preserve"
   sodipodi:docname="day-view-outline.svg"
   inkscape:version="1.0.1 (c497b03c, 2020-09-10)"><defs
     id="defs6357" /><sodipodi:namedview
     pagecolor="#ffffff"
     bordercolor="#666666"
     borderopacity="1"
     objecttolerance="10"
     gridtolerance="10"
     guidetolerance="10"
     inkscape:pageopacity="0"
     inkscape:pageshadow="2"
     inkscape:window-width="860"
     inkscape:window-height="480"
     id="namedview6355"
     showgrid="false"
     inkscape:zoom="1.9186992"
     inkscape:cx="61.5"
     inkscape:cy="61.5"
     inkscape:window-x="0"
     inkscape:window-y="23"
     inkscape:window-maximized="0"
     inkscape:current-layer="svg1548" /><metadata
     id="metadata1554"><rdf:RDF><cc:Work
         rdf:about=""><dc:format>image/svg+xml</dc:format><dc:type
           rdf:resource="http://purl.org/dc/dcmitype/StillImage" /><dc:title /></cc:Work></rdf:RDF></metadata><rect
     id="day-view-outline"
     width="122.88"
     height="122.88"
     fill="none" /><rect
     id="rect1542"
     width="122.88"
     height="122.88"
     fill-opacity="0" /><g
     id="g1546"><path
       id="path1544"
       d="m74.627 112.64h-43.907c-8.426 0-15.36-6.934-15.36-15.36v-61.44c0-8.426 6.934-15.36 15.36-15.36h5.12v-5.12c4e-3 -0.619 0.113-1.232 0.335-1.811 0.588-1.536 1.919-2.733 3.512-3.147 0.5-0.13 1.019-0.182 1.535-0.155 0.571 0.029 1.136 0.156 1.665 0.374 0.611 0.251 1.17 0.621 1.642 1.082 0.98 0.957 1.551 2.287 1.551 3.657v5.12h30.72v-5.12c0-2.809 2.311-5.12 5.12-5.12s5.12 2.311 5.12 5.12v5.12h5.12c8.426 0 15.36 6.934 15.36 15.36l0.08 40.96c-3e-3 1.269-0.478 2.492-1.331 3.43l-27.853 30.72c-0.968 1.072-2.345 1.687-3.789 1.69zm-7.987-10.24v-16.128c-0.171-7.799 6.077-14.37 13.875-14.592h16.765v-35.84c0-2.809-2.311-5.12-5.12-5.12h-5.12v5.12c0 2.809-2.311 5.12-5.12 5.12s-5.12-2.311-5.12-5.12v-5.12h-30.72v5.12c0 2.809-2.311 5.12-5.12 5.12s-5.12-2.311-5.12-5.12v-5.12h-5.12c-2.809 0-5.12 2.311-5.12 5.12v61.44c4e-3 0.577 0.098 1.149 0.291 1.694 0.522 1.468 1.72 2.652 3.194 3.155 0.527 0.18 1.079 0.267 1.635 0.271h35.92zm10.24-5.12 14.029-15.36h-10.24c-2.123 0.128-3.801 1.91-3.801 4.037 0 0.105 4e-3 0.21 0.012 0.315v11.008z"
       fill-rule="nonzero"
       style="fill:#2b73d2;fill-opacity:1" /></g></svg>
