<?xml version="1.0" encoding="UTF-8" standalone="no"?>
<svg
   xmlns:dc="http://purl.org/dc/elements/1.1/"
   xmlns:cc="http://creativecommons.org/ns#"
   xmlns:rdf="http://www.w3.org/1999/02/22-rdf-syntax-ns#"
   xmlns:svg="http://www.w3.org/2000/svg"
   xmlns="http://www.w3.org/2000/svg"
   xmlns:sodipodi="http://sodipodi.sourceforge.net/DTD/sodipodi-0.dtd"
   xmlns:inkscape="http://www.inkscape.org/namespaces/inkscape"
   id="svg526"
   clip-rule="evenodd"
   fill-rule="evenodd"
   stroke-linejoin="round"
   stroke-miterlimit="2"
   version="1.1"
   viewBox="0 0 123 123"
   xml:space="preserve"
   sodipodi:docname="distribution-list-outline.svg"
   inkscape:version="1.0.1 (c497b03c, 2020-09-10)"><defs
     id="defs6514" /><sodipodi:namedview
     pagecolor="#ffffff"
     bordercolor="#666666"
     borderopacity="1"
     objecttolerance="10"
     gridtolerance="10"
     guidetolerance="10"
     inkscape:pageopacity="0"
     inkscape:pageshadow="2"
     inkscape:window-width="860"
     inkscape:window-height="480"
     id="namedview6512"
     showgrid="false"
     inkscape:zoom="1.9186992"
     inkscape:cx="61.5"
     inkscape:cy="61.5"
     inkscape:window-x="0"
     inkscape:window-y="23"
     inkscape:window-maximized="0"
     inkscape:current-layer="svg526" /><metadata
     id="metadata532"><rdf:RDF><cc:Work
         rdf:about=""><dc:format>image/svg+xml</dc:format><dc:type
           rdf:resource="http://purl.org/dc/dcmitype/StillImage" /><dc:title /></cc:Work></rdf:RDF></metadata><rect
     id="distribution-list-outline"
     width="122.88"
     height="122.88"
     fill="none" /><g
     id="master"><rect
       id="ingombro"
       width="122.88"
       height="122.88"
       fill-opacity="0" /><path
       id="path866"
       d="m55.664 38.411c-2.826 0-5.12 2.294-5.12 5.12s2.294 5.12 5.12 5.12h30.751c2.826 0 5.12-2.294 5.12-5.12s-2.294-5.12-5.12-5.12h-30.751zm0 35.818c-2.826 0-5.12 2.294-5.12 5.12s2.294 5.12 5.12 5.12h30.751c2.826 0 5.12-2.294 5.12-5.12s-2.294-5.12-5.12-5.12h-30.751zm0-17.909c-2.826 0-5.12 2.294-5.12 5.12s2.294 5.12 5.12 5.12h30.751c2.826 0 5.12-2.294 5.12-5.12s-2.294-5.12-5.12-5.12h-30.751z"
       style="fill:#2b73d2;fill-opacity:1" /><g
       id="g65"><rect
         id="path61"
         width="122.88"
         height="122.88"
         fill-opacity="0" /><path
         id="path63"
         d="m97.28 15.36c8.426-0 15.36 6.934 15.36 15.36v61.44c-0 8.426-6.934 15.36-15.36 15.36h-61.44c-8.426-0-15.36-6.934-15.36-15.36v-5.12h-5.12c-2.809-0-5.12-2.311-5.12-5.12s2.311-5.12 5.12-5.12h5.12v-30.72h-5.12c-2.809-0-5.12-2.311-5.12-5.12s2.311-5.12 5.12-5.12h5.12v-5.12c-0-8.426 6.934-15.36 15.36-15.36h61.44zm-0 10.24h-61.44c-2.809 0-5.12 2.311-5.12 5.12v5.12h5.12c2.809 0 5.12 2.311 5.12 5.12s-2.311 5.12-5.12 5.12h-5.12v30.72h5.12c2.809 0 5.12 2.311 5.12 5.12s-2.311 5.12-5.12 5.12h-5.12v5.12c-0 2.809 2.311 5.12 5.12 5.12h61.44c2.809-0 5.12-2.311 5.12-5.12v-61.44c-0-2.809-2.311-5.12-5.12-5.12z"
         fill-rule="nonzero"
         style="fill:#2b73d2;fill-opacity:1" /></g></g></svg>
