<?xml version="1.0" encoding="UTF-8" standalone="no"?>
<svg
   xmlns:serif="http://www.serif.com/"
   xmlns:dc="http://purl.org/dc/elements/1.1/"
   xmlns:cc="http://creativecommons.org/ns#"
   xmlns:rdf="http://www.w3.org/1999/02/22-rdf-syntax-ns#"
   xmlns:svg="http://www.w3.org/2000/svg"
   xmlns="http://www.w3.org/2000/svg"
   xmlns:sodipodi="http://sodipodi.sourceforge.net/DTD/sodipodi-0.dtd"
   xmlns:inkscape="http://www.inkscape.org/namespaces/inkscape"
   id="svg62"
   clip-rule="evenodd"
   fill-rule="evenodd"
   stroke-linejoin="round"
   stroke-miterlimit="2"
   version="1.1"
   viewBox="0 0 123 123"
   xml:space="preserve"
   sodipodi:docname="edit-as-new-outline.svg"
   inkscape:version="1.0.1 (c497b03c, 2020-09-10)"><defs
     id="defs6690" /><sodipodi:namedview
     pagecolor="#ffffff"
     bordercolor="#666666"
     borderopacity="1"
     objecttolerance="10"
     gridtolerance="10"
     guidetolerance="10"
     inkscape:pageopacity="0"
     inkscape:pageshadow="2"
     inkscape:window-width="860"
     inkscape:window-height="480"
     id="namedview6688"
     showgrid="false"
     inkscape:zoom="1.9186992"
     inkscape:cx="61.5"
     inkscape:cy="61.5"
     inkscape:window-x="0"
     inkscape:window-y="23"
     inkscape:window-maximized="0"
     inkscape:current-layer="svg62" /><metadata
     id="metadata68"><rdf:RDF><cc:Work
         rdf:about=""><dc:format>image/svg+xml</dc:format><dc:type
           rdf:resource="http://purl.org/dc/dcmitype/StillImage" /><dc:title /></cc:Work></rdf:RDF></metadata><rect
     id="edit-as-new-outline"
     width="122.88"
     height="122.88"
     fill="none" /><g
     id="edit-as-new-outline1"
     serif:id="edit-as-new-outline"><g
       id="g53"><rect
         id="rect49"
         width="122.88"
         height="122.88"
         fill-opacity="0" /><path
         id="path51"
         d="m102.4 60.57c-2.809 0-5.12 2.311-5.12 5.12v28.518c0 1.685-1.387 3.072-3.072 3.072h-65.536c-1.685 0-3.072-1.387-3.072-3.072v-65.536c0-1.685 1.387-3.072 3.072-3.072h27.638c2.809 0 5.12-2.311 5.12-5.12s-2.311-5.12-5.12-5.12h-27.638c-7.292 0.028-13.284 6.02-13.312 13.312v65.536c0.028 7.292 6.02 13.284 13.312 13.312h65.536c7.292-0.028 13.284-6.02 13.312-13.312v-28.518c0-2.809-2.311-5.12-5.12-5.12z"
         fill-rule="nonzero"
         style="fill:#2b73d2;fill-opacity:1" /></g><g
       id="g59"><rect
         id="rect55"
         width="122.88"
         height="122.88"
         fill-opacity="0" /><path
         id="path57"
         d="m109.41 27.021-14.029-14.029c-3.772-3.543-9.666-3.698-13.619-0.358l-44.16 44.16c-1.655 1.668-2.685 3.857-2.918 6.195l-2.202 21.35c-0.14 1.518 0.405 3.021 1.485 4.096 0.966 0.958 2.275 1.493 3.635 1.485h0.461l21.35-1.946c2.338-0.233 4.527-1.263 6.195-2.918l44.16-44.16c3.699-3.908 3.538-10.164-0.358-13.875zm-50.918 50.713-15.36 1.434 1.382-15.36 27.008-26.65 13.824 13.824-26.854 26.752zm33.51-33.612-13.722-13.722 9.984-10.24 13.978 13.978-10.24 9.984z"
         fill-rule="nonzero"
         style="fill:#2b73d2;fill-opacity:1" /></g></g></svg>
