<?xml version="1.0" encoding="UTF-8" standalone="no"?><!DOCTYPE svg PUBLIC "-//W3C//DTD SVG 1.1//EN" "http://www.w3.org/Graphics/SVG/1.1/DTD/svg11.dtd"><svg width="100%" height="100%" viewBox="0 0 123 123" version="1.1" xmlns="http://www.w3.org/2000/svg" xmlns:xlink="http://www.w3.org/1999/xlink" xml:space="preserve" xmlns:serif="http://www.serif.com/" style="fill-rule:evenodd;clip-rule:evenodd;stroke-linejoin:round;stroke-miterlimit:2;" fill="#2b73d2"><rect id="email-read-outline" x="0" y="0" width="122.88" height="122.88" style="fill:none;"/><g id="email-read-outline1" serif:id="email-read-outline"><path d="M97.28,112.48l-71.68,0c-1.761,-0.003 -3.514,-0.306 -5.17,-0.906c-2.213,-0.802 -4.23,-2.119 -5.864,-3.812c-1.571,-1.627 -2.782,-3.596 -3.513,-5.738c-0.538,-1.576 -0.813,-3.239 -0.813,-4.904c0,-17.067 0,-34.133 0,-51.2c0,-1.327 0.174,-2.654 0.518,-3.936c0.38,-1.415 0.966,-2.773 1.73,-4.022c0.791,-1.291 1.771,-2.465 2.898,-3.475c1.033,-0.924 2.187,-1.706 3.426,-2.327l39.256,-20.747c1.1,-0.684 2.189,-1.093 3.372,-1.093c1.105,0 2.001,0.356 3.072,0.96l39.556,20.88c5.061,2.524 8.572,7.764 8.572,13.76l0,51.2c0,8.426 -6.934,15.36 -15.36,15.36Zm0,-10.24c2.809,0 5.12,-2.311 5.12,-5.12l0,-49.92l-37.888,28.416c-0.886,0.665 -1.964,1.024 -3.072,1.024c-1.108,0 -2.186,-0.359 -3.072,-1.024l-37.888,-28.416l0,49.92c0,2.809 2.311,5.12 5.12,5.12l71.68,0Zm-1.27,-62.64l-34.57,25.52l-34.81,-25.52l34.81,-18.72l34.57,18.72Z"/></g></svg>