<?xml version="1.0" encoding="UTF-8" standalone="no"?>
<svg
   xmlns:dc="http://purl.org/dc/elements/1.1/"
   xmlns:cc="http://creativecommons.org/ns#"
   xmlns:rdf="http://www.w3.org/1999/02/22-rdf-syntax-ns#"
   xmlns:svg="http://www.w3.org/2000/svg"
   xmlns="http://www.w3.org/2000/svg"
   xmlns:sodipodi="http://sodipodi.sourceforge.net/DTD/sodipodi-0.dtd"
   xmlns:inkscape="http://www.inkscape.org/namespaces/inkscape"
   viewBox="0 0 24 24"
   version="1.1"
   id="svg6815"
   sodipodi:docname="expand-outline.svg"
   inkscape:version="1.0.1 (c497b03c, 2020-09-10)">
  <metadata
     id="metadata6821">
    <rdf:RDF>
      <cc:Work
         rdf:about="">
        <dc:format>image/svg+xml</dc:format>
        <dc:type
           rdf:resource="http://purl.org/dc/dcmitype/StillImage" />
      </cc:Work>
    </rdf:RDF>
  </metadata>
  <defs
     id="defs6819" />
  <sodipodi:namedview
     pagecolor="#ffffff"
     bordercolor="#666666"
     borderopacity="1"
     objecttolerance="10"
     gridtolerance="10"
     guidetolerance="10"
     inkscape:pageopacity="0"
     inkscape:pageshadow="2"
     inkscape:window-width="860"
     inkscape:window-height="480"
     id="namedview6817"
     showgrid="false"
     inkscape:zoom="9.8333333"
     inkscape:cx="12"
     inkscape:cy="12"
     inkscape:window-x="0"
     inkscape:window-y="23"
     inkscape:window-maximized="0"
     inkscape:current-layer="svg6815" />
  <g
     data-name="Layer 2"
     id="g6813">
    <g
       data-name="expand"
       id="g6811">
      <rect
         width="24"
         height="24"
         transform="rotate(180 12 12)"
         opacity="0"
         id="rect6805" />
      <path
         d="M20 5a1 1 0 0 0-1-1h-5a1 1 0 0 0 0 2h2.57l-3.28 3.29a1 1 0 0 0 0 1.42 1 1 0 0 0 1.42 0L18 7.42V10a1 1 0 0 0 1 1 1 1 0 0 0 1-1z"
         id="path6807"
         style="fill:#2b73d2;fill-opacity:1" />
      <path
         d="M10.71 13.29a1 1 0 0 0-1.42 0L6 16.57V14a1 1 0 0 0-1-1 1 1 0 0 0-1 1v5a1 1 0 0 0 1 1h5a1 1 0 0 0 0-2H7.42l3.29-3.29a1 1 0 0 0 0-1.42z"
         id="path6809"
         style="fill:#2b73d2;fill-opacity:1" />
    </g>
  </g>
</svg>
