<?xml version="1.0" encoding="UTF-8" standalone="no"?>
<svg
   xmlns:dc="http://purl.org/dc/elements/1.1/"
   xmlns:cc="http://creativecommons.org/ns#"
   xmlns:rdf="http://www.w3.org/1999/02/22-rdf-syntax-ns#"
   xmlns:svg="http://www.w3.org/2000/svg"
   xmlns="http://www.w3.org/2000/svg"
   xmlns:sodipodi="http://sodipodi.sourceforge.net/DTD/sodipodi-0.dtd"
   xmlns:inkscape="http://www.inkscape.org/namespaces/inkscape"
   id="svg134"
   clip-rule="evenodd"
   fill-rule="evenodd"
   stroke-linejoin="round"
   stroke-miterlimit="2"
   version="1.1"
   viewBox="0 0 123 123"
   xml:space="preserve"
   sodipodi:docname="file-audio-outline.svg"
   inkscape:version="1.0.1 (c497b03c, 2020-09-10)"><defs
     id="defs7018" /><sodipodi:namedview
     pagecolor="#ffffff"
     bordercolor="#666666"
     borderopacity="1"
     objecttolerance="10"
     gridtolerance="10"
     guidetolerance="10"
     inkscape:pageopacity="0"
     inkscape:pageshadow="2"
     inkscape:window-width="860"
     inkscape:window-height="480"
     id="namedview7016"
     showgrid="false"
     inkscape:zoom="1.9186992"
     inkscape:cx="61.5"
     inkscape:cy="61.5"
     inkscape:window-x="0"
     inkscape:window-y="23"
     inkscape:window-maximized="0"
     inkscape:current-layer="svg134" /><metadata
     id="metadata140"><rdf:RDF><cc:Work
         rdf:about=""><dc:format>image/svg+xml</dc:format><dc:type
           rdf:resource="http://purl.org/dc/dcmitype/StillImage" /><dc:title /></cc:Work></rdf:RDF></metadata><rect
     id="file-audio-outline"
     width="122.88"
     height="122.88"
     fill="none" /><g
     id="g128"><rect
       id="rect124"
       width="122.88"
       height="122.88"
       fill-opacity="0" /><path
       id="path126"
       d="m101.07 42.65-27.853-30.72c-0.968-1.072-2.345-1.687-3.789-1.69h-35.84c-0.051-1e-3 -0.103-1e-3 -0.154-1e-3 -7.049 0-12.87 5.753-12.953 12.801v76.8c0.083 7.048 5.904 12.801 12.953 12.801 0.051-0 0.103-0 0.154-1e-3h55.706c0.051 1e-3 0.103 1e-3 0.154 1e-3 7.049-0 12.87-5.753 12.953-12.801v-53.76c-3e-3 -1.269-0.478-2.492-1.331-3.43zm-29.389-17.05 14.029 15.36h-10.24c-2.123-0.128-3.801-1.91-3.801-4.037-0-0.105 4e-3 -0.21 0.012-0.315v-11.008zm17.613 76.8h-55.706c-0.052 3e-3 -0.105 5e-3 -0.157 5e-3 -1.433-0-2.631-1.135-2.71-2.565v-76.8c0.079-1.43 1.277-2.565 2.71-2.565 0.052 0 0.105 2e-3 0.157 5e-3h27.853v16.128c-0.171 7.799 6.077 14.37 13.875 14.592h16.845v48.64c-0.079 1.43-1.277 2.565-2.71 2.565-0.052-0-0.105-2e-3 -0.157-5e-3z"
       fill-rule="nonzero"
       style="fill:#2b73d2;fill-opacity:1" /></g><g
     id="g132"><path
       id="path130"
       d="m81.426 82.37v-22.506c-3e-3 -0.761-0.354-1.481-0.951-1.953-0.588-0.477-1.362-0.661-2.102-0.501l-22.523 5.009c-1.141 0.258-1.957 1.283-1.952 2.454v15.844c-1.165-0.551-2.439-0.837-3.728-0.837-4.791 0-8.734 3.946-8.734 8.741s3.943 8.741 8.734 8.741c4.768-0 8.701-3.909 8.733-8.681 0.026-0.434 0.026-0.869 0-1.302v-20.502l17.518-3.882v12.713c-1.166-0.551-2.439-0.837-3.729-0.837-4.791 0-8.733 3.946-8.733 8.741s3.942 8.741 8.733 8.741c4.778-0 8.715-3.924 8.734-8.706 0.024-0.425 0.024-0.852 0-1.277z"
       fill-rule="nonzero"
       style="fill:#2b73d2;fill-opacity:1" /></g></svg>
