<?xml version="1.0" encoding="UTF-8" standalone="no"?>
<svg
   xmlns:dc="http://purl.org/dc/elements/1.1/"
   xmlns:cc="http://creativecommons.org/ns#"
   xmlns:rdf="http://www.w3.org/1999/02/22-rdf-syntax-ns#"
   xmlns:svg="http://www.w3.org/2000/svg"
   xmlns="http://www.w3.org/2000/svg"
   xmlns:sodipodi="http://sodipodi.sourceforge.net/DTD/sodipodi-0.dtd"
   xmlns:inkscape="http://www.inkscape.org/namespaces/inkscape"
   width="100%"
   height="100%"
   viewBox="0 0 123 123"
   version="1.1"
   xml:space="preserve"
   style="fill-rule:evenodd;clip-rule:evenodd;stroke-linejoin:round;stroke-miterlimit:2;"
   id="svg840"
   sodipodi:docname="file-check-outline.svg"
   inkscape:version="1.0.1 (c497b03c, 2020-09-10)"><metadata
     id="metadata846"><rdf:RDF><cc:Work
         rdf:about=""><dc:format>image/svg+xml</dc:format><dc:type
           rdf:resource="http://purl.org/dc/dcmitype/StillImage" /><dc:title></dc:title></cc:Work></rdf:RDF></metadata><defs
     id="defs844" /><sodipodi:namedview
     pagecolor="#ffffff"
     bordercolor="#666666"
     borderopacity="1"
     objecttolerance="10"
     gridtolerance="10"
     guidetolerance="10"
     inkscape:pageopacity="0"
     inkscape:pageshadow="2"
     inkscape:window-width="1523"
     inkscape:window-height="1129"
     id="namedview842"
     showgrid="false"
     inkscape:zoom="6.2926829"
     inkscape:cx="61.658915"
     inkscape:cy="60.864341"
     inkscape:window-x="0"
     inkscape:window-y="23"
     inkscape:window-maximized="0"
     inkscape:current-layer="svg840" /><rect
     id="file-check-outline"
     x="0"
     y="-0"
     width="122.88"
     height="122.88"
     style="fill:none;" /><g
     id="g838"><rect
       x="0"
       y="0"
       width="122.88"
       height="122.88"
       style="fill-opacity:0;"
       id="rect834" /><path
       d="M101.069,42.65l-27.853,-30.72c-0.968,-1.072 -2.345,-1.687 -3.789,-1.69l-35.84,-0c-0.051,-0.001 -0.103,-0.001 -0.154,-0.001c-7.049,0 -12.87,5.753 -12.953,12.801l0,76.8c0.083,7.048 5.904,12.801 12.953,12.801c0.051,-0 0.103,-0 0.154,-0.001l55.706,-0c0.051,0.001 0.103,0.001 0.154,0.001c7.049,-0 12.87,-5.753 12.953,-12.801l-0,-53.76c-0.003,-1.269 -0.478,-2.492 -1.331,-3.43Zm-11.776,59.75l-55.706,-0c-0.052,0.003 -0.105,0.005 -0.157,0.005c-1.433,-0 -2.631,-1.135 -2.71,-2.565l-0,-76.8c0.079,-1.43 1.277,-2.565 2.71,-2.565c0.052,0 0.105,0.002 0.157,0.005l22.733,0l-0,21.248c-0.171,7.799 6.077,14.37 13.875,14.592l21.965,-0l-0,43.52c-0.079,1.43 -1.277,2.565 -2.71,2.565c-0.052,-0 -0.105,-0.002 -0.157,-0.005Zm-14.205,-34.526c-2.108,-1.851 -5.364,-1.644 -7.219,0.46l-9.575,11.008l-3.225,-3.635c-0.974,-1.098 -2.373,-1.727 -3.84,-1.727c-2.816,0 -5.132,2.317 -5.132,5.132c-0,1.254 0.459,2.466 1.292,3.405l7.116,7.987c0.98,1.085 2.379,1.701 3.84,1.69c1.452,-0.017 2.831,-0.65 3.789,-1.741l13.363,-15.36c1.864,-2.094 1.68,-5.35 -0.409,-7.219Zm15.28,-21.794l-20.173,-0c-2.182,-0.215 -3.812,-2.167 -3.635,-4.352l-0,-21.248l0.563,0l23.245,25.6Z"
       style="fill-rule:nonzero;fill:#2b73d2;fill-opacity:1"
       id="path836" /></g></svg>
