<?xml version="1.0" encoding="UTF-8" standalone="no"?>
<svg
   xmlns:dc="http://purl.org/dc/elements/1.1/"
   xmlns:cc="http://creativecommons.org/ns#"
   xmlns:rdf="http://www.w3.org/1999/02/22-rdf-syntax-ns#"
   xmlns:svg="http://www.w3.org/2000/svg"
   xmlns="http://www.w3.org/2000/svg"
   xmlns:sodipodi="http://sodipodi.sourceforge.net/DTD/sodipodi-0.dtd"
   xmlns:inkscape="http://www.inkscape.org/namespaces/inkscape"
   id="svg539"
   clip-rule="evenodd"
   fill-rule="evenodd"
   stroke-linejoin="round"
   stroke-miterlimit="2"
   version="1.1"
   viewBox="0 0 123 123"
   xml:space="preserve"
   sodipodi:docname="file-app-outline.svg"
   inkscape:version="1.0.1 (c497b03c, 2020-09-10)"><defs
     id="defs6998" /><sodipodi:namedview
     pagecolor="#ffffff"
     bordercolor="#666666"
     borderopacity="1"
     objecttolerance="10"
     gridtolerance="10"
     guidetolerance="10"
     inkscape:pageopacity="0"
     inkscape:pageshadow="2"
     inkscape:window-width="860"
     inkscape:window-height="480"
     id="namedview6996"
     showgrid="false"
     inkscape:zoom="1.9186992"
     inkscape:cx="61.5"
     inkscape:cy="61.5"
     inkscape:window-x="0"
     inkscape:window-y="23"
     inkscape:window-maximized="0"
     inkscape:current-layer="svg539" /><metadata
     id="metadata545"><rdf:RDF><cc:Work
         rdf:about=""><dc:format>image/svg+xml</dc:format><dc:type
           rdf:resource="http://purl.org/dc/dcmitype/StillImage" /><dc:title /></cc:Work></rdf:RDF></metadata><rect
     id="file-app-outline"
     width="122.88"
     height="122.88"
     fill="none" /><g
     id="g529"><rect
       id="rect527"
       width="122.88"
       height="122.88"
       fill-opacity="0" /></g><g
     id="g535"><rect
       id="rect531"
       width="122.88"
       height="122.88"
       fill-opacity="0" /><path
       id="path533"
       d="m101.07 42.65-27.853-30.72c-0.968-1.072-2.345-1.687-3.789-1.69h-35.84c-0.051-1e-3 -0.103-1e-3 -0.154-1e-3 -7.049 0-12.87 5.753-12.953 12.801v76.8c0.083 7.048 5.904 12.801 12.953 12.801 0.051 0 0.103 0 0.154-1e-3h55.706c0.051 1e-3 0.103 1e-3 0.154 1e-3 7.049 0 12.87-5.753 12.953-12.801v-53.76c-3e-3 -1.269-0.478-2.492-1.331-3.43zm-29.389-17.05 14.029 15.36h-10.24c-2.123-0.128-3.801-1.91-3.801-4.037 0-0.105 4e-3 -0.21 0.012-0.315v-11.008zm17.613 76.8h-55.706c-0.052 3e-3 -0.105 5e-3 -0.157 5e-3 -1.433 0-2.631-1.135-2.71-2.565v-76.8c0.079-1.43 1.277-2.565 2.71-2.565 0.052 0 0.105 2e-3 0.157 5e-3h27.853v16.128c-0.171 7.799 6.077 14.37 13.875 14.592h16.845v48.64c-0.079 1.43-1.277 2.565-2.71 2.565-0.052 0-0.105-2e-3 -0.157-5e-3z"
       fill-rule="nonzero"
       style="fill:#2b73d2;fill-opacity:1" /></g><path
     id="path537"
     d="m54.66 96.8c-0.976-6e-3 -1.924-0.329-2.7-0.92l-4.14-3.08c-1.972-1.538-2.406-4.385-0.98-6.44 0.741-1.094 0.912-2.479 0.46-3.72l-0.12-0.32c-0.315-1.123-1.148-2.031-2.24-2.44h-0.32c-2.416-0.812-3.746-3.456-2.96-5.88l1.64-5.2c0.305-1.218 1.122-2.247 2.24-2.82 1.04-0.536 2.255-0.622 3.36-0.24 1.208 0.407 2.543 0.189 3.56-0.58l0.26-0.2c0.919-0.733 1.456-1.845 1.46-3.02v-0.48c-0.011-2.53 2.05-4.627 4.58-4.66h5.1c1.202 3e-3 2.354 0.486 3.2 1.34 0.88 0.895 1.37 2.105 1.36 3.36v0.56c-0.021 1.118 0.492 2.181 1.38 2.86l0.22 0.16c0.91 0.683 2.1 0.877 3.18 0.52l0.68-0.22c0.459-0.152 0.939-0.23 1.422-0.23 2.001 0 3.776 1.329 4.338 3.25l1.58 5.04c0.755 2.406-0.544 5.014-2.92 5.86l-0.4 0.14c-1.194 0.391-2.117 1.352-2.46 2.56-0.322 1.12-0.139 2.326 0.5 3.3l0.52 0.76c1.423 2.066 0.982 4.921-1 6.46l-4.02 3.1c-0.781 0.597-1.738 0.921-2.721 0.921-1.491 0-2.888-0.744-3.719-1.981l-0.24-0.34c-0.665-1-1.8-1.59-3-1.56-1.143 0.03-2.206 0.602-2.86 1.54l-0.46 0.66c-0.689 1.032-1.776 1.735-3 1.94-0.259 0.025-0.521 0.025-0.78 0zm6.78-27c3.863 0 7 3.137 7 7s-3.137 7-7 7-7-3.137-7-7 3.137-7 7-7z"
     style="fill:#2b73d2;fill-opacity:1" /></svg>
