<?xml version="1.0" encoding="UTF-8" standalone="no"?>
<svg
   xmlns:dc="http://purl.org/dc/elements/1.1/"
   xmlns:cc="http://creativecommons.org/ns#"
   xmlns:rdf="http://www.w3.org/1999/02/22-rdf-syntax-ns#"
   xmlns:svg="http://www.w3.org/2000/svg"
   xmlns="http://www.w3.org/2000/svg"
   xmlns:sodipodi="http://sodipodi.sourceforge.net/DTD/sodipodi-0.dtd"
   xmlns:inkscape="http://www.inkscape.org/namespaces/inkscape"
   id="svg387"
   clip-rule="evenodd"
   fill-rule="evenodd"
   stroke-linejoin="round"
   stroke-miterlimit="2"
   version="1.1"
   viewBox="0 0 123 123"
   xml:space="preserve"
   sodipodi:docname="file-presentation-outline.svg"
   inkscape:version="1.0.1 (c497b03c, 2020-09-10)"><defs
     id="defs7166" /><sodipodi:namedview
     pagecolor="#ffffff"
     bordercolor="#666666"
     borderopacity="1"
     objecttolerance="10"
     gridtolerance="10"
     guidetolerance="10"
     inkscape:pageopacity="0"
     inkscape:pageshadow="2"
     inkscape:window-width="860"
     inkscape:window-height="480"
     id="namedview7164"
     showgrid="false"
     inkscape:zoom="1.9186992"
     inkscape:cx="61.5"
     inkscape:cy="61.5"
     inkscape:window-x="0"
     inkscape:window-y="23"
     inkscape:window-maximized="0"
     inkscape:current-layer="svg387" /><metadata
     id="metadata393"><rdf:RDF><cc:Work
         rdf:about=""><dc:format>image/svg+xml</dc:format><dc:type
           rdf:resource="http://purl.org/dc/dcmitype/StillImage" /><dc:title /></cc:Work></rdf:RDF></metadata><rect
     id="file-presentation-outline"
     width="122.88"
     height="122.88"
     fill="none" /><g
     id="master"><rect
       id="rect376"
       width="122.88"
       height="122.88"
       fill-opacity="0" /><g
       id="g382"><rect
         id="rect378"
         width="122.88"
         height="122.88"
         fill-opacity="0" /><path
         id="path380"
         d="m101.07 42.65-27.853-30.72c-0.968-1.072-2.345-1.687-3.789-1.69h-35.84c-0.051-1e-3 -0.103-1e-3 -0.154-1e-3 -7.049 0-12.87 5.753-12.953 12.801v76.8c0.083 7.048 5.904 12.801 12.953 12.801 0.051-0 0.103-0 0.154-1e-3h55.706c0.051 1e-3 0.103 1e-3 0.154 1e-3 7.049-0 12.87-5.753 12.953-12.801v-53.76c-3e-3 -1.269-0.478-2.492-1.331-3.43zm-29.389-17.05 14.029 15.36h-10.24c-2.123-0.128-3.801-1.91-3.801-4.037-0-0.105 4e-3 -0.21 0.012-0.315v-11.008zm17.613 76.8h-55.706c-0.052 3e-3 -0.105 5e-3 -0.157 5e-3 -1.433-0-2.631-1.135-2.71-2.565v-76.8c0.079-1.43 1.277-2.565 2.71-2.565 0.052 0 0.105 2e-3 0.157 5e-3h27.853v16.128c-0.171 7.799 6.077 14.37 13.875 14.592h16.845v48.64c-0.079 1.43-1.277 2.565-2.71 2.565-0.052-0-0.105-2e-3 -0.157-5e-3z"
         fill-rule="nonzero"
         style="fill:#2b73d2;fill-opacity:1" /></g><path
       id="path384"
       d="m74.008 56.8c4.213 0 7.68 3.467 7.68 7.68v15.36c0 4.213-3.467 7.68-7.68 7.68h-4.511l2.978 5.159c0.696 1.205 0.283 2.747-0.922 3.443-1.204 0.695-2.747 0.282-3.442-0.923l-4.434-7.679h-4.307l-4.434 7.679c-0.695 1.205-2.238 1.618-3.442 0.923-1.205-0.696-1.618-2.238-0.922-3.443l2.978-5.159h-4.511c-4.213 0-7.68-3.467-7.68-7.68v-15.36c-0-4.213 3.467-7.68 7.68-7.68h24.969zm2.56 23.04c0 1.405-1.155 2.56-2.56 2.56h-24.969c-1.405 0-2.56-1.155-2.56-2.56v-15.36c-0-1.404 1.155-2.56 2.56-2.56h24.969c1.405 0 2.56 1.156 2.56 2.56v15.36z"
       style="fill:#2b73d2;fill-opacity:1" /></g></svg>
