<?xml version="1.0" encoding="UTF-8" standalone="no"?>
<svg
   xmlns:dc="http://purl.org/dc/elements/1.1/"
   xmlns:cc="http://creativecommons.org/ns#"
   xmlns:rdf="http://www.w3.org/1999/02/22-rdf-syntax-ns#"
   xmlns:svg="http://www.w3.org/2000/svg"
   xmlns="http://www.w3.org/2000/svg"
   xmlns:sodipodi="http://sodipodi.sourceforge.net/DTD/sodipodi-0.dtd"
   xmlns:inkscape="http://www.inkscape.org/namespaces/inkscape"
   id="svg349"
   clip-rule="evenodd"
   fill-rule="evenodd"
   stroke-linejoin="round"
   stroke-miterlimit="2"
   version="1.1"
   viewBox="0 0 123 123"
   xml:space="preserve"
   sodipodi:docname="file-pdf-outline.svg"
   inkscape:version="1.0.1 (c497b03c, 2020-09-10)"><defs
     id="defs7145" /><sodipodi:namedview
     pagecolor="#ffffff"
     bordercolor="#666666"
     borderopacity="1"
     objecttolerance="10"
     gridtolerance="10"
     guidetolerance="10"
     inkscape:pageopacity="0"
     inkscape:pageshadow="2"
     inkscape:window-width="860"
     inkscape:window-height="480"
     id="namedview7143"
     showgrid="false"
     inkscape:zoom="1.9186992"
     inkscape:cx="61.5"
     inkscape:cy="61.5"
     inkscape:window-x="0"
     inkscape:window-y="23"
     inkscape:window-maximized="0"
     inkscape:current-layer="svg349" /><metadata
     id="metadata355"><rdf:RDF><cc:Work
         rdf:about=""><dc:format>image/svg+xml</dc:format><dc:type
           rdf:resource="http://purl.org/dc/dcmitype/StillImage" /><dc:title /></cc:Work></rdf:RDF></metadata><rect
     id="file-pdf-outline"
     width="122.88"
     height="122.88"
     fill="none" /><g
     id="master"><rect
       id="ingombro"
       width="122.88"
       height="122.88"
       fill-opacity="0" /><g
       id="g344"><rect
         id="rect340"
         width="122.88"
         height="122.88"
         fill-opacity="0" /><path
         id="path342"
         d="m101.07 42.65-27.853-30.72c-0.968-1.072-2.345-1.687-3.789-1.69h-35.84c-0.051-1e-3 -0.103-1e-3 -0.154-1e-3 -7.049 0-12.87 5.753-12.953 12.801v76.8c0.083 7.048 5.904 12.801 12.953 12.801 0.051-0 0.103-0 0.154-1e-3h55.706c0.051 1e-3 0.103 1e-3 0.154 1e-3 7.049-0 12.87-5.753 12.953-12.801v-53.76c-3e-3 -1.269-0.478-2.492-1.331-3.43zm-29.389-17.05 14.029 15.36h-10.24c-2.123-0.128-3.801-1.91-3.801-4.037-0-0.105 4e-3 -0.21 0.012-0.315v-11.008zm17.613 76.8h-55.706c-0.052 3e-3 -0.105 5e-3 -0.157 5e-3 -1.433-0-2.631-1.135-2.71-2.565v-76.8c0.079-1.43 1.277-2.565 2.71-2.565 0.052 0 0.105 2e-3 0.157 5e-3h27.853v16.128c-0.171 7.799 6.077 14.37 13.875 14.592h16.845v48.64c-0.079 1.43-1.277 2.565-2.71 2.565-0.052-0-0.105-2e-3 -0.157-5e-3z"
         fill-rule="nonzero"
         style="fill:#2b73d2;fill-opacity:1" /></g><path
       id="path346"
       d="m56.551 71.77c-1.453-2.636-2.334-5.244-2.334-7.468-0-3.104 0.752-5.257 2.055-6.351 0.824-0.692 1.898-1.151 3.369-1.151 1.593-0 2.661 0.535 3.442 1.284 0.709 0.68 1.223 1.626 1.454 2.9 0.159 0.873 0.182 1.996 0.182 3.318-0 0.775-0.617 3.315-1.652 6.637 0.14 0.208 0.282 0.416 0.426 0.624 1.565 2.253 3.399 4.426 5.013 6.206 2.093-0.2 4.078-0.244 5.762-0.047 4.693 0.548 7.42 2.884 7.42 6.667 0 1.941-0.742 3.202-1.719 4.037-1.223 1.045-3.138 1.476-5.315 1.02-2.398-0.502-5.184-2.067-6.745-3.629-0.396-0.395-0.993-0.995-1.72-1.751-3.202 0.487-6.465 1.266-9.007 1.973-0.585 1.194-1.187 2.332-1.799 3.379-1.406 2.406-2.882 4.348-4.28 5.54-1.445 1.231-2.923 1.781-4.276 1.781-2.731 0-4.13-1.109-4.821-2.207-0.772-1.225-0.938-2.944-0.031-4.866 1.367-2.898 5.813-6.827 9.384-8.103 0.412-0.147 0.937-0.321 1.553-0.512 1.39-3.08 2.647-6.378 3.639-9.281zm3.971 6.504-0.334 0.864 0.522-0.114 0.812-0.171-0.106-0.127-0.402-0.495-0.323-0.404-0.169 0.447z"
       style="fill:#2b73d2;fill-opacity:1" /></g></svg>
