<?xml version="1.0" encoding="UTF-8" standalone="no"?>
<svg
   xmlns:dc="http://purl.org/dc/elements/1.1/"
   xmlns:cc="http://creativecommons.org/ns#"
   xmlns:rdf="http://www.w3.org/1999/02/22-rdf-syntax-ns#"
   xmlns:svg="http://www.w3.org/2000/svg"
   xmlns="http://www.w3.org/2000/svg"
   xmlns:sodipodi="http://sodipodi.sourceforge.net/DTD/sodipodi-0.dtd"
   xmlns:inkscape="http://www.inkscape.org/namespaces/inkscape"
   id="svg599"
   clip-rule="evenodd"
   fill-rule="evenodd"
   stroke-linejoin="round"
   stroke-miterlimit="2"
   version="1.1"
   viewBox="0 0 123 123"
   xml:space="preserve"
   sodipodi:docname="file-unknown-outline.svg"
   inkscape:version="1.0.1 (c497b03c, 2020-09-10)"><defs
     id="defs7271" /><sodipodi:namedview
     pagecolor="#ffffff"
     bordercolor="#666666"
     borderopacity="1"
     objecttolerance="10"
     gridtolerance="10"
     guidetolerance="10"
     inkscape:pageopacity="0"
     inkscape:pageshadow="2"
     inkscape:window-width="860"
     inkscape:window-height="480"
     id="namedview7269"
     showgrid="false"
     inkscape:zoom="1.9186992"
     inkscape:cx="61.5"
     inkscape:cy="61.5"
     inkscape:window-x="0"
     inkscape:window-y="23"
     inkscape:window-maximized="0"
     inkscape:current-layer="svg599" /><metadata
     id="metadata605"><rdf:RDF><cc:Work
         rdf:about=""><dc:format>image/svg+xml</dc:format><dc:type
           rdf:resource="http://purl.org/dc/dcmitype/StillImage" /><dc:title /></cc:Work></rdf:RDF></metadata><rect
     id="file-unknown-outline"
     width="122.88"
     height="122.88"
     fill="none" /><clipPath
     id="_clip1"><rect
       id="rect579"
       width="122.88"
       height="122.88" /></clipPath><g
     id="g597"
     clip-path="url(#_clip1)"><g
       id="master"><rect
         id="rect582"
         width="122.88"
         height="122.88"
         fill-opacity="0" /></g><g
       id="g589"><rect
         id="rect585"
         width="122.88"
         height="122.88"
         fill-opacity="0" /><path
         id="path587"
         d="m101.07 42.65-27.853-30.72c-0.968-1.072-2.345-1.687-3.789-1.69h-35.84c-0.051-1e-3 -0.103-1e-3 -0.154-1e-3 -7.049 0-12.87 5.753-12.953 12.801v76.8c0.083 7.048 5.904 12.801 12.953 12.801 0.051 0 0.103 0 0.154-1e-3h55.706c0.051 1e-3 0.103 1e-3 0.154 1e-3 7.049 0 12.87-5.753 12.953-12.801v-53.76c-3e-3 -1.269-0.478-2.492-1.331-3.43zm-29.389-17.05 14.029 15.36h-10.24c-2.123-0.128-3.801-1.91-3.801-4.037 0-0.105 4e-3 -0.21 0.012-0.315v-11.008zm17.613 76.8h-55.706c-0.052 3e-3 -0.105 5e-3 -0.157 5e-3 -1.433 0-2.631-1.135-2.71-2.565v-76.8c0.079-1.43 1.277-2.565 2.71-2.565 0.052 0 0.105 2e-3 0.157 5e-3h27.853v16.128c-0.171 7.799 6.077 14.37 13.875 14.592h16.845v48.64c-0.079 1.43-1.277 2.565-2.71 2.565-0.052 0-0.105-2e-3 -0.157-5e-3z"
         fill-rule="nonzero"
         style="fill:#2b73d2;fill-opacity:1" /></g><g
       id="g595"><path
         id="path591"
         d="m73.942 67.623c0-6.859-5.643-12.503-12.502-12.503s-12.503 5.644-12.503 12.503c0 1.371 1.129 2.5 2.501 2.5s2.5-1.129 2.5-2.5c0-4.116 3.387-7.502 7.502-7.502s7.501 3.386 7.501 7.502c0 4.115-3.386 7.501-7.501 7.501-1.372 0-2.501 1.129-2.501 2.501v5.001c0 1.371 1.129 2.5 2.501 2.5s2.5-1.129 2.5-2.5v-2.751c5.801-1.184 10.004-6.333 10.002-12.252z"
         fill-rule="nonzero"
         style="fill:#2b73d2;fill-opacity:1" /><circle
         id="circle593"
         cx="61.44"
         cy="92.628"
         r="2.501"
         style="fill:#2b73d2;fill-opacity:1" /></g></g></svg>
