<?xml version="1.0" encoding="UTF-8" standalone="no"?>
<svg
   xmlns:dc="http://purl.org/dc/elements/1.1/"
   xmlns:cc="http://creativecommons.org/ns#"
   xmlns:rdf="http://www.w3.org/1999/02/22-rdf-syntax-ns#"
   xmlns:svg="http://www.w3.org/2000/svg"
   xmlns="http://www.w3.org/2000/svg"
   xmlns:sodipodi="http://sodipodi.sourceforge.net/DTD/sodipodi-0.dtd"
   xmlns:inkscape="http://www.inkscape.org/namespaces/inkscape"
   id="svg236"
   clip-rule="evenodd"
   fill-rule="evenodd"
   stroke-linejoin="round"
   stroke-miterlimit="2"
   version="1.1"
   viewBox="0 0 123 123"
   xml:space="preserve"
   sodipodi:docname="file-html-outline.svg"
   inkscape:version="1.0.1 (c497b03c, 2020-09-10)"><defs
     id="defs7059" /><sodipodi:namedview
     pagecolor="#ffffff"
     bordercolor="#666666"
     borderopacity="1"
     objecttolerance="10"
     gridtolerance="10"
     guidetolerance="10"
     inkscape:pageopacity="0"
     inkscape:pageshadow="2"
     inkscape:window-width="860"
     inkscape:window-height="480"
     id="namedview7057"
     showgrid="false"
     inkscape:zoom="1.9186992"
     inkscape:cx="61.5"
     inkscape:cy="61.5"
     inkscape:window-x="0"
     inkscape:window-y="23"
     inkscape:window-maximized="0"
     inkscape:current-layer="svg236" /><metadata
     id="metadata242"><rdf:RDF><cc:Work
         rdf:about=""><dc:format>image/svg+xml</dc:format><dc:type
           rdf:resource="http://purl.org/dc/dcmitype/StillImage" /><dc:title /></cc:Work></rdf:RDF></metadata><rect
     id="file-html-outline"
     width="122.88"
     height="122.88"
     fill="none" /><g
     id="g234"><rect
       id="rect226"
       width="122.88"
       height="122.88"
       fill-opacity="0" /><g
       fill-rule="nonzero"
       id="g7053"><path
         id="path228"
         d="m101.07 42.65-27.853-30.72c-0.968-1.072-2.345-1.687-3.789-1.69h-35.84c-0.051-1e-3 -0.103-1e-3 -0.154-1e-3 -7.049 0-12.87 5.753-12.953 12.801v76.8c0.083 7.048 5.904 12.801 12.953 12.801 0.051-0 0.103-0 0.154-1e-3h55.706c0.051 1e-3 0.103 1e-3 0.154 1e-3 7.049-0 12.87-5.753 12.953-12.801v-53.76c-3e-3 -1.269-0.478-2.492-1.331-3.43zm-29.389-17.05 14.029 15.36h-10.24c-2.123-0.128-3.801-1.91-3.801-4.037-0-0.105 4e-3 -0.21 0.012-0.315v-11.008zm17.613 76.8h-55.706c-0.052 3e-3 -0.105 5e-3 -0.157 5e-3 -1.433-0-2.631-1.135-2.71-2.565v-76.8c0.079-1.43 1.277-2.565 2.71-2.565 0.052 0 0.105 2e-3 0.157 5e-3h27.853v16.128c-0.171 7.799 6.077 14.37 13.875 14.592h16.845v48.64c-0.079 1.43-1.277 2.565-2.71 2.565-0.052-0-0.105-2e-3 -0.157-5e-3z"
         style="fill:#2b73d2;fill-opacity:1" /><path
         id="path230"
         d="m47.272 76.81 11.469-13.722c0.383-0.46 0.592-1.04 0.592-1.638 0-1.407-1.157-2.564-2.563-2.564-0.761 0-1.484 0.34-1.971 0.925l-12.8 15.36c-0.774 0.941-0.774 2.31-0 3.251l12.365 15.36c0.487 0.602 1.222 0.95 1.996 0.948h9e-3c1.405-0 2.56-1.156 2.56-2.56 0-0.588-0.202-1.157-0.572-1.613l-11.085-13.747z"
         style="fill:#2b73d2;fill-opacity:1" /><path
         id="path232"
         d="m81.007 75.197-12.237-15.36c-0.487-0.603-1.222-0.954-1.997-0.954-1.408-0-2.567 1.158-2.567 2.567 0 0.586 0.202 1.156 0.57 1.612l10.932 13.748-11.469 13.747c-0.383 0.46-0.593 1.04-0.593 1.639-0 0.761 0.339 1.484 0.926 1.97 0.464 0.373 1.043 0.572 1.638 0.564 0.761 1e-3 1.484-0.337 1.971-0.922l12.8-15.36c0.781-0.935 0.792-2.304 0.026-3.251z"
         style="fill:#2b73d2;fill-opacity:1" /></g></g></svg>
