<?xml version="1.0" encoding="UTF-8" standalone="no"?>
<svg
   xmlns:dc="http://purl.org/dc/elements/1.1/"
   xmlns:cc="http://creativecommons.org/ns#"
   xmlns:rdf="http://www.w3.org/1999/02/22-rdf-syntax-ns#"
   xmlns:svg="http://www.w3.org/2000/svg"
   xmlns="http://www.w3.org/2000/svg"
   xmlns:sodipodi="http://sodipodi.sourceforge.net/DTD/sodipodi-0.dtd"
   xmlns:inkscape="http://www.inkscape.org/namespaces/inkscape"
   viewBox="0 0 24 24"
   version="1.1"
   id="svg7118"
   sodipodi:docname="file-outline.svg"
   inkscape:version="1.0.1 (c497b03c, 2020-09-10)">
  <metadata
     id="metadata7124">
    <rdf:RDF>
      <cc:Work
         rdf:about="">
        <dc:format>image/svg+xml</dc:format>
        <dc:type
           rdf:resource="http://purl.org/dc/dcmitype/StillImage" />
      </cc:Work>
    </rdf:RDF>
  </metadata>
  <defs
     id="defs7122" />
  <sodipodi:namedview
     pagecolor="#ffffff"
     bordercolor="#666666"
     borderopacity="1"
     objecttolerance="10"
     gridtolerance="10"
     guidetolerance="10"
     inkscape:pageopacity="0"
     inkscape:pageshadow="2"
     inkscape:window-width="860"
     inkscape:window-height="480"
     id="namedview7120"
     showgrid="false"
     inkscape:zoom="9.8333333"
     inkscape:cx="12"
     inkscape:cy="12"
     inkscape:window-x="0"
     inkscape:window-y="23"
     inkscape:window-maximized="0"
     inkscape:current-layer="svg7118" />
  <g
     data-name="Layer 2"
     id="g7116">
    <g
       data-name="file"
       id="g7114">
      <rect
         width="24"
         height="24"
         opacity="0"
         id="rect7110" />
      <path
         d="M19.74 8.33l-5.44-6a1 1 0 0 0-.74-.33h-7A2.53 2.53 0 0 0 4 4.5v15A2.53 2.53 0 0 0 6.56 22h10.88A2.53 2.53 0 0 0 20 19.5V9a1 1 0 0 0-.26-.67zM17.65 9h-3.94a.79.79 0 0 1-.71-.85V4h.11zm-.21 11H6.56a.53.53 0 0 1-.56-.5v-15a.53.53 0 0 1 .56-.5H11v4.15A2.79 2.79 0 0 0 13.71 11H18v8.5a.53.53 0 0 1-.56.5z"
         id="path7112"
         style="fill:#2b73d2;fill-opacity:1" />
    </g>
  </g>
</svg>
