<?xml version="1.0" encoding="UTF-8" standalone="no"?>
<svg
   xmlns:serif="http://www.serif.com/"
   xmlns:dc="http://purl.org/dc/elements/1.1/"
   xmlns:cc="http://creativecommons.org/ns#"
   xmlns:rdf="http://www.w3.org/1999/02/22-rdf-syntax-ns#"
   xmlns:svg="http://www.w3.org/2000/svg"
   xmlns="http://www.w3.org/2000/svg"
   xmlns:sodipodi="http://sodipodi.sourceforge.net/DTD/sodipodi-0.dtd"
   xmlns:inkscape="http://www.inkscape.org/namespaces/inkscape"
   clip-rule="evenodd"
   fill-rule="evenodd"
   stroke-linejoin="round"
   stroke-miterlimit="2"
   version="1.1"
   viewBox="0 0 123 123"
   xml:space="preserve"
   id="svg3522"
   sodipodi:docname="flake-red.svg"
   inkscape:version="1.0.1 (c497b03c, 2020-09-10)"><defs
     id="defs3526" /><sodipodi:namedview
     pagecolor="#ffffff"
     bordercolor="#666666"
     borderopacity="1"
     objecttolerance="10"
     gridtolerance="10"
     guidetolerance="10"
     inkscape:pageopacity="0"
     inkscape:pageshadow="2"
     inkscape:window-width="1445"
     inkscape:window-height="1014"
     id="namedview3524"
     showgrid="false"
     inkscape:zoom="1.4950176"
     inkscape:cx="61.5"
     inkscape:cy="7.9889231"
     inkscape:window-x="0"
     inkscape:window-y="25"
     inkscape:window-maximized="0"
     inkscape:current-layer="svg3522"
     inkscape:document-rotation="0" /><metadata
     id="metadata3515"><rdf:RDF><cc:Work
         rdf:about=""><dc:format>image/svg+xml</dc:format><dc:type
           rdf:resource="http://purl.org/dc/dcmitype/StillImage" /><dc:title></dc:title></cc:Work></rdf:RDF></metadata><rect
     id="new-features"
     width="122.88"
     height="122.88"
     fill="none" /><g
     serif:id="new-features"
     id="g3520"><path
       d="m 49.392,16.475 c 2.303,-3.368 6.912,-5.915 12.048,-5.915 5.136,0 9.745,2.547 12.048,5.915 3.679,-1.765 8.944,-1.667 13.392,0.902 4.448,2.568 7.166,7.077 7.476,11.147 4.07,0.31 8.579,3.028 11.147,7.476 2.569,4.448 2.667,9.713 0.902,13.392 3.368,2.303 5.915,6.912 5.915,12.048 0,5.136 -2.547,9.745 -5.915,12.048 1.765,3.679 1.667,8.944 -0.902,13.392 -2.568,4.448 -7.077,7.166 -11.147,7.476 -0.31,4.07 -3.028,8.579 -7.476,11.147 -4.448,2.569 -9.713,2.667 -13.392,0.902 -2.303,3.368 -6.912,5.915 -12.048,5.915 -5.136,0 -9.745,-2.547 -12.048,-5.915 C 45.713,108.17 40.448,108.072 36,105.503 31.552,102.935 28.834,98.426 28.524,94.356 24.454,94.046 19.945,91.328 17.377,86.88 14.808,82.432 14.71,77.167 16.475,73.488 13.107,71.185 10.56,66.576 10.56,61.44 c 0,-5.136 2.547,-9.745 5.915,-12.048 C 14.71,45.713 14.808,40.448 17.377,36 c 2.568,-4.448 7.077,-7.166 11.147,-7.476 0.31,-4.07 3.028,-8.579 7.476,-11.147 4.448,-2.569 9.713,-2.667 13.392,-0.902 z"
       id="path3518"
       style="fill:#d94727;fill-opacity:1"
       sodipodi:nodetypes="cscccccscccccscccccsccccc" /></g></svg>
