<?xml version="1.0" encoding="UTF-8" standalone="no"?>
<svg
   xmlns:dc="http://purl.org/dc/elements/1.1/"
   xmlns:cc="http://creativecommons.org/ns#"
   xmlns:rdf="http://www.w3.org/1999/02/22-rdf-syntax-ns#"
   xmlns:svg="http://www.w3.org/2000/svg"
   xmlns="http://www.w3.org/2000/svg"
   xmlns:sodipodi="http://sodipodi.sourceforge.net/DTD/sodipodi-0.dtd"
   xmlns:inkscape="http://www.inkscape.org/namespaces/inkscape"
   viewBox="0 0 24 24"
   version="1.1"
   id="svg7551"
   sodipodi:docname="folder-outline.svg"
   inkscape:version="1.0.1 (c497b03c, 2020-09-10)">
  <metadata
     id="metadata7557">
    <rdf:RDF>
      <cc:Work
         rdf:about="">
        <dc:format>image/svg+xml</dc:format>
        <dc:type
           rdf:resource="http://purl.org/dc/dcmitype/StillImage" />
      </cc:Work>
    </rdf:RDF>
  </metadata>
  <defs
     id="defs7555" />
  <sodipodi:namedview
     pagecolor="#ffffff"
     bordercolor="#666666"
     borderopacity="1"
     objecttolerance="10"
     gridtolerance="10"
     guidetolerance="10"
     inkscape:pageopacity="0"
     inkscape:pageshadow="2"
     inkscape:window-width="860"
     inkscape:window-height="480"
     id="namedview7553"
     showgrid="false"
     inkscape:zoom="9.8333333"
     inkscape:cx="12"
     inkscape:cy="12"
     inkscape:window-x="0"
     inkscape:window-y="23"
     inkscape:window-maximized="0"
     inkscape:current-layer="svg7551" />
  <g
     data-name="Layer 2"
     id="g7549">
    <g
       data-name="folder"
       id="g7547">
      <rect
         width="24"
         height="24"
         opacity="0"
         id="rect7543" />
      <path
         d="M19.5 20.5h-15A2.47 2.47 0 0 1 2 18.07V5.93A2.47 2.47 0 0 1 4.5 3.5h4.6a1 1 0 0 1 .77.37l2.6 3.18h7A2.47 2.47 0 0 1 22 9.48v8.59a2.47 2.47 0 0 1-2.5 2.43zM4 13.76v4.31a.46.46 0 0 0 .5.43h15a.46.46 0 0 0 .5-.43V9.48a.46.46 0 0 0-.5-.43H12a1 1 0 0 1-.77-.37L8.63 5.5H4.5a.46.46 0 0 0-.5.43z"
         id="path7545"
         style="fill:#2b73d2;fill-opacity:1" />
    </g>
  </g>
</svg>
