<?xml version="1.0" encoding="utf-8"?>
<!-- Generator: Adobe Illustrator 23.1.1, SVG Export Plug-In . SVG Version: 6.00 Build 0)  -->
<svg version="1.1" id="Livello_1" xmlns="http://www.w3.org/2000/svg" xmlns:xlink="http://www.w3.org/1999/xlink" x="0px" y="0px"
	 viewBox="0 0 24 24" style="enable-background:new 0 0 24 24;" xml:space="preserve" fill="#2b73d2">
<style type="text/css">
	.st0{fill-opacity:0;}
</style>
<g>
	<g>
		<rect y="0" class="st0" width="24" height="24"/>
		<path d="M3.8,21c-0.5,0-0.9-0.3-1-0.8c-0.2-0.8-0.3-1.7-0.3-2.5C2.5,12.1,6.9,7.4,12.5,7V5.8c0-0.7,0.4-1.4,1.1-1.6
			c0.7-0.3,1.6-0.2,2.2,0.3l5.1,4.4C20.9,9,21,9,21.1,9.1c0.6,0.7,0.5,1.9-0.2,2.5L15.8,16c-0.6,0.5-1.4,0.6-2.1,0.3
			c-0.7-0.3-1.1-0.9-1.1-1.6v-1.1c-3.8,0.4-6.9,3-7.8,6.7C4.7,20.7,4.2,21,3.8,21L3.8,21z"/>
	</g>
</g>
</svg>
