<?xml version="1.0" encoding="UTF-8" standalone="no"?>
<svg
   xmlns:dc="http://purl.org/dc/elements/1.1/"
   xmlns:cc="http://creativecommons.org/ns#"
   xmlns:rdf="http://www.w3.org/1999/02/22-rdf-syntax-ns#"
   xmlns:svg="http://www.w3.org/2000/svg"
   xmlns="http://www.w3.org/2000/svg"
   xmlns:sodipodi="http://sodipodi.sourceforge.net/DTD/sodipodi-0.dtd"
   xmlns:inkscape="http://www.inkscape.org/namespaces/inkscape"
   viewBox="0 0 24 24"
   version="1.1"
   id="svg7601"
   sodipodi:docname="funnel-outline.svg"
   inkscape:version="1.0.1 (c497b03c, 2020-09-10)">
  <metadata
     id="metadata7607">
    <rdf:RDF>
      <cc:Work
         rdf:about="">
        <dc:format>image/svg+xml</dc:format>
        <dc:type
           rdf:resource="http://purl.org/dc/dcmitype/StillImage" />
      </cc:Work>
    </rdf:RDF>
  </metadata>
  <defs
     id="defs7605" />
  <sodipodi:namedview
     pagecolor="#ffffff"
     bordercolor="#666666"
     borderopacity="1"
     objecttolerance="10"
     gridtolerance="10"
     guidetolerance="10"
     inkscape:pageopacity="0"
     inkscape:pageshadow="2"
     inkscape:window-width="860"
     inkscape:window-height="480"
     id="namedview7603"
     showgrid="false"
     inkscape:zoom="9.8333333"
     inkscape:cx="12"
     inkscape:cy="12"
     inkscape:window-x="0"
     inkscape:window-y="23"
     inkscape:window-maximized="0"
     inkscape:current-layer="svg7601" />
  <g
     data-name="Layer 2"
     id="g7599">
    <g
       data-name="funnel"
       id="g7597">
      <rect
         width="24"
         height="24"
         opacity="0"
         id="rect7593" />
      <path
         d="M13.9 22a1 1 0 0 1-.6-.2l-4-3.05a1 1 0 0 1-.39-.8v-3.27l-4.8-9.22A1 1 0 0 1 5 4h14a1 1 0 0 1 .86.49 1 1 0 0 1 0 1l-5 9.21V21a1 1 0 0 1-.55.9 1 1 0 0 1-.41.1zm-3-4.54l2 1.53v-4.55A1 1 0 0 1 13 14l4.3-8H6.64l4.13 8a1 1 0 0 1 .11.46z"
         id="path7595"
         style="fill:#2b73d2;fill-opacity:1" />
    </g>
  </g>
</svg>
