<?xml version="1.0" encoding="UTF-8" standalone="no"?>
<svg
   xmlns:dc="http://purl.org/dc/elements/1.1/"
   xmlns:cc="http://creativecommons.org/ns#"
   xmlns:rdf="http://www.w3.org/1999/02/22-rdf-syntax-ns#"
   xmlns:svg="http://www.w3.org/2000/svg"
   xmlns="http://www.w3.org/2000/svg"
   xmlns:sodipodi="http://sodipodi.sourceforge.net/DTD/sodipodi-0.dtd"
   xmlns:inkscape="http://www.inkscape.org/namespaces/inkscape"
   viewBox="0 0 24 24"
   version="1.1"
   id="svg7673"
   sodipodi:docname="globe-2-outline.svg"
   inkscape:version="1.0.1 (c497b03c, 2020-09-10)">
  <metadata
     id="metadata7679">
    <rdf:RDF>
      <cc:Work
         rdf:about="">
        <dc:format>image/svg+xml</dc:format>
        <dc:type
           rdf:resource="http://purl.org/dc/dcmitype/StillImage" />
      </cc:Work>
    </rdf:RDF>
  </metadata>
  <defs
     id="defs7677" />
  <sodipodi:namedview
     pagecolor="#ffffff"
     bordercolor="#666666"
     borderopacity="1"
     objecttolerance="10"
     gridtolerance="10"
     guidetolerance="10"
     inkscape:pageopacity="0"
     inkscape:pageshadow="2"
     inkscape:window-width="860"
     inkscape:window-height="480"
     id="namedview7675"
     showgrid="false"
     inkscape:zoom="9.8333333"
     inkscape:cx="12"
     inkscape:cy="12"
     inkscape:window-x="0"
     inkscape:window-y="23"
     inkscape:window-maximized="0"
     inkscape:current-layer="svg7673" />
  <g
     data-name="Layer 2"
     id="g7671">
    <g
       data-name="globe-2"
       id="g7669">
      <rect
         width="24"
         height="24"
         opacity="0"
         id="rect7663" />
      <rect
         width="24"
         height="24"
         opacity="0"
         id="rect7665" />
      <path
         d="M12 2a10 10 0 1 0 10 10A10 10 0 0 0 12 2zm0 2a8.19 8.19 0 0 1 1.79.21 2.61 2.61 0 0 1-.78 1c-.22.17-.46.31-.7.46a4.56 4.56 0 0 0-1.85 1.67 6.49 6.49 0 0 0-.62 3.3c0 1.36 0 2.16-.95 2.87-1.37 1.07-3.46.47-4.76-.07A8.33 8.33 0 0 1 4 12a8 8 0 0 1 8-8zM5 15.8a8.42 8.42 0 0 0 2 .27 5 5 0 0 0 3.14-1c1.71-1.34 1.71-3.06 1.71-4.44a4.76 4.76 0 0 1 .37-2.34 2.86 2.86 0 0 1 1.12-.91 9.75 9.75 0 0 0 .92-.61 4.55 4.55 0 0 0 1.4-1.87A8 8 0 0 1 19 8.12c-1.43.2-3.46.67-3.86 2.53A7 7 0 0 0 15 12a2.93 2.93 0 0 1-.29 1.47l-.1.17c-.65 1.08-1.38 2.31-.39 4 .12.21.25.41.38.61a2.29 2.29 0 0 1 .52 1.08A7.89 7.89 0 0 1 12 20a8 8 0 0 1-7-4.2zm11.93 2.52a6.79 6.79 0 0 0-.63-1.14c-.11-.16-.22-.32-.32-.49-.39-.68-.25-1 .38-2l.1-.17a4.77 4.77 0 0 0 .54-2.43 5.42 5.42 0 0 1 .09-1c.16-.73 1.71-.93 2.67-1a7.94 7.94 0 0 1-2.86 8.28z"
         id="path7667"
         style="fill:#2b73d2;fill-opacity:1" />
    </g>
  </g>
</svg>
