<?xml version="1.0" encoding="UTF-8" standalone="no"?>
<svg
   xmlns:dc="http://purl.org/dc/elements/1.1/"
   xmlns:cc="http://creativecommons.org/ns#"
   xmlns:rdf="http://www.w3.org/1999/02/22-rdf-syntax-ns#"
   xmlns:svg="http://www.w3.org/2000/svg"
   xmlns="http://www.w3.org/2000/svg"
   xmlns:sodipodi="http://sodipodi.sourceforge.net/DTD/sodipodi-0.dtd"
   xmlns:inkscape="http://www.inkscape.org/namespaces/inkscape"
   viewBox="0 0 24 24"
   version="1.1"
   id="svg7697"
   sodipodi:docname="globe-outline.svg"
   inkscape:version="1.0.1 (c497b03c, 2020-09-10)">
  <metadata
     id="metadata7703">
    <rdf:RDF>
      <cc:Work
         rdf:about="">
        <dc:format>image/svg+xml</dc:format>
        <dc:type
           rdf:resource="http://purl.org/dc/dcmitype/StillImage" />
      </cc:Work>
    </rdf:RDF>
  </metadata>
  <defs
     id="defs7701" />
  <sodipodi:namedview
     pagecolor="#ffffff"
     bordercolor="#666666"
     borderopacity="1"
     objecttolerance="10"
     gridtolerance="10"
     guidetolerance="10"
     inkscape:pageopacity="0"
     inkscape:pageshadow="2"
     inkscape:window-width="860"
     inkscape:window-height="480"
     id="namedview7699"
     showgrid="false"
     inkscape:zoom="9.8333333"
     inkscape:cx="12"
     inkscape:cy="12"
     inkscape:window-x="0"
     inkscape:window-y="23"
     inkscape:window-maximized="0"
     inkscape:current-layer="svg7697" />
  <g
     data-name="Layer 2"
     id="g7695">
    <g
       data-name="globe"
       id="g7693">
      <rect
         width="24"
         height="24"
         transform="rotate(180 12 12)"
         opacity="0"
         id="rect7689" />
      <path
         d="M22 12A10 10 0 0 0 12 2a10 10 0 0 0 0 20 10 10 0 0 0 10-10zm-2.07-1H17a12.91 12.91 0 0 0-2.33-6.54A8 8 0 0 1 19.93 11zM9.08 13H15a11.44 11.44 0 0 1-3 6.61A11 11 0 0 1 9.08 13zm0-2A11.4 11.4 0 0 1 12 4.4a11.19 11.19 0 0 1 3 6.6zm.36-6.57A13.18 13.18 0 0 0 7.07 11h-3a8 8 0 0 1 5.37-6.57zM4.07 13h3a12.86 12.86 0 0 0 2.35 6.56A8 8 0 0 1 4.07 13zm10.55 6.55A13.14 13.14 0 0 0 17 13h2.95a8 8 0 0 1-5.33 6.55z"
         id="path7691"
         style="fill:#2b73d2;fill-opacity:1" />
    </g>
  </g>
</svg>
