<?xml version="1.0" encoding="UTF-8" standalone="no"?>
<svg
   xmlns:dc="http://purl.org/dc/elements/1.1/"
   xmlns:cc="http://creativecommons.org/ns#"
   xmlns:rdf="http://www.w3.org/1999/02/22-rdf-syntax-ns#"
   xmlns:svg="http://www.w3.org/2000/svg"
   xmlns="http://www.w3.org/2000/svg"
   xmlns:sodipodi="http://sodipodi.sourceforge.net/DTD/sodipodi-0.dtd"
   xmlns:inkscape="http://www.inkscape.org/namespaces/inkscape"
   id="svg844"
   clip-rule="evenodd"
   fill-rule="evenodd"
   stroke-linejoin="round"
   stroke-miterlimit="2"
   version="1.1"
   viewBox="0 0 123 123"
   xml:space="preserve"
   sodipodi:docname="in-progress-outline.svg"
   inkscape:version="1.0.1 (c497b03c, 2020-09-10)"><defs
     id="defs7982" /><sodipodi:namedview
     pagecolor="#ffffff"
     bordercolor="#666666"
     borderopacity="1"
     objecttolerance="10"
     gridtolerance="10"
     guidetolerance="10"
     inkscape:pageopacity="0"
     inkscape:pageshadow="2"
     inkscape:window-width="860"
     inkscape:window-height="480"
     id="namedview7980"
     showgrid="false"
     inkscape:zoom="1.9186992"
     inkscape:cx="61.5"
     inkscape:cy="61.5"
     inkscape:window-x="0"
     inkscape:window-y="23"
     inkscape:window-maximized="0"
     inkscape:current-layer="svg844" /><metadata
     id="metadata850"><rdf:RDF><cc:Work
         rdf:about=""><dc:format>image/svg+xml</dc:format><dc:type
           rdf:resource="http://purl.org/dc/dcmitype/StillImage" /><dc:title /></cc:Work></rdf:RDF></metadata><rect
     id="in-progress-outline"
     width="122.88"
     height="122.88"
     fill="none" /><g
     id="master"><rect
       id="ingombro"
       width="122.88"
       height="122.88"
       fill-opacity="0" /><path
       id="path839"
       d="m58.268 10.43c1.696-0.104 5.118-0.153 5.118-0.153 27.201 1.038 49.254 23.727 49.254 51.163-0 26.037-19.861 47.799-45.133 50.837-0 0-4.377 0.24-6.588 0.22-2.787-0.024-5.03-2.307-5.006-5.094 0.025-2.787 2.307-5.03 5.094-5.005 3.027 0.026 6.017-0.286 8.921-0.911 0.127-0.027 0.253-0.05 0.379-0.067 18.27-4.098 32.093-20.551 32.093-39.98-0-21.711-17.261-39.706-38.698-40.897l-1e-3 -0.04c-1.615-0.093-3.222-0.089-4.816 8e-3 -2.782 0.171-5.178-1.95-5.349-4.732-0.17-2.782 1.95-5.179 4.732-5.349zm-14.643 87.927c-2.743-1.314-5.289-2.909-7.611-4.74-2.188-1.726-5.366-1.35-7.092 0.839s-1.35 5.367 0.839 7.092c2.899 2.286 6.077 4.278 9.501 5.918 2.514 1.204 5.532 0.14 6.736-2.374 1.204-2.513 0.14-5.532-2.373-6.735zm-18.878-18.577c-1.342-2.675-2.395-5.497-3.129-8.416-0.681-2.703-3.428-4.345-6.13-3.664-2.703 0.68-4.345 3.427-3.665 6.13 0.915 3.634 2.225 7.148 3.896 10.48 1.25 2.491 4.288 3.499 6.779 2.249s3.499-4.288 2.249-6.779zm-3.595-26.236c0.272-1.381 0.618-2.761 1.039-4.136 0.468-1.528 1.018-3.009 1.643-4.439 1.116-2.554-0.052-5.534-2.606-6.65s-5.533 0.052-6.649 2.606c-0.778 1.78-1.462 3.622-2.044 5.523-0.525 1.709-0.954 3.426-1.293 5.143-0.538 2.735 1.244 5.393 3.979 5.931 2.735 0.539 5.392-1.244 5.931-3.978zm13.222-22.952c2.267-1.979 4.74-3.699 7.368-5.133 2.447-1.335 3.349-4.405 2.015-6.852-1.335-2.447-4.405-3.349-6.852-2.014-3.273 1.785-6.352 3.927-9.174 6.391-2.099 1.833-2.315 5.026-0.482 7.125 1.833 2.1 5.026 2.316 7.125 0.483z"
       style="fill:#2b73d2;fill-opacity:1" /><path
       id="path841"
       d="m75.264 42.957-19.354 25.6-8.345-10.803c-0.971-1.247-2.465-1.978-4.045-1.978-2.812 0-5.126 2.314-5.126 5.126 0 1.141 0.381 2.249 1.081 3.149l12.442 15.923c0.976 1.236 2.47 1.954 4.045 1.946 1.583-4e-3 3.078-0.742 4.044-1.997l23.399-30.72c0.684-0.897 1.055-1.995 1.055-3.123-0-2.826-2.326-5.151-5.151-5.151-1.606 0-3.123 0.751-4.096 2.028h0.051z"
       fill-rule="nonzero"
       style="fill:#2b73d2;fill-opacity:1" /></g></svg>
