<?xml version="1.0" encoding="UTF-8" standalone="no"?>
<svg
   xmlns:dc="http://purl.org/dc/elements/1.1/"
   xmlns:cc="http://creativecommons.org/ns#"
   xmlns:rdf="http://www.w3.org/1999/02/22-rdf-syntax-ns#"
   xmlns:svg="http://www.w3.org/2000/svg"
   xmlns="http://www.w3.org/2000/svg"
   xmlns:sodipodi="http://sodipodi.sourceforge.net/DTD/sodipodi-0.dtd"
   xmlns:inkscape="http://www.inkscape.org/namespaces/inkscape"
   viewBox="0 0 24 24"
   version="1.1"
   id="svg8218"
   sodipodi:docname="link-2-outline.svg"
   inkscape:version="1.0.1 (c497b03c, 2020-09-10)">
  <metadata
     id="metadata8224">
    <rdf:RDF>
      <cc:Work
         rdf:about="">
        <dc:format>image/svg+xml</dc:format>
        <dc:type
           rdf:resource="http://purl.org/dc/dcmitype/StillImage" />
      </cc:Work>
    </rdf:RDF>
  </metadata>
  <defs
     id="defs8222" />
  <sodipodi:namedview
     pagecolor="#ffffff"
     bordercolor="#666666"
     borderopacity="1"
     objecttolerance="10"
     gridtolerance="10"
     guidetolerance="10"
     inkscape:pageopacity="0"
     inkscape:pageshadow="2"
     inkscape:window-width="860"
     inkscape:window-height="480"
     id="namedview8220"
     showgrid="false"
     inkscape:zoom="9.8333333"
     inkscape:cx="12"
     inkscape:cy="12"
     inkscape:window-x="0"
     inkscape:window-y="23"
     inkscape:window-maximized="0"
     inkscape:current-layer="svg8218" />
  <g
     data-name="Layer 2"
     id="g8216">
    <g
       data-name="link-2"
       id="g8214">
      <rect
         width="24"
         height="24"
         opacity="0"
         id="rect8206" />
      <path
         d="M13.29 9.29l-4 4a1 1 0 0 0 0 1.42 1 1 0 0 0 1.42 0l4-4a1 1 0 0 0-1.42-1.42z"
         id="path8208"
         style="fill:#2b73d2;fill-opacity:1" />
      <path
         d="M12.28 17.4L11 18.67a4.2 4.2 0 0 1-5.58.4 4 4 0 0 1-.27-5.93l1.42-1.43a1 1 0 0 0 0-1.42 1 1 0 0 0-1.42 0l-1.27 1.28a6.15 6.15 0 0 0-.67 8.07 6.06 6.06 0 0 0 9.07.6l1.42-1.42a1 1 0 0 0-1.42-1.42z"
         id="path8210"
         style="fill:#2b73d2;fill-opacity:1" />
      <path
         d="M19.66 3.22a6.18 6.18 0 0 0-8.13.68L10.45 5a1.09 1.09 0 0 0-.17 1.61 1 1 0 0 0 1.42 0L13 5.3a4.17 4.17 0 0 1 5.57-.4 4 4 0 0 1 .27 5.95l-1.42 1.43a1 1 0 0 0 0 1.42 1 1 0 0 0 1.42 0l1.42-1.42a6.06 6.06 0 0 0-.6-9.06z"
         id="path8212"
         style="fill:#2b73d2;fill-opacity:1" />
    </g>
  </g>
</svg>
