<?xml version="1.0" encoding="UTF-8" standalone="no"?>
<svg
   xmlns:dc="http://purl.org/dc/elements/1.1/"
   xmlns:cc="http://creativecommons.org/ns#"
   xmlns:rdf="http://www.w3.org/1999/02/22-rdf-syntax-ns#"
   xmlns:svg="http://www.w3.org/2000/svg"
   xmlns="http://www.w3.org/2000/svg"
   xmlns:sodipodi="http://sodipodi.sourceforge.net/DTD/sodipodi-0.dtd"
   xmlns:inkscape="http://www.inkscape.org/namespaces/inkscape"
   id="svg1484"
   clip-rule="evenodd"
   fill-rule="evenodd"
   stroke-linejoin="round"
   stroke-miterlimit="2"
   version="1.1"
   viewBox="0 0 123 123"
   xml:space="preserve"
   sodipodi:docname="list-view-outline.svg"
   inkscape:version="1.0.1 (c497b03c, 2020-09-10)"><defs
     id="defs8336" /><sodipodi:namedview
     pagecolor="#ffffff"
     bordercolor="#666666"
     borderopacity="1"
     objecttolerance="10"
     gridtolerance="10"
     guidetolerance="10"
     inkscape:pageopacity="0"
     inkscape:pageshadow="2"
     inkscape:window-width="860"
     inkscape:window-height="480"
     id="namedview8334"
     showgrid="false"
     inkscape:zoom="1.9186992"
     inkscape:cx="61.5"
     inkscape:cy="61.5"
     inkscape:window-x="0"
     inkscape:window-y="23"
     inkscape:window-maximized="0"
     inkscape:current-layer="svg1484" /><metadata
     id="metadata1490"><rdf:RDF><cc:Work
         rdf:about=""><dc:format>image/svg+xml</dc:format><dc:type
           rdf:resource="http://purl.org/dc/dcmitype/StillImage" /><dc:title /></cc:Work></rdf:RDF></metadata><rect
     id="list-view-outline"
     width="122.88"
     height="122.88"
     fill="none" /><g
     id="master"><rect
       id="ingombro"
       width="122.88"
       height="122.88"
       fill-opacity="0" /></g><path
     id="path1474"
     d="m76.8 20.48v-5.12c0-2.809 2.311-5.12 5.12-5.12s5.12 2.311 5.12 5.12v5.12h5.12c8.426 0 15.36 6.934 15.36 15.36v61.44c0 8.426-6.934 15.36-15.36 15.36h-61.44c-8.426 0-15.36-6.934-15.36-15.36v-61.44c0-8.426 6.934-15.36 15.36-15.36h5.12v-5.12c4e-3 -0.619 0.113-1.232 0.335-1.811 0.588-1.536 1.919-2.733 3.512-3.147 0.5-0.13 1.019-0.182 1.535-0.155 0.571 0.029 1.136 0.156 1.665 0.374 0.611 0.251 1.17 0.621 1.642 1.082 0.98 0.957 1.551 2.287 1.551 3.657v5.12h30.72zm15.36 81.92c2.809 0 5.12-2.311 5.12-5.12v-61.44c0-2.809-2.311-5.12-5.12-5.12h-5.12v5.12c0 2.809-2.311 5.12-5.12 5.12s-5.12-2.311-5.12-5.12v-5.12h-30.72v5.12c0 2.809-2.311 5.12-5.12 5.12s-5.12-2.311-5.12-5.12v-5.12h-5.12c-2.809 0-5.12 2.311-5.12 5.12v61.44c4e-3 0.577 0.098 1.149 0.291 1.694 0.522 1.468 1.72 2.652 3.194 3.155 0.527 0.18 1.079 0.267 1.635 0.271h61.44z"
     fill-rule="nonzero"
     style="fill:#2b73d2;fill-opacity:1" /><g
     id="g1482"><path
       id="path1476"
       d="m46.065 48.636c-2.826 0-5.12 2.294-5.12 5.12 0 2.825 2.294 5.12 5.12 5.12h30.75c2.826 0 5.12-2.295 5.12-5.12 0-2.826-2.294-5.12-5.12-5.12h-30.75z"
       style="fill:#2b73d2;fill-opacity:1" /><path
       id="path1478"
       d="m46.065 84.453c-2.826 0-5.12 2.295-5.12 5.12 0 2.826 2.294 5.12 5.12 5.12h30.75c2.826 0 5.12-2.294 5.12-5.12 0-2.825-2.294-5.12-5.12-5.12h-30.75z"
       style="fill:#2b73d2;fill-opacity:1" /><path
       id="path1480"
       d="m46.065 66.545c-2.826 0-5.12 2.294-5.12 5.12 0 2.825 2.294 5.12 5.12 5.12h30.75c2.826 0 5.12-2.295 5.12-5.12 0-2.826-2.294-5.12-5.12-5.12h-30.75z"
       style="fill:#2b73d2;fill-opacity:1" /></g></svg>
