<?xml version="1.0" encoding="UTF-8" standalone="no"?>
<svg
   xmlns:dc="http://purl.org/dc/elements/1.1/"
   xmlns:cc="http://creativecommons.org/ns#"
   xmlns:rdf="http://www.w3.org/1999/02/22-rdf-syntax-ns#"
   xmlns:svg="http://www.w3.org/2000/svg"
   xmlns="http://www.w3.org/2000/svg"
   xmlns:sodipodi="http://sodipodi.sourceforge.net/DTD/sodipodi-0.dtd"
   xmlns:inkscape="http://www.inkscape.org/namespaces/inkscape"
   id="svg1623"
   clip-rule="evenodd"
   fill-rule="evenodd"
   stroke-linejoin="round"
   stroke-miterlimit="2"
   version="1.1"
   viewBox="0 0 123 123"
   xml:space="preserve"
   sodipodi:docname="mail-folder.svg"
   inkscape:version="1.0.1 (c497b03c, 2020-09-10)"><defs
     id="defs2891" /><sodipodi:namedview
     pagecolor="#ffffff"
     bordercolor="#666666"
     borderopacity="1"
     objecttolerance="10"
     gridtolerance="10"
     guidetolerance="10"
     inkscape:pageopacity="0"
     inkscape:pageshadow="2"
     inkscape:window-width="860"
     inkscape:window-height="480"
     id="namedview2889"
     showgrid="false"
     inkscape:zoom="1.9186992"
     inkscape:cx="61.5"
     inkscape:cy="61.5"
     inkscape:window-x="0"
     inkscape:window-y="23"
     inkscape:window-maximized="0"
     inkscape:current-layer="svg1623" /><metadata
     id="metadata1629"><rdf:RDF><cc:Work
         rdf:about=""><dc:format>image/svg+xml</dc:format><dc:type
           rdf:resource="http://purl.org/dc/dcmitype/StillImage" /><dc:title /></cc:Work></rdf:RDF></metadata><rect
     id="mail-folder"
     width="122.88"
     height="122.88"
     fill="none" /><g
     id="master"><rect
       id="ingombro"
       width="122.88"
       height="122.88"
       fill-opacity="0" /><rect
       id="rect1618"
       width="122.88"
       height="122.88"
       fill-opacity="0" /><path
       id="path1620"
       d="m10.24 45.166 48.187 35.927c1.797 1.335 4.257 1.329 6.046-0.016l47.703-35.724c0.286 1.016 0.447 2.084 0.464 3.185v43.98c-0.112 6.919-5.881 12.527-12.8 12.442h-76.8c-6.919 0.085-12.688-5.523-12.8-12.442v-47.352zm-0-12.65v-2.154c0.112-6.919 5.881-12.527 12.8-12.442h23.552c1.53 0.01 2.978 0.706 3.942 1.894l13.312 16.282h35.84c0.103-3e-3 0.206-4e-3 0.309-4e-3 2.337 0 4.537 0.648 6.425 1.774l-44.996 32.87-51.184-38.22z"
       fill-rule="nonzero"
       style="fill:#747474;fill-opacity:1" /></g></svg>
