<?xml version="1.0" encoding="UTF-8" standalone="no"?>
<svg
   xmlns:dc="http://purl.org/dc/elements/1.1/"
   xmlns:cc="http://creativecommons.org/ns#"
   xmlns:rdf="http://www.w3.org/1999/02/22-rdf-syntax-ns#"
   xmlns:svg="http://www.w3.org/2000/svg"
   xmlns="http://www.w3.org/2000/svg"
   xmlns:sodipodi="http://sodipodi.sourceforge.net/DTD/sodipodi-0.dtd"
   xmlns:inkscape="http://www.inkscape.org/namespaces/inkscape"
   width="100%"
   height="100%"
   viewBox="0 0 123 123"
   version="1.1"
   xml:space="preserve"
   style="fill-rule:evenodd;clip-rule:evenodd;stroke-linejoin:round;stroke-miterlimit:2;"
   id="svg856"
   sodipodi:docname="mail-status-outline.svg"
   inkscape:version="1.0.1 (c497b03c, 2020-09-10)"><metadata
     id="metadata862"><rdf:RDF><cc:Work
         rdf:about=""><dc:format>image/svg+xml</dc:format><dc:type
           rdf:resource="http://purl.org/dc/dcmitype/StillImage" /><dc:title></dc:title></cc:Work></rdf:RDF></metadata><defs
     id="defs860" /><sodipodi:namedview
     pagecolor="#ffffff"
     bordercolor="#666666"
     borderopacity="1"
     objecttolerance="10"
     gridtolerance="10"
     guidetolerance="10"
     inkscape:pageopacity="0"
     inkscape:pageshadow="2"
     inkscape:window-width="1582"
     inkscape:window-height="1062"
     id="namedview858"
     showgrid="false"
     inkscape:zoom="5.4552846"
     inkscape:cx="61.5"
     inkscape:cy="61.5"
     inkscape:window-x="0"
     inkscape:window-y="23"
     inkscape:window-maximized="0"
     inkscape:current-layer="svg856" /><rect
     id="mail-status-outline"
     x="0"
     y="-0"
     width="122.88"
     height="122.88"
     style="fill:none;" /><g
     id="g854"><rect
       x="0"
       y="0"
       width="122.88"
       height="122.88"
       style="fill-opacity:0;"
       id="rect850" /><path
       d="M81.058,20.48l16.222,-0c8.426,-0 15.36,6.934 15.36,15.36l-0,51.2c-0,8.426 -6.934,15.36 -15.36,15.36l-71.68,-0c-8.426,-0 -15.36,-6.934 -15.36,-15.36l0,-51.2c0,-8.426 6.934,-15.36 15.36,-15.36l16.222,-0c-2.484,2.924 -4.326,6.41 -5.308,10.24l-7.484,-0l6.716,5.039c-0.024,0.452 -0.035,0.905 -0.035,1.361c-0,5.638 1.817,10.854 4.897,15.096l-20.128,-15.096l0,49.92c0,2.809 2.311,5.12 5.12,5.12l71.68,-0c2.809,-0 5.12,-2.311 5.12,-5.12l-0,-49.92l-20.128,15.096c3.08,-4.242 4.897,-9.458 4.897,-15.096c0,-0.456 -0.011,-0.909 -0.035,-1.361l6.716,-5.039l-7.484,-0c-0.982,-3.829 -2.824,-7.315 -5.308,-10.24Zm-19.618,51.2c2.826,0 5.12,2.295 5.12,5.12c-0,2.826 -2.294,5.12 -5.12,5.12c-2.826,0 -5.12,-2.294 -5.12,-5.12c-0,-2.825 2.294,-5.12 5.12,-5.12Zm-0,-51.2c-9.831,0 -17.92,8.09 -17.92,17.92c-0,2.809 2.311,5.12 5.12,5.12c2.809,0 5.12,-2.311 5.12,-5.12c-0,-4.213 3.467,-7.68 7.68,-7.68c4.213,0 7.68,3.467 7.68,7.68c-0,4.213 -3.467,7.68 -7.68,7.68c-2.809,0 -5.12,2.312 -5.12,5.12l-0,10.24c-0,2.809 2.311,5.12 5.12,5.12c2.809,0 5.12,-2.311 5.12,-5.12l-0,-5.939c7.599,-2.219 12.86,-9.236 12.86,-17.152c-0,-9.803 -8.067,-17.869 -17.869,-17.869c-0.037,-0 -0.074,0 -0.111,0Z"
       style="fill-rule:nonzero;fill:#2b73d2;fill-opacity:1"
       id="path852" /></g></svg>
