<?xml version="1.0" encoding="UTF-8" standalone="no"?>
<svg
   xmlns:dc="http://purl.org/dc/elements/1.1/"
   xmlns:cc="http://creativecommons.org/ns#"
   xmlns:rdf="http://www.w3.org/1999/02/22-rdf-syntax-ns#"
   xmlns:svg="http://www.w3.org/2000/svg"
   xmlns="http://www.w3.org/2000/svg"
   xmlns:sodipodi="http://sodipodi.sourceforge.net/DTD/sodipodi-0.dtd"
   xmlns:inkscape="http://www.inkscape.org/namespaces/inkscape"
   id="svg1381"
   clip-rule="evenodd"
   fill-rule="evenodd"
   stroke-linejoin="round"
   stroke-miterlimit="2"
   version="1.1"
   viewBox="0 0 123 123"
   xml:space="preserve"
   sodipodi:docname="optional-invitee-outline.svg"
   inkscape:version="1.0.1 (c497b03c, 2020-09-10)"><defs
     id="defs9248" /><sodipodi:namedview
     pagecolor="#ffffff"
     bordercolor="#666666"
     borderopacity="1"
     objecttolerance="10"
     gridtolerance="10"
     guidetolerance="10"
     inkscape:pageopacity="0"
     inkscape:pageshadow="2"
     inkscape:window-width="860"
     inkscape:window-height="480"
     id="namedview9246"
     showgrid="false"
     inkscape:zoom="1.9186992"
     inkscape:cx="61.5"
     inkscape:cy="61.5"
     inkscape:window-x="0"
     inkscape:window-y="23"
     inkscape:window-maximized="0"
     inkscape:current-layer="svg1381" /><metadata
     id="metadata1387"><rdf:RDF><cc:Work
         rdf:about=""><dc:format>image/svg+xml</dc:format><dc:type
           rdf:resource="http://purl.org/dc/dcmitype/StillImage" /><dc:title /></cc:Work></rdf:RDF></metadata><rect
     id="optional-invitee-outline"
     width="122.88"
     height="122.88"
     fill="none" /><g
     id="master"><rect
       id="ingombro"
       width="122.88"
       height="122.88"
       fill-opacity="0" /><g
       id="g1378"><rect
         id="rect1366"
         width="122.88"
         height="122.88"
         fill-opacity="0" /><path
         id="path1368"
         d="m51.2 56.32c11.235 0 20.48-9.245 20.48-20.48s-9.245-20.48-20.48-20.48-20.48 9.245-20.48 20.48 9.245 20.48 20.48 20.48zm0-30.72c5.617 0 10.24 4.623 10.24 10.24s-4.623 10.24-10.24 10.24-10.24-4.623-10.24-10.24 4.623-10.24 10.24-10.24z"
         fill-rule="nonzero"
         style="fill:#2b73d2;fill-opacity:1" /><path
         id="path1370"
         d="m51.2 66.56c-19.661 0-35.84 16.179-35.84 35.84 0 2.809 2.311 5.12 5.12 5.12s5.12-2.311 5.12-5.12c0-14.044 11.556-25.6 25.6-25.6s25.6 11.556 25.6 25.6c0 2.809 2.311 5.12 5.12 5.12s5.12-2.311 5.12-5.12c0-19.661-16.179-35.84-35.84-35.84z"
         fill-rule="nonzero"
         style="fill:#2b73d2;fill-opacity:1" /><g
         id="g1376"><circle
           id="circle1372"
           cx="97.28"
           cy="25.6"
           r="5.12"
           style="fill:#2b73d2;fill-opacity:1" /><path
           id="path1374"
           d="m97.28 35.84c-2.809 0-5.12 2.311-5.12 5.12v25.6c0 2.809 2.311 5.12 5.12 5.12s5.12-2.311 5.12-5.12v-25.6c0-2.809-2.311-5.12-5.12-5.12z"
           fill-rule="nonzero"
           style="fill:#2b73d2;fill-opacity:1" /></g></g></g></svg>
