<?xml version="1.0" encoding="UTF-8" standalone="no"?>
<svg
   xmlns:dc="http://purl.org/dc/elements/1.1/"
   xmlns:cc="http://creativecommons.org/ns#"
   xmlns:rdf="http://www.w3.org/1999/02/22-rdf-syntax-ns#"
   xmlns:svg="http://www.w3.org/2000/svg"
   xmlns="http://www.w3.org/2000/svg"
   xmlns:sodipodi="http://sodipodi.sourceforge.net/DTD/sodipodi-0.dtd"
   xmlns:inkscape="http://www.inkscape.org/namespaces/inkscape"
   viewBox="0 0 24 24"
   version="1.1"
   id="svg9298"
   sodipodi:docname="options-outline.svg"
   inkscape:version="1.0.1 (c497b03c, 2020-09-10)">
  <metadata
     id="metadata9304">
    <rdf:RDF>
      <cc:Work
         rdf:about="">
        <dc:format>image/svg+xml</dc:format>
        <dc:type
           rdf:resource="http://purl.org/dc/dcmitype/StillImage" />
      </cc:Work>
    </rdf:RDF>
  </metadata>
  <defs
     id="defs9302" />
  <sodipodi:namedview
     pagecolor="#ffffff"
     bordercolor="#666666"
     borderopacity="1"
     objecttolerance="10"
     gridtolerance="10"
     guidetolerance="10"
     inkscape:pageopacity="0"
     inkscape:pageshadow="2"
     inkscape:window-width="860"
     inkscape:window-height="480"
     id="namedview9300"
     showgrid="false"
     inkscape:zoom="9.8333333"
     inkscape:cx="12"
     inkscape:cy="12"
     inkscape:window-x="0"
     inkscape:window-y="23"
     inkscape:window-maximized="0"
     inkscape:current-layer="svg9298" />
  <g
     data-name="Layer 2"
     id="g9296">
    <g
       data-name="options"
       id="g9294">
      <rect
         width="24"
         height="24"
         opacity="0"
         id="rect9286" />
      <path
         d="M7 14.18V3a1 1 0 0 0-2 0v11.18a3 3 0 0 0 0 5.64V21a1 1 0 0 0 2 0v-1.18a3 3 0 0 0 0-5.64zM6 18a1 1 0 1 1 1-1 1 1 0 0 1-1 1z"
         id="path9288"
         style="fill:#2b73d2;fill-opacity:1" />
      <path
         d="M21 13a3 3 0 0 0-2-2.82V3a1 1 0 0 0-2 0v7.18a3 3 0 0 0 0 5.64V21a1 1 0 0 0 2 0v-5.18A3 3 0 0 0 21 13zm-3 1a1 1 0 1 1 1-1 1 1 0 0 1-1 1z"
         id="path9290"
         style="fill:#2b73d2;fill-opacity:1" />
      <path
         d="M15 5a3 3 0 1 0-4 2.82V21a1 1 0 0 0 2 0V7.82A3 3 0 0 0 15 5zm-3 1a1 1 0 1 1 1-1 1 1 0 0 1-1 1z"
         id="path9292"
         style="fill:#2b73d2;fill-opacity:1" />
    </g>
  </g>
</svg>
