<?xml version="1.0" encoding="UTF-8" standalone="no"?>
<svg
   xmlns:dc="http://purl.org/dc/elements/1.1/"
   xmlns:cc="http://creativecommons.org/ns#"
   xmlns:rdf="http://www.w3.org/1999/02/22-rdf-syntax-ns#"
   xmlns:svg="http://www.w3.org/2000/svg"
   xmlns="http://www.w3.org/2000/svg"
   xmlns:sodipodi="http://sodipodi.sourceforge.net/DTD/sodipodi-0.dtd"
   xmlns:inkscape="http://www.inkscape.org/namespaces/inkscape"
   viewBox="0 0 24 24"
   version="1.1"
   id="svg9346"
   sodipodi:docname="paper-plane-outline.svg"
   inkscape:version="1.0.1 (c497b03c, 2020-09-10)">
  <metadata
     id="metadata9352">
    <rdf:RDF>
      <cc:Work
         rdf:about="">
        <dc:format>image/svg+xml</dc:format>
        <dc:type
           rdf:resource="http://purl.org/dc/dcmitype/StillImage" />
      </cc:Work>
    </rdf:RDF>
  </metadata>
  <defs
     id="defs9350" />
  <sodipodi:namedview
     pagecolor="#ffffff"
     bordercolor="#666666"
     borderopacity="1"
     objecttolerance="10"
     gridtolerance="10"
     guidetolerance="10"
     inkscape:pageopacity="0"
     inkscape:pageshadow="2"
     inkscape:window-width="860"
     inkscape:window-height="480"
     id="namedview9348"
     showgrid="false"
     inkscape:zoom="9.8333333"
     inkscape:cx="12"
     inkscape:cy="12"
     inkscape:window-x="0"
     inkscape:window-y="23"
     inkscape:window-maximized="0"
     inkscape:current-layer="svg9346" />
  <g
     data-name="Layer 2"
     id="g9344">
    <g
       data-name="paper-plane"
       id="g9342">
      <rect
         width="24"
         height="24"
         opacity="0"
         id="rect9338" />
      <path
         d="M21 4a1.31 1.31 0 0 0-.06-.27v-.09a1 1 0 0 0-.2-.3 1 1 0 0 0-.29-.19h-.09a.86.86 0 0 0-.31-.15H20a1 1 0 0 0-.3 0l-18 6a1 1 0 0 0 0 1.9l8.53 2.84 2.84 8.53a1 1 0 0 0 1.9 0l6-18A1 1 0 0 0 21 4zm-4.7 2.29l-5.57 5.57L5.16 10zM14 18.84l-1.86-5.57 5.57-5.57z"
         id="path9340"
         style="fill:#2b73d2;fill-opacity:1" />
    </g>
  </g>
</svg>
