<?xml version="1.0" encoding="UTF-8" standalone="no"?>
<svg
   xmlns:dc="http://purl.org/dc/elements/1.1/"
   xmlns:cc="http://creativecommons.org/ns#"
   xmlns:rdf="http://www.w3.org/1999/02/22-rdf-syntax-ns#"
   xmlns:svg="http://www.w3.org/2000/svg"
   xmlns="http://www.w3.org/2000/svg"
   xmlns:sodipodi="http://sodipodi.sourceforge.net/DTD/sodipodi-0.dtd"
   xmlns:inkscape="http://www.inkscape.org/namespaces/inkscape"
   viewBox="0 0 24 24"
   version="1.1"
   id="svg3790"
   sodipodi:docname="people.svg"
   inkscape:version="1.0.1 (c497b03c, 2020-09-10)">
  <metadata
     id="metadata3796">
    <rdf:RDF>
      <cc:Work
         rdf:about="">
        <dc:format>image/svg+xml</dc:format>
        <dc:type
           rdf:resource="http://purl.org/dc/dcmitype/StillImage" />
      </cc:Work>
    </rdf:RDF>
  </metadata>
  <defs
     id="defs3794" />
  <sodipodi:namedview
     pagecolor="#ffffff"
     bordercolor="#666666"
     borderopacity="1"
     objecttolerance="10"
     gridtolerance="10"
     guidetolerance="10"
     inkscape:pageopacity="0"
     inkscape:pageshadow="2"
     inkscape:window-width="860"
     inkscape:window-height="480"
     id="namedview3792"
     showgrid="false"
     inkscape:zoom="9.8333333"
     inkscape:cx="12"
     inkscape:cy="12"
     inkscape:window-x="0"
     inkscape:window-y="23"
     inkscape:window-maximized="0"
     inkscape:current-layer="svg3790" />
  <g
     data-name="Layer 2"
     id="g3788">
    <g
       data-name="people"
       id="g3786">
      <rect
         width="24"
         height="24"
         opacity="0"
         id="rect3778" />
      <path
         d="M9 11a4 4 0 1 0-4-4 4 4 0 0 0 4 4z"
         id="path3780"
         style="fill:#747474;fill-opacity:1" />
      <path
         d="M17 13a3 3 0 1 0-3-3 3 3 0 0 0 3 3z"
         id="path3782"
         style="fill:#747474;fill-opacity:1" />
      <path
         d="M21 20a1 1 0 0 0 1-1 5 5 0 0 0-8.06-3.95A7 7 0 0 0 2 20a1 1 0 0 0 1 1h12a1 1 0 0 0 1-1"
         id="path3784"
         style="fill:#747474;fill-opacity:1" />
    </g>
  </g>
</svg>
