<?xml version="1.0" encoding="UTF-8" standalone="no"?>
<svg
   xmlns:dc="http://purl.org/dc/elements/1.1/"
   xmlns:cc="http://creativecommons.org/ns#"
   xmlns:rdf="http://www.w3.org/1999/02/22-rdf-syntax-ns#"
   xmlns:svg="http://www.w3.org/2000/svg"
   xmlns="http://www.w3.org/2000/svg"
   xmlns:sodipodi="http://sodipodi.sourceforge.net/DTD/sodipodi-0.dtd"
   xmlns:inkscape="http://www.inkscape.org/namespaces/inkscape"
   viewBox="0 0 24 24"
   version="1.1"
   id="svg9748"
   sodipodi:docname="pin-outline.svg"
   inkscape:version="1.0.1 (c497b03c, 2020-09-10)">
  <metadata
     id="metadata9754">
    <rdf:RDF>
      <cc:Work
         rdf:about="">
        <dc:format>image/svg+xml</dc:format>
        <dc:type
           rdf:resource="http://purl.org/dc/dcmitype/StillImage" />
      </cc:Work>
    </rdf:RDF>
  </metadata>
  <defs
     id="defs9752" />
  <sodipodi:namedview
     pagecolor="#ffffff"
     bordercolor="#666666"
     borderopacity="1"
     objecttolerance="10"
     gridtolerance="10"
     guidetolerance="10"
     inkscape:pageopacity="0"
     inkscape:pageshadow="2"
     inkscape:window-width="860"
     inkscape:window-height="480"
     id="namedview9750"
     showgrid="false"
     inkscape:zoom="9.8333333"
     inkscape:cx="12"
     inkscape:cy="12"
     inkscape:window-x="0"
     inkscape:window-y="23"
     inkscape:window-maximized="0"
     inkscape:current-layer="svg9748" />
  <g
     data-name="Layer 2"
     id="g9746">
    <g
       data-name="pin"
       id="g9744">
      <rect
         width="24"
         height="24"
         opacity="0"
         id="rect9738" />
      <path
         d="M12 2a8 8 0 0 0-8 7.92c0 5.48 7.05 11.58 7.35 11.84a1 1 0 0 0 1.3 0C13 21.5 20 15.4 20 9.92A8 8 0 0 0 12 2zm0 17.65c-1.67-1.59-6-6-6-9.73a6 6 0 0 1 12 0c0 3.7-4.33 8.14-6 9.73z"
         id="path9740"
         style="fill:#2b73d2;fill-opacity:1" />
      <path
         d="M12 6a3.5 3.5 0 1 0 3.5 3.5A3.5 3.5 0 0 0 12 6zm0 5a1.5 1.5 0 1 1 1.5-1.5A1.5 1.5 0 0 1 12 11z"
         id="path9742"
         style="fill:#2b73d2;fill-opacity:1" />
    </g>
  </g>
</svg>
