<?xml version="1.0" encoding="UTF-8" standalone="no"?>
<svg
   xmlns:dc="http://purl.org/dc/elements/1.1/"
   xmlns:cc="http://creativecommons.org/ns#"
   xmlns:rdf="http://www.w3.org/1999/02/22-rdf-syntax-ns#"
   xmlns:svg="http://www.w3.org/2000/svg"
   xmlns="http://www.w3.org/2000/svg"
   xmlns:sodipodi="http://sodipodi.sourceforge.net/DTD/sodipodi-0.dtd"
   xmlns:inkscape="http://www.inkscape.org/namespaces/inkscape"
   width="24"
   height="24"
   viewBox="0 0 24 24"
   version="1.1"
   xml:space="preserve"
   style="clip-rule:evenodd;fill-rule:evenodd;stroke-linejoin:round;stroke-miterlimit:2"
   id="svg840"
   sodipodi:docname="pin3-outline.svg"
   inkscape:version="1.0.1 (c497b03c, 2020-09-10)"><metadata
     id="metadata846"><rdf:RDF><cc:Work
         rdf:about=""><dc:format>image/svg+xml</dc:format><dc:type
           rdf:resource="http://purl.org/dc/dcmitype/StillImage" /><dc:title /></cc:Work></rdf:RDF></metadata><defs
     id="defs844" /><sodipodi:namedview
     pagecolor="#ffffff"
     bordercolor="#666666"
     borderopacity="1"
     objecttolerance="10"
     gridtolerance="10"
     guidetolerance="10"
     inkscape:pageopacity="0"
     inkscape:pageshadow="2"
     inkscape:window-width="900"
     inkscape:window-height="480"
     id="namedview842"
     showgrid="false"
     inkscape:zoom="0.92549968"
     inkscape:cx="61.5"
     inkscape:cy="61.5"
     inkscape:window-x="0"
     inkscape:window-y="25"
     inkscape:window-maximized="0"
     inkscape:current-layer="svg840"
     inkscape:document-rotation="0" /><rect
     id="pin3-outline"
     x="0"
     y="0"
     width="24"
     height="24"
     style="fill:none;stroke-width:0.195312" /><g
     id="g836"
     transform="scale(0.1953125)"><rect
       x="0"
       y="0"
       width="122.88"
       height="122.88"
       style="fill-opacity:0"
       id="rect834" /></g><path
     d="M 8.7634768,13.82168 4.303711,18.281446 c -0.3849609,0.384961 -0.3849609,1.009961 0,1.394922 0.384961,0.384961 1.009961,0.384961 1.3949219,0 l 4.4597661,-4.459961 3.3125,3.312695 c 0.187695,0.189258 0.443554,0.295703 0.709961,0.295703 0.266601,0 0.522461,-0.106445 0.710156,-0.295703 0.189258,-0.187695 0.295703,-0.443555 0.295703,-0.709961 0,-0.266602 -0.106445,-0.522461 -0.295703,-0.710156 L 13.650977,15.869141 19.469922,10.05 C 20.192383,9.286719 20.160938,8.0648439 19.4,7.3400392 L 16.659961,4.6000001 C 15.940235,3.8708985 14.757032,3.8396485 14,4.5300782 L 8.1808596,10.349024 6.8910158,9.1089846 C 6.7027345,8.9208986 6.4470705,8.8150393 6.1808595,8.8150393 c -0.5507812,0 -1.0039063,0.453125 -1.0039063,1.0041015 0,0.2660152 0.1058594,0.5216802 0.2939454,0.7099612 z M 12.260938,14.439063 9.5410158,11.819141 15.269922,6.0000001 18,8.7300783 Z"
     style="fill-rule:nonzero;stroke-width:0.195312;fill:#fff;"
     id="path838" /></svg>
