<?xml version="1.0" encoding="UTF-8" standalone="no"?>
<svg
   xmlns:dc="http://purl.org/dc/elements/1.1/"
   xmlns:cc="http://creativecommons.org/ns#"
   xmlns:rdf="http://www.w3.org/1999/02/22-rdf-syntax-ns#"
   xmlns:svg="http://www.w3.org/2000/svg"
   xmlns="http://www.w3.org/2000/svg"
   xmlns:sodipodi="http://sodipodi.sourceforge.net/DTD/sodipodi-0.dtd"
   xmlns:inkscape="http://www.inkscape.org/namespaces/inkscape"
   width="100%"
   height="100%"
   viewBox="0 0 123 123"
   version="1.1"
   xml:space="preserve"
   style="fill-rule:evenodd;clip-rule:evenodd;stroke-linejoin:round;stroke-miterlimit:2;"
   id="svg898"
   sodipodi:docname="re-invite-outline.svg"
   inkscape:version="1.0.1 (c497b03c, 2020-09-10)"><metadata
     id="metadata904"><rdf:RDF><cc:Work
         rdf:about=""><dc:format>image/svg+xml</dc:format><dc:type
           rdf:resource="http://purl.org/dc/dcmitype/StillImage" /><dc:title /></cc:Work></rdf:RDF></metadata><defs
     id="defs902" /><sodipodi:namedview
     pagecolor="#ffffff"
     bordercolor="#666666"
     borderopacity="1"
     objecttolerance="10"
     gridtolerance="10"
     guidetolerance="10"
     inkscape:pageopacity="0"
     inkscape:pageshadow="2"
     inkscape:window-width="1721"
     inkscape:window-height="1127"
     id="namedview900"
     showgrid="false"
     inkscape:zoom="6"
     inkscape:cx="61.5"
     inkscape:cy="61.5"
     inkscape:window-x="0"
     inkscape:window-y="23"
     inkscape:window-maximized="0"
     inkscape:current-layer="svg898"
     inkscape:document-rotation="0" /><rect
     id="re-invite-outline"
     x="0"
     y="-0"
     width="122.88"
     height="122.88"
     style="fill:none;" /><g
     id="master"><rect
       id="ingombro"
       x="0"
       y="0"
       width="122.88"
       height="122.88"
       style="fill-opacity:0;" /><rect
       x="0"
       y="0"
       width="122.88"
       height="122.88"
       style="fill-opacity:0;"
       id="rect891" /><path
       d="M76.8,20.48l0,-5.12c0,-2.809 2.311,-5.12 5.12,-5.12c2.809,0 5.12,2.311 5.12,5.12l-0,5.12l5.12,-0c8.426,-0 15.36,6.934 15.36,15.36l-0,61.44c-0,8.426 -6.934,15.36 -15.36,15.36l-61.44,-0c-8.426,-0 -15.36,-6.934 -15.36,-15.36l-0,-61.44c-0,-8.426 6.934,-15.36 15.36,-15.36l5.12,-0l-0,-5.12c0.004,-0.619 0.113,-1.232 0.335,-1.811c0.588,-1.536 1.919,-2.733 3.512,-3.147c0.5,-0.13 1.019,-0.182 1.535,-0.155c0.571,0.029 1.136,0.156 1.665,0.374c0.611,0.251 1.17,0.621 1.642,1.082c0.98,0.957 1.551,2.287 1.551,3.657c0,1.707 -0,3.413 -0,5.12l30.72,-0Zm15.36,81.92c2.809,-0 5.12,-2.311 5.12,-5.12l-0,-61.44c-0,-2.809 -2.311,-5.12 -5.12,-5.12l-5.12,-0l-0,5.12c-0,2.809 -2.311,5.12 -5.12,5.12c-2.809,-0 -5.12,-2.311 -5.12,-5.12l0,-5.12l-30.72,-0l0,5.12c0,2.809 -2.311,5.12 -5.12,5.12c-2.809,-0 -5.12,-2.311 -5.12,-5.12l-0,-5.12l-5.12,-0c-2.809,-0 -5.12,2.311 -5.12,5.12l-0,61.44c0.004,0.577 0.098,1.149 0.291,1.694c0.522,1.468 1.72,2.652 3.194,3.155c0.527,0.18 1.079,0.267 1.635,0.271l61.44,-0Z"
       style="fill-rule:nonzero;fill:#2b6ed2;fill-opacity:1"
       id="path893" /></g><path
     d="M77.99,70.579c0.461,-0.471 0.826,-1.028 1.075,-1.638c0.269,-0.631 0.409,-1.311 0.41,-1.997l-0,-0.512c-0.024,-0.475 -0.127,-0.942 -0.307,-1.382c-0.137,-0.351 -0.327,-0.679 -0.564,-0.973c-0.135,-0.234 -0.289,-0.456 -0.46,-0.666l-10.397,-11.113c-0.967,-1.016 -2.31,-1.592 -3.712,-1.592c-2.811,0 -5.125,2.313 -5.125,5.125c0,1.314 0.506,2.58 1.413,3.532l2.051,2.461l-13.849,0c-2.809,0 -5.12,2.311 -5.12,5.12c0,2.809 2.311,5.12 5.12,5.12l13.491,0l-1.616,1.565c-0.969,0.961 -1.515,2.271 -1.515,3.635c0,1.365 0.546,2.674 1.515,3.635c0.961,0.969 2.27,1.515 3.635,1.515c1.364,-0 2.674,-0.546 3.635,-1.515l10.32,-10.32Z"
     style="fill-rule:nonzero;fill:#2b6ed2;fill-opacity:1"
     id="path896" /></svg>
