<?xml version="1.0" encoding="UTF-8" standalone="no"?>
<svg
   xmlns:serif="http://www.serif.com/"
   xmlns:dc="http://purl.org/dc/elements/1.1/"
   xmlns:cc="http://creativecommons.org/ns#"
   xmlns:rdf="http://www.w3.org/1999/02/22-rdf-syntax-ns#"
   xmlns:svg="http://www.w3.org/2000/svg"
   xmlns="http://www.w3.org/2000/svg"
   xmlns:sodipodi="http://sodipodi.sourceforge.net/DTD/sodipodi-0.dtd"
   xmlns:inkscape="http://www.inkscape.org/namespaces/inkscape"
   id="svg25"
   clip-rule="evenodd"
   fill-rule="evenodd"
   stroke-linejoin="round"
   stroke-miterlimit="2"
   version="1.1"
   viewBox="0 0 123 123"
   xml:space="preserve"
   sodipodi:docname="redirect-outline.svg"
   inkscape:version="1.0.1 (c497b03c, 2020-09-10)"><defs
     id="defs10150" /><sodipodi:namedview
     pagecolor="#ffffff"
     bordercolor="#666666"
     borderopacity="1"
     objecttolerance="10"
     gridtolerance="10"
     guidetolerance="10"
     inkscape:pageopacity="0"
     inkscape:pageshadow="2"
     inkscape:window-width="860"
     inkscape:window-height="480"
     id="namedview10148"
     showgrid="false"
     inkscape:zoom="1.9186992"
     inkscape:cx="61.5"
     inkscape:cy="61.5"
     inkscape:window-x="0"
     inkscape:window-y="23"
     inkscape:window-maximized="0"
     inkscape:current-layer="svg25" /><metadata
     id="metadata31"><rdf:RDF><cc:Work
         rdf:about=""><dc:format>image/svg+xml</dc:format><dc:type
           rdf:resource="http://purl.org/dc/dcmitype/StillImage" /><dc:title /></cc:Work></rdf:RDF></metadata><rect
     id="redirect-outline"
     width="122.88"
     height="122.88"
     fill="none" /><clipPath
     id="_clip1"><rect
       id="redirect-outline1"
       width="122.88"
       height="122.88"
       serif:id="redirect-outline" /></clipPath><g
     id="g23"
     clip-path="url(#_clip1)"><g
       id="g17"><path
         id="path13"
         d="m0 0h122.88v122.88"
         fill-opacity="0" /><path
         id="path15"
         d="m28.672 107.52h65.536c7.546-0.276 13.541-6.686 13.312-14.234v-6.246c0-2.809-2.311-5.12-5.12-5.12s-5.12 2.311-5.12 5.12v6.246c0.186 1.922-1.167 3.681-3.072 3.994h-65.536c-1.905-0.313-3.258-2.072-3.072-3.994v-63.692c-0.186-1.922 1.167-3.681 3.072-3.994h7.168c2.809 0 5.12-2.311 5.12-5.12s-2.311-5.12-5.12-5.12h-7.168c-7.546 0.276-13.541 6.686-13.312 14.234v63.692c-0.229 7.548 5.766 13.958 13.312 14.234z"
         fill-rule="nonzero"
         style="fill:#2b73d2;fill-opacity:1" /></g><g
       id="g21"><path
         id="path19"
         d="m106.43 42.566-20.48-25.6c-0.967-1.025-2.314-1.606-3.723-1.606-2.809 0-5.12 2.311-5.12 5.12 0 1.008 0.298 1.995 0.856 2.834l13.824 17.306h-30.55c-8.427 0-15.36 6.934-15.36 15.36v26.56c0 2.809 2.311 5.12 5.12 5.12 2.808 0 5.12-2.311 5.12-5.12v-26.56c0-2.809 2.311-5.12 5.12-5.12h30.55l-13.824 17.306c-1.731 2.194-1.362 5.421 0.819 7.168 0.901 0.722 2.02 1.119 3.175 1.126 1.557-7e-3 3.028-0.724 3.993-1.946l20.48-25.6c1.466-1.854 1.466-4.494 0-6.348z"
         fill-rule="nonzero"
         style="fill:#2b73d2;fill-opacity:1" /></g></g></svg>
