<?xml version="1.0" encoding="UTF-8" standalone="no"?>
<svg
   xmlns:dc="http://purl.org/dc/elements/1.1/"
   xmlns:cc="http://creativecommons.org/ns#"
   xmlns:rdf="http://www.w3.org/1999/02/22-rdf-syntax-ns#"
   xmlns:svg="http://www.w3.org/2000/svg"
   xmlns="http://www.w3.org/2000/svg"
   xmlns:sodipodi="http://sodipodi.sourceforge.net/DTD/sodipodi-0.dtd"
   xmlns:inkscape="http://www.inkscape.org/namespaces/inkscape"
   viewBox="0 0 24 24"
   version="1.1"
   id="svg4533"
   sodipodi:docname="refresh.svg"
   inkscape:version="1.0.1 (c497b03c, 2020-09-10)">
  <metadata
     id="metadata4539">
    <rdf:RDF>
      <cc:Work
         rdf:about="">
        <dc:format>image/svg+xml</dc:format>
        <dc:type
           rdf:resource="http://purl.org/dc/dcmitype/StillImage" />
      </cc:Work>
    </rdf:RDF>
  </metadata>
  <defs
     id="defs4537" />
  <sodipodi:namedview
     pagecolor="#ffffff"
     bordercolor="#666666"
     borderopacity="1"
     objecttolerance="10"
     gridtolerance="10"
     guidetolerance="10"
     inkscape:pageopacity="0"
     inkscape:pageshadow="2"
     inkscape:window-width="860"
     inkscape:window-height="480"
     id="namedview4535"
     showgrid="false"
     inkscape:zoom="9.8333333"
     inkscape:cx="12"
     inkscape:cy="12"
     inkscape:window-x="0"
     inkscape:window-y="23"
     inkscape:window-maximized="0"
     inkscape:current-layer="svg4533" />
  <g
     data-name="Layer 2"
     id="g4531">
    <g
       data-name="refresh"
       id="g4529">
      <rect
         width="24"
         height="24"
         opacity="0"
         id="rect4525" />
      <path
         d="M20.3 13.43a1 1 0 0 0-1.25.65A7.14 7.14 0 0 1 12.18 19 7.1 7.1 0 0 1 5 12a7.1 7.1 0 0 1 7.18-7 7.26 7.26 0 0 1 4.65 1.67l-2.17-.36a1 1 0 0 0-1.15.83 1 1 0 0 0 .83 1.15l4.24.7h.17a1 1 0 0 0 .34-.06.33.33 0 0 0 .1-.06.78.78 0 0 0 .2-.11l.09-.11c0-.05.09-.09.13-.15s0-.1.05-.14a1.34 1.34 0 0 0 .07-.18l.75-4a1 1 0 0 0-2-.38l-.27 1.45A9.21 9.21 0 0 0 12.18 3 9.1 9.1 0 0 0 3 12a9.1 9.1 0 0 0 9.18 9A9.12 9.12 0 0 0 21 14.68a1 1 0 0 0-.7-1.25z"
         id="path4527"
         style="fill:#2b73d2;fill-opacity:1" />
    </g>
  </g>
</svg>
