<?xml version="1.0" encoding="UTF-8" standalone="no"?>
<svg
   xmlns:dc="http://purl.org/dc/elements/1.1/"
   xmlns:cc="http://creativecommons.org/ns#"
   xmlns:rdf="http://www.w3.org/1999/02/22-rdf-syntax-ns#"
   xmlns:svg="http://www.w3.org/2000/svg"
   xmlns="http://www.w3.org/2000/svg"
   xmlns:sodipodi="http://sodipodi.sourceforge.net/DTD/sodipodi-0.dtd"
   xmlns:inkscape="http://www.inkscape.org/namespaces/inkscape"
   viewBox="0 0 24 24"
   version="1.1"
   id="svg10194"
   sodipodi:docname="repeat-outline.svg"
   inkscape:version="1.0.1 (c497b03c, 2020-09-10)">
  <metadata
     id="metadata10200">
    <rdf:RDF>
      <cc:Work
         rdf:about="">
        <dc:format>image/svg+xml</dc:format>
        <dc:type
           rdf:resource="http://purl.org/dc/dcmitype/StillImage" />
      </cc:Work>
    </rdf:RDF>
  </metadata>
  <defs
     id="defs10198" />
  <sodipodi:namedview
     pagecolor="#ffffff"
     bordercolor="#666666"
     borderopacity="1"
     objecttolerance="10"
     gridtolerance="10"
     guidetolerance="10"
     inkscape:pageopacity="0"
     inkscape:pageshadow="2"
     inkscape:window-width="860"
     inkscape:window-height="480"
     id="namedview10196"
     showgrid="false"
     inkscape:zoom="9.8333333"
     inkscape:cx="12"
     inkscape:cy="12"
     inkscape:window-x="0"
     inkscape:window-y="23"
     inkscape:window-maximized="0"
     inkscape:current-layer="svg10194" />
  <g
     data-name="Layer 2"
     id="g10192">
    <g
       data-name="repeat"
       id="g10190">
      <rect
         width="24"
         height="24"
         opacity="0"
         id="rect10184" />
      <path
         d="M17.91 5h-12l1.3-1.29a1 1 0 0 0-1.42-1.42l-3 3a1 1 0 0 0 0 1.42l3 3a1 1 0 0 0 1.42 0 1 1 0 0 0 0-1.42L5.91 7h12a1.56 1.56 0 0 1 1.59 1.53V11a1 1 0 0 0 2 0V8.53A3.56 3.56 0 0 0 17.91 5z"
         id="path10186"
         style="fill:#2b73d2;fill-opacity:1" />
      <path
         d="M18.21 14.29a1 1 0 0 0-1.42 1.42l1.3 1.29h-12a1.56 1.56 0 0 1-1.59-1.53V13a1 1 0 0 0-2 0v2.47A3.56 3.56 0 0 0 6.09 19h12l-1.3 1.29a1 1 0 0 0 0 1.42 1 1 0 0 0 1.42 0l3-3a1 1 0 0 0 0-1.42z"
         id="path10188"
         style="fill:#2b73d2;fill-opacity:1" />
    </g>
  </g>
</svg>
