<?xml version="1.0" encoding="utf-8"?>
<!-- Generator: Adobe Illustrator 23.1.1, SVG Export Plug-In . SVG Version: 6.00 Build 0)  -->
<svg version="1.1" id="Livello_1" xmlns:serif="http://www.serif.com/"
	 xmlns="http://www.w3.org/2000/svg" xmlns:xlink="http://www.w3.org/1999/xlink" x="0px" y="0px" viewBox="0 0 595.3 595.3"
	 style="enable-background:new 0 0 595.3 595.3;" xml:space="preserve" fill="#2b73d2">
<style type="text/css">
	.st0{fill-rule:evenodd;clip-rule:evenodd;fill-opacity:0;}
</style>
<g>
	<path class="st0" d="M0,0v595.3h595.3V0H0z"/>
	<path d="M551.1,520.9c-11.6,0.3-22-7.5-24.8-18.9c-22.8-90.5-100.6-157.2-193.5-165.9v27.8c0,17.7-10.7,33.8-27,40.7
		c-17.7,8.1-38.6,5.1-53.3-7.7L127,287.5c-9.7-8.3-15.4-20.5-15.4-33.2s5.6-25,15.4-33.2l125.5-109.6c14.9-13,36.2-16,54.1-7.4
		c16.3,6.9,27,22.9,27,40.7v29c138.9,10.7,247.9,127.3,249.3,266.6c0,20.8-2.6,41.6-7.7,61.8c-2.8,11.3-13.2,19.2-24.8,18.9H551.1
		L551.1,520.9z"/>
	<path d="M210.8,402.5c-1.4,0.7-2.8,1.4-4.2,2c-17.7,8.1-38.6,5.1-53.3-7.7L27.8,287.5c-9.7-8.3-15.4-20.5-15.4-33.2
		c0-12.8,5.6-25,15.4-33.2l125.5-109.6c14.9-13,36.2-16,54.1-7.4c1.2,0.5,2.4,1.1,3.6,1.7c-2.9,1.6-5.6,3.5-8.1,5.7L77.4,221
		c-9.7,8.3-15.4,20.5-15.4,33.2c0,12.8,5.6,25,15.4,33.2l125.5,109.4C205.4,399,208,400.9,210.8,402.5L210.8,402.5z"/>
</g>
</svg>
