<?xml version="1.0" encoding="UTF-8" standalone="no"?>
<svg
   xmlns:dc="http://purl.org/dc/elements/1.1/"
   xmlns:cc="http://creativecommons.org/ns#"
   xmlns:rdf="http://www.w3.org/1999/02/22-rdf-syntax-ns#"
   xmlns:svg="http://www.w3.org/2000/svg"
   xmlns="http://www.w3.org/2000/svg"
   xmlns:sodipodi="http://sodipodi.sourceforge.net/DTD/sodipodi-0.dtd"
   xmlns:inkscape="http://www.inkscape.org/namespaces/inkscape"
   viewBox="0 0 24 24"
   version="1.1"
   id="svg4632"
   sodipodi:docname="rewind-left.svg"
   inkscape:version="1.0.1 (c497b03c, 2020-09-10)">
  <metadata
     id="metadata4638">
    <rdf:RDF>
      <cc:Work
         rdf:about="">
        <dc:format>image/svg+xml</dc:format>
        <dc:type
           rdf:resource="http://purl.org/dc/dcmitype/StillImage" />
      </cc:Work>
    </rdf:RDF>
  </metadata>
  <defs
     id="defs4636" />
  <sodipodi:namedview
     pagecolor="#ffffff"
     bordercolor="#666666"
     borderopacity="1"
     objecttolerance="10"
     gridtolerance="10"
     guidetolerance="10"
     inkscape:pageopacity="0"
     inkscape:pageshadow="2"
     inkscape:window-width="860"
     inkscape:window-height="480"
     id="namedview4634"
     showgrid="false"
     inkscape:zoom="9.8333333"
     inkscape:cx="12"
     inkscape:cy="12"
     inkscape:window-x="0"
     inkscape:window-y="23"
     inkscape:window-maximized="0"
     inkscape:current-layer="svg4632" />
  <g
     data-name="Layer 2"
     id="g4630">
    <g
       data-name="rewind-left"
       id="g4628">
      <rect
         width="24"
         height="24"
         transform="rotate(180 12 12)"
         opacity="0"
         id="rect4624" />
      <path
         d="M18.45 6.2a2.1 2.1 0 0 0-2.21.26l-4.74 3.92V7.79a1.76 1.76 0 0 0-1.05-1.59 2.1 2.1 0 0 0-2.21.26l-5.1 4.21a1.7 1.7 0 0 0 0 2.66l5.1 4.21a2.06 2.06 0 0 0 1.3.46 2.23 2.23 0 0 0 .91-.2 1.76 1.76 0 0 0 1.05-1.59v-2.59l4.74 3.92a2.06 2.06 0 0 0 1.3.46 2.23 2.23 0 0 0 .91-.2 1.76 1.76 0 0 0 1.05-1.59V7.79a1.76 1.76 0 0 0-1.05-1.59z"
         id="path4626"
         style="fill:#333;fill-opacity:1" />
    </g>
  </g>
</svg>
