<?xml version="1.0" encoding="UTF-8" standalone="no"?>
<svg
   xmlns:dc="http://purl.org/dc/elements/1.1/"
   xmlns:cc="http://creativecommons.org/ns#"
   xmlns:rdf="http://www.w3.org/1999/02/22-rdf-syntax-ns#"
   xmlns:svg="http://www.w3.org/2000/svg"
   xmlns="http://www.w3.org/2000/svg"
   xmlns:sodipodi="http://sodipodi.sourceforge.net/DTD/sodipodi-0.dtd"
   xmlns:inkscape="http://www.inkscape.org/namespaces/inkscape"
   id="svg1308"
   clip-rule="evenodd"
   fill-rule="evenodd"
   stroke-linejoin="round"
   stroke-miterlimit="2"
   version="1.1"
   viewBox="0 0 123 123"
   xml:space="preserve"
   sodipodi:docname="rss.svg"
   inkscape:version="1.0.1 (c497b03c, 2020-09-10)"><defs
     id="defs4680" /><sodipodi:namedview
     pagecolor="#ffffff"
     bordercolor="#666666"
     borderopacity="1"
     objecttolerance="10"
     gridtolerance="10"
     guidetolerance="10"
     inkscape:pageopacity="0"
     inkscape:pageshadow="2"
     inkscape:window-width="860"
     inkscape:window-height="480"
     id="namedview4678"
     showgrid="false"
     inkscape:zoom="1.9186992"
     inkscape:cx="61.5"
     inkscape:cy="61.5"
     inkscape:window-x="0"
     inkscape:window-y="23"
     inkscape:window-maximized="0"
     inkscape:current-layer="svg1308" /><metadata
     id="metadata1314"><rdf:RDF><cc:Work
         rdf:about=""><dc:format>image/svg+xml</dc:format><dc:type
           rdf:resource="http://purl.org/dc/dcmitype/StillImage" /><dc:title /></cc:Work></rdf:RDF></metadata><rect
     id="rss"
     width="122.88"
     height="122.88"
     fill="none" /><g
     id="master"><rect
       id="ingombro"
       width="122.88"
       height="122.88"
       fill-opacity="0" /><path
       id="path1305"
       d="m92.16 107.52h-61.44c-8.426-0-15.36-6.934-15.36-15.36v-61.44c-0-8.426 6.934-15.36 15.36-15.36h61.44c8.426-0 15.36 6.934 15.36 15.36v61.44c-0 8.426-6.934 15.36-15.36 15.36zm-52.011-73.849c-2.542 0.355-4.453 2.553-4.453 5.12-0 2.836 2.333 5.169 5.17 5.169 0.239 0 0.479-0.016 0.716-0.049 9.574-1.348 19.243 1.9 26.061 8.755 7.995 7.935 11.009 19.656 7.834 30.464-0.155 0.494-0.234 1.009-0.234 1.527 0 2.28 1.523 4.298 3.715 4.924 0.475 0.075 0.959 0.075 1.434-0 2.343 0.093 4.465-1.435 5.12-3.686 1.13-3.795 1.704-7.733 1.704-11.692-0-22.47-18.49-40.96-40.96-40.96-1.975-0-3.948 0.143-5.902 0.428h-0.205zm-0 20.07c1.068-0.15 2.146-0.226 3.225-0.226 12.696 0 23.143 10.447 23.143 23.142-0 3.406-0.752 6.77-2.202 9.852-0.838 1.812-2.663 2.974-4.659 2.97-0.741-6e-3 -1.473-0.163-2.15-0.461-2.542-1.194-3.651-4.268-2.458-6.81 2.26-4.903 1.214-10.73-2.611-14.541-2.829-2.875-6.86-4.245-10.855-3.686-2.765 0.427-5.394-1.487-5.836-4.25-0.055-0.3-0.082-0.605-0.082-0.91 0-2.569 1.935-4.761 4.485-5.08zm0.717 20.48c2.825-0 5.12 2.294 5.12 5.12s-2.295 5.12-5.12 5.12c-2.826-0-5.12-2.294-5.12-5.12s2.294-5.12 5.12-5.12z"
       style="fill:#747474;fill-opacity:1" /></g></svg>
