<?xml version="1.0" encoding="UTF-8" standalone="no"?>
<svg
   xmlns:dc="http://purl.org/dc/elements/1.1/"
   xmlns:cc="http://creativecommons.org/ns#"
   xmlns:rdf="http://www.w3.org/1999/02/22-rdf-syntax-ns#"
   xmlns:svg="http://www.w3.org/2000/svg"
   xmlns="http://www.w3.org/2000/svg"
   xmlns:sodipodi="http://sodipodi.sourceforge.net/DTD/sodipodi-0.dtd"
   xmlns:inkscape="http://www.inkscape.org/namespaces/inkscape"
   width="100%"
   height="100%"
   viewBox="0 0 123 123"
   version="1.1"
   xml:space="preserve"
   style="fill-rule:evenodd;clip-rule:evenodd;stroke-linejoin:round;stroke-miterlimit:2;"
   id="svg4825"
   sodipodi:docname="search-folder.svg"
   inkscape:version="1.0.1 (c497b03c, 2020-09-10)"><metadata
     id="metadata4831"><rdf:RDF><cc:Work
         rdf:about=""><dc:format>image/svg+xml</dc:format><dc:type
           rdf:resource="http://purl.org/dc/dcmitype/StillImage" /></cc:Work></rdf:RDF></metadata><defs
     id="defs4829" /><sodipodi:namedview
     pagecolor="#ffffff"
     bordercolor="#666666"
     borderopacity="1"
     objecttolerance="10"
     gridtolerance="10"
     guidetolerance="10"
     inkscape:pageopacity="0"
     inkscape:pageshadow="2"
     inkscape:window-width="860"
     inkscape:window-height="480"
     id="namedview4827"
     showgrid="false"
     inkscape:zoom="1.9186992"
     inkscape:cx="61.5"
     inkscape:cy="61.5"
     inkscape:window-x="0"
     inkscape:window-y="23"
     inkscape:window-maximized="0"
     inkscape:current-layer="svg4825" /><rect
     id="search-folder"
     x="0"
     y="-0"
     width="122.88"
     height="122.88"
     style="fill:none;" /><g
     id="master"><rect
       x="0"
       y="0"
       width="122.88"
       height="122.88"
       style="fill-opacity:0;"
       id="rect4820" /><path
       d="M99.84,104.96l-76.8,-0c-7.168,-0 -12.8,-5.632 -12.8,-12.288l-0,-62.464c-0,-7.168 5.632,-12.288 12.8,-12.288l23.552,-0c1.536,-0 3.072,0.512 4.096,2.048l13.312,16.384l35.84,-0c7.168,-0 12.8,5.12 12.8,12.288l-0,44.032c-0,6.656 -5.632,12.288 -12.8,12.288Zm-34.183,-24.197c-2.036,0.997 -4.324,1.557 -6.742,1.557c-8.477,-0 -15.36,-6.883 -15.36,-15.36c0,-8.477 6.883,-15.36 15.36,-15.36c8.478,-0 15.36,6.883 15.36,15.36c0,2.375 -0.54,4.626 -1.504,6.634l5.075,5.075c1.971,1.971 1.971,5.171 0,7.142c-1.97,1.971 -5.171,1.971 -7.141,-0l-5.048,-5.048Zm-6.742,-18.893c2.81,0 5.09,2.281 5.09,5.09c0,2.809 -2.28,5.09 -5.09,5.09c-2.809,-0 -5.089,-2.281 -5.089,-5.09c-0,-2.809 2.28,-5.09 5.089,-5.09Z"
       id="path4822"
       style="fill:#747474;fill-opacity:1" /></g></svg>
