<?xml version="1.0" encoding="UTF-8" standalone="no"?>
<svg
   xmlns:dc="http://purl.org/dc/elements/1.1/"
   xmlns:cc="http://creativecommons.org/ns#"
   xmlns:rdf="http://www.w3.org/1999/02/22-rdf-syntax-ns#"
   xmlns:svg="http://www.w3.org/2000/svg"
   xmlns="http://www.w3.org/2000/svg"
   xmlns:sodipodi="http://sodipodi.sourceforge.net/DTD/sodipodi-0.dtd"
   xmlns:inkscape="http://www.inkscape.org/namespaces/inkscape"
   id="svg628"
   clip-rule="evenodd"
   fill-rule="evenodd"
   stroke-linejoin="round"
   stroke-miterlimit="2"
   version="1.1"
   viewBox="0 0 123 123"
   xml:space="preserve"
   sodipodi:docname="send-delayed-outline.svg"
   inkscape:version="1.0.1 (c497b03c, 2020-09-10)"><defs
     id="defs10490" /><sodipodi:namedview
     pagecolor="#ffffff"
     bordercolor="#666666"
     borderopacity="1"
     objecttolerance="10"
     gridtolerance="10"
     guidetolerance="10"
     inkscape:pageopacity="0"
     inkscape:pageshadow="2"
     inkscape:window-width="860"
     inkscape:window-height="480"
     id="namedview10488"
     showgrid="false"
     inkscape:zoom="1.9186992"
     inkscape:cx="61.5"
     inkscape:cy="61.5"
     inkscape:window-x="0"
     inkscape:window-y="23"
     inkscape:window-maximized="0"
     inkscape:current-layer="svg628" /><metadata
     id="metadata634"><rdf:RDF><cc:Work
         rdf:about=""><dc:format>image/svg+xml</dc:format><dc:type
           rdf:resource="http://purl.org/dc/dcmitype/StillImage" /><dc:title /></cc:Work></rdf:RDF></metadata><rect
     id="send-delayed-outline"
     width="122.88"
     height="122.88"
     fill="none" /><g
     id="g616"><path
       id="path614"
       d="m122.88 122.88v-122.88h-122.88v122.88h122.88z"
       fill-opacity="0" /></g><g
     id="g622"><g
       id="g620"><path
         id="path618"
         d="m81.28 61.44c0-16.677-13.723-30.4-30.4-30.4s-30.4 13.723-30.4 30.4 13.723 30.4 30.4 30.4 30.4-13.723 30.4-30.4zm-10 0c0 11.191-9.209 20.4-20.4 20.4s-20.4-9.209-20.4-20.4 9.209-20.4 20.4-20.4 20.4 9.209 20.4 20.4z"
         style="fill:#2b73d2;fill-opacity:1" /></g></g><path
     id="path624"
     d="m59.08 56.592h-3.12v-5.424c0-2.809-2.312-5.12-5.12-5.12-2.809 0-5.12 2.311-5.12 5.12v10.544c0 2.809 2.311 5.12 5.12 5.12h8.24c2.808 0 5.12-2.311 5.12-5.12 0-2.808-2.312-5.12-5.12-5.12z"
     fill-rule="nonzero"
     style="fill:#2b73d2;fill-opacity:1" /><path
     id="path626"
     d="m27.904 106.96c-0.493 0.246-1.02 0.415-1.566 0.494-1.581 0.23-3.222-0.308-4.355-1.436-0.364-0.362-0.672-0.779-0.911-1.233-0.278-0.526-0.462-1.099-0.544-1.688-0.083-0.6-0.064-1.218 0.07-1.81 0.138-0.61 0.396-1.186 0.752-1.7l7.113-10.748c5.486 4.495 12.345 7.377 19.851 7.916l-20.41 10.205zm20.41-80.829c-7.506 0.539-14.366 3.421-19.851 7.916l-7.113-10.748c-0.23-0.361-0.417-0.747-0.553-1.154-0.344-1.03-0.35-2.162-0.012-3.195 0.148-0.453 0.361-0.884 0.628-1.279 0.312-0.459 0.697-0.868 1.137-1.206 0.459-0.353 0.978-0.628 1.529-0.809 0.577-0.189 1.187-0.272 1.794-0.246 0.706 0.03 1.395 0.211 2.031 0.516l20.41 10.205zm61.51 30.755c0.511 0.265 0.976 0.61 1.373 1.027 1.015 1.067 1.53 2.554 1.389 4.021-0.046 0.48-0.162 0.954-0.34 1.403-0.215 0.538-0.521 1.039-0.903 1.475-0.426 0.489-0.943 0.89-1.519 1.188l-29.16 14.58c3.556-5.519 5.62-12.089 5.62-19.137s-2.064-13.618-5.62-19.137l29.16 14.58z"
     fill-rule="nonzero"
     style="fill:#2b73d2;fill-opacity:1" /></svg>
