<?xml version="1.0" encoding="UTF-8" standalone="no"?>
<svg
   xmlns:dc="http://purl.org/dc/elements/1.1/"
   xmlns:cc="http://creativecommons.org/ns#"
   xmlns:rdf="http://www.w3.org/1999/02/22-rdf-syntax-ns#"
   xmlns:svg="http://www.w3.org/2000/svg"
   xmlns="http://www.w3.org/2000/svg"
   xmlns:sodipodi="http://sodipodi.sourceforge.net/DTD/sodipodi-0.dtd"
   xmlns:inkscape="http://www.inkscape.org/namespaces/inkscape"
   width="100%"
   height="100%"
   viewBox="0 0 123 123"
   version="1.1"
   xml:space="preserve"
   style="fill-rule:evenodd;clip-rule:evenodd;stroke-linejoin:round;stroke-miterlimit:2;"
   id="svg10679"
   sodipodi:docname="shared-folder-outline.svg"
   inkscape:version="1.0.1 (c497b03c, 2020-09-10)"><metadata
     id="metadata10685"><rdf:RDF><cc:Work
         rdf:about=""><dc:format>image/svg+xml</dc:format><dc:type
           rdf:resource="http://purl.org/dc/dcmitype/StillImage" /></cc:Work></rdf:RDF></metadata><defs
     id="defs10683" /><sodipodi:namedview
     pagecolor="#ffffff"
     bordercolor="#666666"
     borderopacity="1"
     objecttolerance="10"
     gridtolerance="10"
     guidetolerance="10"
     inkscape:pageopacity="0"
     inkscape:pageshadow="2"
     inkscape:window-width="860"
     inkscape:window-height="480"
     id="namedview10681"
     showgrid="false"
     inkscape:zoom="1.9186992"
     inkscape:cx="61.5"
     inkscape:cy="61.5"
     inkscape:window-x="0"
     inkscape:window-y="23"
     inkscape:window-maximized="0"
     inkscape:current-layer="svg10679" /><rect
     id="shared-folder-outline"
     x="0"
     y="-0"
     width="122.88"
     height="122.88"
     style="fill:none;" /><rect
     x="0"
     y="0"
     width="122.88"
     height="122.88"
     style="fill-opacity:0;"
     id="rect10675" /><path
     d="M99.84,36.096c6.919,-0.085 12.688,5.523 12.8,12.442l-0,43.98c-0.112,6.919 -5.881,12.527 -12.8,12.442l-76.8,-0c-6.919,0.085 -12.688,-5.523 -12.8,-12.442l-0,-62.156c0.112,-6.919 5.881,-12.527 12.8,-12.442l23.552,-0c1.53,0.01 2.978,0.706 3.942,1.894l10.466,12.654c-2.87,2.361 -4.875,5.736 -5.464,9.575l-11.35,-13.883l-21.146,-0c-0.07,-0.006 -0.139,-0.009 -0.209,-0.009c-1.238,-0 -2.275,0.975 -2.351,2.211l-0,62.054c0.076,1.235 1.113,2.211 2.351,2.211c0.07,-0 0.139,-0.003 0.209,-0.009l76.8,-0c0.07,0.006 0.139,0.009 0.209,0.009c1.238,-0 2.275,-0.976 2.351,-2.211l-0,-43.878c-0.076,-1.236 -1.113,-2.211 -2.351,-2.211c-0.07,-0 -0.139,0.003 -0.209,0.009l-13.717,-0c0.079,-0.635 0.12,-1.281 0.12,-1.936c0,-3.056 -0.889,-5.905 -2.423,-8.304l16.02,0Zm-38.753,10.592c-0.123,-0.628 -0.187,-1.277 -0.187,-1.94c-0,-5.564 4.516,-10.08 10.08,-10.08c5.563,-0 10.08,4.516 10.08,10.08c-0,5.563 -4.517,10.08 -10.08,10.08c-1.136,-0 -2.228,-0.189 -3.246,-0.535l-5.941,5.193c0.123,0.629 0.187,1.277 0.187,1.941c0,0.667 -0.065,1.318 -0.188,1.949l5.949,5.209c1.017,-0.345 2.106,-0.533 3.239,-0.533c5.563,0 10.08,4.517 10.08,10.08c-0,5.564 -4.517,10.08 -10.08,10.08c-5.564,0 -10.08,-4.516 -10.08,-10.08c-0,-0.666 0.065,-1.317 0.188,-1.948l-5.949,-5.209c-1.017,0.345 -2.106,0.532 -3.239,0.532c-5.563,0 -10.08,-4.517 -10.08,-10.08c0,-5.563 4.517,-10.08 10.08,-10.08c1.136,0 2.228,0.188 3.246,0.535l5.941,-5.194Z"
     id="path10677"
     style="fill:#747474;fill-opacity:1" /></svg>
