<?xml version="1.0" encoding="UTF-8" standalone="no"?>
<svg
   xmlns:dc="http://purl.org/dc/elements/1.1/"
   xmlns:cc="http://creativecommons.org/ns#"
   xmlns:rdf="http://www.w3.org/1999/02/22-rdf-syntax-ns#"
   xmlns:svg="http://www.w3.org/2000/svg"
   xmlns="http://www.w3.org/2000/svg"
   xmlns:sodipodi="http://sodipodi.sourceforge.net/DTD/sodipodi-0.dtd"
   xmlns:inkscape="http://www.inkscape.org/namespaces/inkscape"
   viewBox="0 0 24 24"
   version="1.1"
   id="svg10731"
   sodipodi:docname="shield-outline.svg"
   inkscape:version="1.0.1 (c497b03c, 2020-09-10)">
  <metadata
     id="metadata10737">
    <rdf:RDF>
      <cc:Work
         rdf:about="">
        <dc:format>image/svg+xml</dc:format>
        <dc:type
           rdf:resource="http://purl.org/dc/dcmitype/StillImage" />
      </cc:Work>
    </rdf:RDF>
  </metadata>
  <defs
     id="defs10735" />
  <sodipodi:namedview
     pagecolor="#ffffff"
     bordercolor="#666666"
     borderopacity="1"
     objecttolerance="10"
     gridtolerance="10"
     guidetolerance="10"
     inkscape:pageopacity="0"
     inkscape:pageshadow="2"
     inkscape:window-width="860"
     inkscape:window-height="480"
     id="namedview10733"
     showgrid="false"
     inkscape:zoom="9.8333333"
     inkscape:cx="12"
     inkscape:cy="12"
     inkscape:window-x="0"
     inkscape:window-y="23"
     inkscape:window-maximized="0"
     inkscape:current-layer="svg10731" />
  <g
     data-name="Layer 2"
     id="g10729">
    <g
       data-name="shield"
       id="g10727">
      <rect
         width="24"
         height="24"
         opacity="0"
         id="rect10723" />
      <path
         d="M12 21.85a2 2 0 0 1-1-.25l-.3-.17A15.17 15.17 0 0 1 3 8.23v-.14a2 2 0 0 1 1-1.75l7-3.94a2 2 0 0 1 2 0l7 3.94a2 2 0 0 1 1 1.75v.14a15.17 15.17 0 0 1-7.72 13.2l-.3.17a2 2 0 0 1-.98.25zm0-17.7L5 8.09v.14a13.15 13.15 0 0 0 6.7 11.45l.3.17.3-.17A13.15 13.15 0 0 0 19 8.23v-.14z"
         id="path10725"
         style="fill:#2b73d2;fill-opacity:1" />
    </g>
  </g>
</svg>
