<?xml version="1.0" encoding="UTF-8" standalone="no"?>
<svg
   xmlns:dc="http://purl.org/dc/elements/1.1/"
   xmlns:cc="http://creativecommons.org/ns#"
   xmlns:rdf="http://www.w3.org/1999/02/22-rdf-syntax-ns#"
   xmlns:svg="http://www.w3.org/2000/svg"
   xmlns="http://www.w3.org/2000/svg"
   xmlns:sodipodi="http://sodipodi.sourceforge.net/DTD/sodipodi-0.dtd"
   xmlns:inkscape="http://www.inkscape.org/namespaces/inkscape"
   width="100%"
   height="100%"
   viewBox="0 0 123 123"
   version="1.1"
   xml:space="preserve"
   style="fill-rule:evenodd;clip-rule:evenodd;stroke-linejoin:round;stroke-miterlimit:2;"
   id="svg30"
   sodipodi:docname="shortcuts-outline.svg"
   inkscape:version="1.0.1 (c497b03c, 2020-09-10)"><metadata
     id="metadata36"><rdf:RDF><cc:Work
         rdf:about=""><dc:format>image/svg+xml</dc:format><dc:type
           rdf:resource="http://purl.org/dc/dcmitype/StillImage" /></cc:Work></rdf:RDF></metadata><defs
     id="defs34" /><sodipodi:namedview
     pagecolor="#ffffff"
     bordercolor="#666666"
     borderopacity="1"
     objecttolerance="10"
     gridtolerance="10"
     guidetolerance="10"
     inkscape:pageopacity="0"
     inkscape:pageshadow="2"
     inkscape:window-width="1374"
     inkscape:window-height="1002"
     id="namedview32"
     showgrid="false"
     inkscape:zoom="8.195122"
     inkscape:cx="61.5"
     inkscape:cy="61.5"
     inkscape:window-x="0"
     inkscape:window-y="23"
     inkscape:window-maximized="0"
     inkscape:current-layer="svg30"
     inkscape:document-rotation="0" /><rect
     id="shortcuts-outline"
     x="0"
     y="0"
     width="122.88"
     height="122.88"
     style="fill:none;" /><path
     d="m 71.68,30.8 c 0,-11.235 9.245,-20.48 20.48,-20.48 11.235,0 20.48,9.245 20.48,20.48 0,11.235 -9.245,20.48 -20.48,20.48 H 81.868 V 71.6 H 92.16 c 11.235,0 20.48,9.245 20.48,20.48 0,11.235 -9.245,20.48 -20.48,20.48 -11.235,0 -20.48,-9.245 -20.48,-20.48 0.06123,-3.346594 0.028,-6.830831 0.028,-10.24 H 51.12 c -0.02356,3.359336 -0.01588,7.009426 0.08,10.24 0,11.235 -9.245,20.48 -20.48,20.48 -11.235,0 -20.48,-9.245 -20.48,-20.48 0,-11.235 9.245,-20.48 20.48,-20.48 H 40.96 V 51.28 H 30.72 c -11.235,0 -20.48,-9.245 -20.48,-20.48 0,-11.235 9.245,-20.48 20.48,-20.48 11.235,0 20.48,9.245 20.48,20.48 -0.142959,3.340727 -0.08,6.800906 -0.08,10.24 H 71.708 C 71.67874,37.672586 71.761411,34.088322 71.68,30.8 Z m 30.72,61.28 c 0,5.617 -4.623,10.24 -10.24,10.24 -5.617,0 -10.24,-4.623 -10.24,-10.24 0,-5.617 4.623,-10.24 10.24,-10.24 5.617,0 10.24,4.623 10.24,10.24 z M 30.72,81.84 c 5.617,0 10.24,4.623 10.24,10.24 0,5.617 -4.623,10.24 -10.24,10.24 -5.617,0 -10.24,-4.623 -10.24,-10.24 0,-5.617 4.623,-10.24 10.24,-10.24 z M 51.12,51.28 V 71.6 H 71.708 V 51.28 Z M 20.48,30.8 c 0,-5.617 4.623,-10.24 10.24,-10.24 5.617,0 10.24,4.623 10.24,10.24 0,5.617 -4.623,10.24 -10.24,10.24 -5.617,0 -10.24,-4.623 -10.24,-10.24 z m 71.68,10.24 c -5.617,0 -10.24,-4.623 -10.24,-10.24 0,-5.617 4.623,-10.24 10.24,-10.24 5.617,0 10.24,4.623 10.24,10.24 0,5.617 -4.623,10.24 -10.24,10.24 z"
     id="path28"
     sodipodi:nodetypes="csssccsssccccsssccsssccccsssssssssscccccssssssssss"
     style="fill:#2b73d2;fill-opacity:1" /></svg>
