<?xml version="1.0" encoding="UTF-8" standalone="no"?>
<svg
   xmlns:serif="http://www.serif.com/"
   xmlns:dc="http://purl.org/dc/elements/1.1/"
   xmlns:cc="http://creativecommons.org/ns#"
   xmlns:rdf="http://www.w3.org/1999/02/22-rdf-syntax-ns#"
   xmlns:svg="http://www.w3.org/2000/svg"
   xmlns="http://www.w3.org/2000/svg"
   xmlns:sodipodi="http://sodipodi.sourceforge.net/DTD/sodipodi-0.dtd"
   xmlns:inkscape="http://www.inkscape.org/namespaces/inkscape"
   id="svg101"
   clip-rule="evenodd"
   fill-rule="evenodd"
   stroke-linejoin="round"
   stroke-miterlimit="2"
   version="1.1"
   viewBox="0 0 123 123"
   xml:space="preserve"
   sodipodi:docname="signature-outline.svg"
   inkscape:version="1.0.1 (c497b03c, 2020-09-10)"><defs
     id="defs10874" /><sodipodi:namedview
     pagecolor="#ffffff"
     bordercolor="#666666"
     borderopacity="1"
     objecttolerance="10"
     gridtolerance="10"
     guidetolerance="10"
     inkscape:pageopacity="0"
     inkscape:pageshadow="2"
     inkscape:window-width="860"
     inkscape:window-height="480"
     id="namedview10872"
     showgrid="false"
     inkscape:zoom="1.9186992"
     inkscape:cx="61.5"
     inkscape:cy="61.5"
     inkscape:window-x="0"
     inkscape:window-y="23"
     inkscape:window-maximized="0"
     inkscape:current-layer="svg101" /><metadata
     id="metadata107"><rdf:RDF><cc:Work
         rdf:about=""><dc:format>image/svg+xml</dc:format><dc:type
           rdf:resource="http://purl.org/dc/dcmitype/StillImage" /><dc:title /></cc:Work></rdf:RDF></metadata><rect
     id="signature-outline"
     width="122.88"
     height="122.88"
     fill="none" /><g
     id="signature-outline1"
     serif:id="signature-outline"><path
       id="path94"
       d="m112.56 102.96c0-2.782-2.258-5.04-5.04-5.04h-72c-2.782 0-5.04 2.258-5.04 5.04s2.258 5.04 5.04 5.04h72c2.782 0 5.04-2.258 5.04-5.04z" /><path
       id="path96"
       d="m107.52 97.92c2.782 0 5.04 2.258 5.04 5.04s-2.258 5.04-5.04 5.04h-72c-2.782 0-5.04-2.258-5.04-5.04s2.258-5.04 5.04-5.04h72z"
       style="fill:#2b73d2;fill-opacity:1" /><path
       id="path98"
       d="m22.106 96.003-1.577 8.006c-0.538 2.73-3.19 4.509-5.919 3.972-2.729-0.538-4.509-3.19-3.971-5.919l8.671-44.035c0.019-0.094 0.04-0.187 0.064-0.279 0.053-0.299 0.109-0.598 0.168-0.898 5.451-27.682 32.352-45.731 60.034-40.28 13.841 2.726 25.274 10.814 32.565 21.681l-63.996 42.938c-0.684-0.212-1.386-0.389-2.104-0.53-10.836-2.134-21.374 4.703-23.919 15.347l-0.016-3e-3zm23.915-44.277v-0.083c-0.394-0.596-0.667-1.264-0.785-1.97-0.107-0.639-0.089-1.298 0.051-1.93 0.136-0.614 0.387-1.201 0.738-1.723 0.315-0.469 0.709-0.883 1.162-1.221 0.442-0.33 0.938-0.589 1.463-0.759 0.486-0.158 0.996-0.241 1.507-0.245 1.034-9e-3 2.063 0.305 2.915 0.892 0.521 0.36 0.964 0.817 1.32 1.339l9.318 12.581 8.791-5.899-6.486-9.668c-0.349-0.527-0.604-1.11-0.739-1.729-0.221-1.01-0.121-2.082 0.279-3.035 0.198-0.471 0.468-0.912 0.798-1.302 0.357-0.421 0.784-0.782 1.258-1.066 0.484-0.29 1.017-0.499 1.57-0.612 0.616-0.127 1.254-0.136 1.874-0.03 0.638 0.11 1.254 0.343 1.805 0.685 0.608 0.377 1.123 0.882 1.525 1.473l6.487 9.668 16.243-10.898c-5.318-4.792-11.959-8.251-19.487-9.734-22.223-4.376-43.819 10.114-48.196 32.338-0.047 0.241-0.093 0.482-0.136 0.723-0.034 0.19-0.073 0.378-0.118 0.566l-2.851 14.48c1.308-0.782 2.667-1.473 4.075-2.056 2.747-1.139 5.659-1.874 8.618-2.171 2.341-0.235 4.701-0.189 7.034 0.113 0 0 6.106-4.133 9.146-6.133l-9.179-12.594zm-16.843 8.361 0.022-0.112c-0.018 0.093-0.039 0.184-0.062 0.274 0.014-0.054 0.027-0.108 0.04-0.162z"
       style="fill:#2b73d2;fill-opacity:1" /></g></svg>
