<?xml version="1.0" encoding="UTF-8" standalone="no"?>
<svg
   xmlns:serif="http://www.serif.com/"
   xmlns:dc="http://purl.org/dc/elements/1.1/"
   xmlns:cc="http://creativecommons.org/ns#"
   xmlns:rdf="http://www.w3.org/1999/02/22-rdf-syntax-ns#"
   xmlns:svg="http://www.w3.org/2000/svg"
   xmlns="http://www.w3.org/2000/svg"
   xmlns:sodipodi="http://sodipodi.sourceforge.net/DTD/sodipodi-0.dtd"
   xmlns:inkscape="http://www.inkscape.org/namespaces/inkscape"
   width="100%"
   height="100%"
   viewBox="0 0 123 123"
   version="1.1"
   xml:space="preserve"
   style="fill-rule:evenodd;clip-rule:evenodd;stroke-linejoin:round;stroke-miterlimit:2;"
   id="svg1160"
   sodipodi:docname="status-accept-outline.svg"
   inkscape:version="1.0.1 (c497b03c, 2020-09-10)"><metadata
     id="metadata1166"><rdf:RDF><cc:Work
         rdf:about=""><dc:format>image/svg+xml</dc:format><dc:type
           rdf:resource="http://purl.org/dc/dcmitype/StillImage" /><dc:title /></cc:Work></rdf:RDF></metadata><defs
     id="defs1164" /><sodipodi:namedview
     pagecolor="#ffffff"
     bordercolor="#666666"
     borderopacity="1"
     objecttolerance="10"
     gridtolerance="10"
     guidetolerance="10"
     inkscape:pageopacity="0"
     inkscape:pageshadow="2"
     inkscape:window-width="1010"
     inkscape:window-height="689"
     id="namedview1162"
     showgrid="false"
     inkscape:zoom="1.9186992"
     inkscape:cx="61.5"
     inkscape:cy="61.5"
     inkscape:window-x="0"
     inkscape:window-y="23"
     inkscape:window-maximized="0"
     inkscape:current-layer="svg1160"
     inkscape:document-rotation="0" /><rect
     id="status-accept-outline"
     x="0"
     y="-0"
     width="122.88"
     height="122.88"
     style="fill:none;" /><g
     id="master"><rect
       x="0"
       y="0"
       width="122.88"
       height="122.88"
       style="fill-opacity:0;"
       id="rect1138" /></g><g
     id="master1"
     serif:id="master"><rect
       id="ingombro"
       x="0"
       y="0"
       width="122.88"
       height="122.88"
       style="fill-opacity:0;" /><g
       id="quadrato-esterno"
       serif:id="quadrato esterno" /></g><g
     id="master2"
     serif:id="master"><rect
       id="ingombro1"
       serif:id="ingombro"
       x="0"
       y="0"
       width="122.88"
       height="122.88"
       style="fill-opacity:0;" /><g
       id="quadrato-esterno1"
       serif:id="quadrato esterno" /><g
       id="cerchio-esterno"
       serif:id="cerchio esterno" /></g><g
     id="master3"
     serif:id="master"><rect
       id="ingombro2"
       serif:id="ingombro"
       x="0"
       y="0"
       width="122.88"
       height="122.88"
       style="fill-opacity:0;" /><rect
       x="0"
       y="0"
       width="122.88"
       height="122.88"
       style="fill-opacity:0;"
       id="rect1149" /></g><g
     id="master4"
     serif:id="master"><rect
       id="ingombro3"
       serif:id="ingombro"
       x="0"
       y="0"
       width="122.88"
       height="122.88"
       style="fill-opacity:0;" /><rect
       x="0"
       y="0"
       width="122.88"
       height="122.88"
       style="fill-opacity:0;"
       id="rect1153" /><path
       d="M76.8,20.48l0,-5.12c0,-2.809 2.311,-5.12 5.12,-5.12c2.809,0 5.12,2.311 5.12,5.12l-0,5.12l5.12,-0c8.426,-0 15.36,6.934 15.36,15.36l-0,61.44c-0,8.426 -6.934,15.36 -15.36,15.36l-61.44,-0c-8.426,-0 -15.36,-6.934 -15.36,-15.36l-0,-61.44c-0,-8.426 6.934,-15.36 15.36,-15.36l5.12,-0l-0,-5.12c0.004,-0.619 0.113,-1.232 0.335,-1.811c0.588,-1.536 1.919,-2.733 3.512,-3.147c0.5,-0.13 1.019,-0.182 1.535,-0.155c0.571,0.029 1.136,0.156 1.665,0.374c0.611,0.251 1.17,0.621 1.642,1.082c0.98,0.957 1.551,2.287 1.551,3.657c0,1.707 -0,3.413 -0,5.12l30.72,-0Zm15.36,81.92c2.809,-0 5.12,-2.311 5.12,-5.12l-0,-61.44c-0,-2.809 -2.311,-5.12 -5.12,-5.12l-5.12,-0l-0,5.12c-0,2.809 -2.311,5.12 -5.12,5.12c-2.809,-0 -5.12,-2.311 -5.12,-5.12l0,-5.12l-30.72,-0l0,5.12c0,2.809 -2.311,5.12 -5.12,5.12c-2.809,-0 -5.12,-2.311 -5.12,-5.12l-0,-5.12l-5.12,-0c-2.809,-0 -5.12,2.311 -5.12,5.12l-0,61.44c0.004,0.577 0.098,1.149 0.291,1.694c0.522,1.468 1.72,2.652 3.194,3.155c0.527,0.18 1.079,0.267 1.635,0.271l61.44,-0Z"
       style="fill-rule:nonzero;fill:#2b73d2;fill-opacity:1"
       id="path1155" /></g><path
     d="M75.088,55.032c-2.108,-1.851 -5.364,-1.644 -7.219,0.46l-9.575,11.008l-3.225,-3.635c-0.974,-1.098 -2.373,-1.727 -3.84,-1.727c-2.816,-0 -5.132,2.317 -5.132,5.132c-0,1.254 0.459,2.466 1.292,3.405l7.116,7.987c0.98,1.085 2.379,1.701 3.84,1.69c1.452,-0.017 2.831,-0.65 3.789,-1.741l13.363,-15.36c1.864,-2.094 1.68,-5.35 -0.409,-7.219Z"
     style="fill-rule:nonzero;fill:#2b73d2;fill-opacity:1"
     id="path1158" /></svg>
