<?xml version="1.0" encoding="UTF-8" standalone="no"?>
<svg
   xmlns:dc="http://purl.org/dc/elements/1.1/"
   xmlns:cc="http://creativecommons.org/ns#"
   xmlns:rdf="http://www.w3.org/1999/02/22-rdf-syntax-ns#"
   xmlns:svg="http://www.w3.org/2000/svg"
   xmlns="http://www.w3.org/2000/svg"
   xmlns:sodipodi="http://sodipodi.sourceforge.net/DTD/sodipodi-0.dtd"
   xmlns:inkscape="http://www.inkscape.org/namespaces/inkscape"
   viewBox="0 0 24 24"
   version="1.1"
   id="svg11242"
   sodipodi:docname="sync-outline.svg"
   inkscape:version="1.0.1 (c497b03c, 2020-09-10)">
  <metadata
     id="metadata11248">
    <rdf:RDF>
      <cc:Work
         rdf:about="">
        <dc:format>image/svg+xml</dc:format>
        <dc:type
           rdf:resource="http://purl.org/dc/dcmitype/StillImage" />
      </cc:Work>
    </rdf:RDF>
  </metadata>
  <defs
     id="defs11246" />
  <sodipodi:namedview
     pagecolor="#ffffff"
     bordercolor="#666666"
     borderopacity="1"
     objecttolerance="10"
     gridtolerance="10"
     guidetolerance="10"
     inkscape:pageopacity="0"
     inkscape:pageshadow="2"
     inkscape:window-width="860"
     inkscape:window-height="480"
     id="namedview11244"
     showgrid="false"
     inkscape:zoom="9.8333333"
     inkscape:cx="12"
     inkscape:cy="12"
     inkscape:window-x="0"
     inkscape:window-y="23"
     inkscape:window-maximized="0"
     inkscape:current-layer="svg11242" />
  <g
     data-name="Layer 2"
     id="g11240">
    <g
       data-name="sync"
       id="g11238">
      <rect
         width="24"
         height="24"
         opacity="0"
         id="rect11232" />
      <path
         d="M21.66 10.37a.62.62 0 0 0 .07-.19l.75-4a1 1 0 0 0-2-.36l-.37 2a9.22 9.22 0 0 0-16.58.84 1 1 0 0 0 .55 1.3 1 1 0 0 0 1.31-.55A7.08 7.08 0 0 1 12.07 5a7.17 7.17 0 0 1 6.24 3.58l-1.65-.27a1 1 0 1 0-.32 2l4.25.71h.16a.93.93 0 0 0 .34-.06.33.33 0 0 0 .1-.06.78.78 0 0 0 .2-.11l.08-.1a1.07 1.07 0 0 0 .14-.16.58.58 0 0 0 .05-.16z"
         id="path11234"
         style="fill:#747474;fill-opacity:1" />
      <path
         d="M19.88 14.07a1 1 0 0 0-1.31.56A7.08 7.08 0 0 1 11.93 19a7.17 7.17 0 0 1-6.24-3.58l1.65.27h.16a1 1 0 0 0 .16-2L3.41 13a.91.91 0 0 0-.33 0H3a1.15 1.15 0 0 0-.32.14 1 1 0 0 0-.18.18l-.09.1a.84.84 0 0 0-.07.19.44.44 0 0 0-.07.17l-.75 4a1 1 0 0 0 .8 1.22h.18a1 1 0 0 0 1-.82l.37-2a9.22 9.22 0 0 0 16.58-.83 1 1 0 0 0-.57-1.28z"
         id="path11236"
         style="fill:#747474;fill-opacity:1" />
    </g>
  </g>
</svg>
