<?xml version="1.0" encoding="UTF-8" standalone="no"?><!DOCTYPE svg PUBLIC "-//W3C//DTD SVG 1.1//EN" "http://www.w3.org/Graphics/SVG/1.1/DTD/svg11.dtd"><svg fill="#2b73d2" width="100%" height="100%" viewBox="0 0 123 123" version="1.1" xmlns="http://www.w3.org/2000/svg" xmlns:xlink="http://www.w3.org/1999/xlink" xml:space="preserve" xmlns:serif="http://www.serif.com/" style="fill-rule:evenodd;clip-rule:evenodd;stroke-linejoin:round;stroke-miterlimit:2;"><rect id="tag" x="0" y="0" width="122.88" height="122.88" style="fill:none;"/><path d="M47.985,16.453c0.37,0 0.732,0.032 1.085,0.092c2.195,0.056 4.373,0.921 6.047,2.595l48.712,48.711c3.464,3.464 3.464,9.088 0,12.552l-23.426,23.426c-3.464,3.464 -9.088,3.464 -12.552,0l-48.711,-48.712c-1.674,-1.674 -2.539,-3.852 -2.595,-6.047c-0.06,-0.353 -0.092,-0.715 -0.092,-1.085l0,-25.102c0,-3.548 2.882,-6.43 6.43,-6.43l25.102,0Zm-9.501,16.991c2.781,0 5.04,2.258 5.04,5.04c0,2.781 -2.259,5.04 -5.04,5.04c-2.782,0 -5.04,-2.259 -5.04,-5.04c0,-2.782 2.258,-5.04 5.04,-5.04Z"/></svg>