<?xml version="1.0" encoding="UTF-8" standalone="no"?>
<svg
   xmlns:dc="http://purl.org/dc/elements/1.1/"
   xmlns:cc="http://creativecommons.org/ns#"
   xmlns:rdf="http://www.w3.org/1999/02/22-rdf-syntax-ns#"
   xmlns:svg="http://www.w3.org/2000/svg"
   xmlns="http://www.w3.org/2000/svg"
   xmlns:sodipodi="http://sodipodi.sourceforge.net/DTD/sodipodi-0.dtd"
   xmlns:inkscape="http://www.inkscape.org/namespaces/inkscape"
   clip-rule="evenodd"
   fill-rule="evenodd"
   stroke-linejoin="round"
   stroke-miterlimit="2"
   version="1.1"
   viewBox="0 0 123 123"
   xml:space="preserve"
   id="svg5608"
   sodipodi:docname="tag.svg"
   inkscape:version="1.0.1 (c497b03c, 2020-09-10)"><defs
     id="defs5612" /><sodipodi:namedview
     pagecolor="#ffffff"
     bordercolor="#666666"
     borderopacity="1"
     objecttolerance="10"
     gridtolerance="10"
     guidetolerance="10"
     inkscape:pageopacity="0"
     inkscape:pageshadow="2"
     inkscape:window-width="860"
     inkscape:window-height="480"
     id="namedview5610"
     showgrid="false"
     inkscape:zoom="1.9186992"
     inkscape:cx="61.5"
     inkscape:cy="61.5"
     inkscape:window-x="0"
     inkscape:window-y="23"
     inkscape:window-maximized="0"
     inkscape:current-layer="svg5608" /><metadata
     id="metadata5603"><rdf:RDF><cc:Work
         rdf:about=""><dc:format>image/svg+xml</dc:format><dc:type
           rdf:resource="http://purl.org/dc/dcmitype/StillImage" /><dc:title /></cc:Work></rdf:RDF></metadata><rect
     id="tag"
     width="122.88"
     height="122.88"
     fill="none" /><path
     d="m74.895 16.453c-0.37 0-0.732 0.032-1.085 0.092-2.195 0.056-4.373 0.921-6.047 2.595l-48.712 48.711c-3.464 3.464-3.464 9.088 0 12.552l23.426 23.426c3.464 3.464 9.088 3.464 12.552-0l48.711-48.712c1.674-1.674 2.539-3.852 2.595-6.047 0.06-0.353 0.092-0.715 0.092-1.085v-25.102c-0-3.548-2.882-6.43-6.43-6.43h-25.102zm9.501 16.991c-2.781-0-5.04 2.258-5.04 5.04 0 2.781 2.259 5.04 5.04 5.04 2.782-0 5.04-2.259 5.04-5.04 0-2.782-2.258-5.04-5.04-5.04z"
     id="path5606"
     style="fill:#2b73d2;fill-opacity:1" /></svg>
