<?xml version="1.0" encoding="UTF-8" standalone="no"?>
<svg
   xmlns:dc="http://purl.org/dc/elements/1.1/"
   xmlns:cc="http://creativecommons.org/ns#"
   xmlns:rdf="http://www.w3.org/1999/02/22-rdf-syntax-ns#"
   xmlns:svg="http://www.w3.org/2000/svg"
   xmlns="http://www.w3.org/2000/svg"
   xmlns:sodipodi="http://sodipodi.sourceforge.net/DTD/sodipodi-0.dtd"
   xmlns:inkscape="http://www.inkscape.org/namespaces/inkscape"
   id="svg1932"
   clip-rule="evenodd"
   fill-rule="evenodd"
   stroke-linejoin="round"
   stroke-miterlimit="2"
   version="1.1"
   viewBox="0 0 123 123"
   xml:space="preserve"
   sodipodi:docname="task-shared-outline.svg"
   inkscape:version="1.0.1 (c497b03c, 2020-09-10)"><defs
     id="defs11321" /><sodipodi:namedview
     pagecolor="#ffffff"
     bordercolor="#666666"
     borderopacity="1"
     objecttolerance="10"
     gridtolerance="10"
     guidetolerance="10"
     inkscape:pageopacity="0"
     inkscape:pageshadow="2"
     inkscape:window-width="860"
     inkscape:window-height="480"
     id="namedview11319"
     showgrid="false"
     inkscape:zoom="1.9186992"
     inkscape:cx="61.5"
     inkscape:cy="61.5"
     inkscape:window-x="0"
     inkscape:window-y="23"
     inkscape:window-maximized="0"
     inkscape:current-layer="svg1932" /><metadata
     id="metadata1938"><rdf:RDF><cc:Work
         rdf:about=""><dc:format>image/svg+xml</dc:format><dc:type
           rdf:resource="http://purl.org/dc/dcmitype/StillImage" /><dc:title /></cc:Work></rdf:RDF></metadata><rect
     id="task-shared-outline"
     width="122.88"
     height="122.88"
     fill="none" /><g
     id="master"><rect
       id="rect1927"
       width="122.88"
       height="122.88"
       fill-opacity="0" /><path
       id="path1929"
       d="m92.16 107.52h-61.44c-8.426 0-15.36-6.934-15.36-15.36v-61.44c0-8.426 6.934-15.36 15.36-15.36h61.44c8.426-0 15.36 6.934 15.36 15.36v61.44c0 8.426-6.934 15.36-15.36 15.36zm-61.44-81.92c-2.809 0-5.12 2.311-5.12 5.12v61.44c0 2.809 2.311 5.12 5.12 5.12h61.44c2.809-0 5.12-2.311 5.12-5.12v-61.44c-0-2.809-2.311-5.12-5.12-5.12h-61.44zm30.367 21.088c-0.123-0.628-0.187-1.277-0.187-1.94-0-5.564 4.516-10.08 10.08-10.08 5.563-0 10.08 4.516 10.08 10.08-0 5.563-4.517 10.08-10.08 10.08-1.136-0-2.228-0.189-3.246-0.535l-5.941 5.193c0.123 0.629 0.187 1.277 0.187 1.941 0 0.667-0.065 1.318-0.188 1.949l5.949 5.209c1.017-0.345 2.106-0.533 3.239-0.533 5.563 0 10.08 4.517 10.08 10.08-0 5.564-4.517 10.08-10.08 10.08-5.564 0-10.08-4.516-10.08-10.08-0-0.666 0.065-1.317 0.188-1.948l-5.949-5.209c-1.017 0.345-2.106 0.532-3.239 0.532-5.563 0-10.08-4.517-10.08-10.08s4.517-10.08 10.08-10.08c1.136 0 2.228 0.188 3.246 0.535l5.941-5.194z"
       fill-rule="nonzero"
       style="fill:#747474;fill-opacity:1" /></g></svg>
