<?xml version="1.0" encoding="UTF-8" standalone="no"?>
<svg
   xmlns:dc="http://purl.org/dc/elements/1.1/"
   xmlns:cc="http://creativecommons.org/ns#"
   xmlns:rdf="http://www.w3.org/1999/02/22-rdf-syntax-ns#"
   xmlns:svg="http://www.w3.org/2000/svg"
   xmlns="http://www.w3.org/2000/svg"
   xmlns:sodipodi="http://sodipodi.sourceforge.net/DTD/sodipodi-0.dtd"
   xmlns:inkscape="http://www.inkscape.org/namespaces/inkscape"
   viewBox="0 0 24 24"
   version="1.1"
   id="svg11684"
   sodipodi:docname="undo-outline.svg"
   inkscape:version="1.0.1 (c497b03c, 2020-09-10)">
  <metadata
     id="metadata11690">
    <rdf:RDF>
      <cc:Work
         rdf:about="">
        <dc:format>image/svg+xml</dc:format>
        <dc:type
           rdf:resource="http://purl.org/dc/dcmitype/StillImage" />
      </cc:Work>
    </rdf:RDF>
  </metadata>
  <defs
     id="defs11688" />
  <sodipodi:namedview
     pagecolor="#ffffff"
     bordercolor="#666666"
     borderopacity="1"
     objecttolerance="10"
     gridtolerance="10"
     guidetolerance="10"
     inkscape:pageopacity="0"
     inkscape:pageshadow="2"
     inkscape:window-width="860"
     inkscape:window-height="480"
     id="namedview11686"
     showgrid="false"
     inkscape:zoom="9.8333333"
     inkscape:cx="12"
     inkscape:cy="12"
     inkscape:window-x="0"
     inkscape:window-y="23"
     inkscape:window-maximized="0"
     inkscape:current-layer="svg11684" />
  <g
     data-name="Layer 2"
     id="g11682">
    <g
       data-name="undo"
       id="g11680">
      <rect
         width="24"
         height="24"
         transform="rotate(-90 12 12)"
         opacity="0"
         id="rect11676" />
      <path
         d="M20.22 21a1 1 0 0 1-1-.76 8.91 8.91 0 0 0-7.8-6.69v1.12a1.78 1.78 0 0 1-1.09 1.64A2 2 0 0 1 8.18 16l-5.06-4.41a1.76 1.76 0 0 1 0-2.68l5.06-4.42a2 2 0 0 1 2.18-.3 1.78 1.78 0 0 1 1.09 1.64V7A10.89 10.89 0 0 1 21.5 17.75a10.29 10.29 0 0 1-.31 2.49 1 1 0 0 1-1 .76zm-9.77-9.5a11.07 11.07 0 0 1 8.81 4.26A9 9 0 0 0 10.45 9a1 1 0 0 1-1-1V6.08l-4.82 4.17 4.82 4.21v-2a1 1 0 0 1 1-.96z"
         id="path11678"
         style="fill:#2b73d2;fill-opacity:1" />
    </g>
  </g>
</svg>
