<?xml version="1.0" encoding="UTF-8" standalone="no"?>
<svg
   xmlns:dc="http://purl.org/dc/elements/1.1/"
   xmlns:cc="http://creativecommons.org/ns#"
   xmlns:rdf="http://www.w3.org/1999/02/22-rdf-syntax-ns#"
   xmlns:svg="http://www.w3.org/2000/svg"
   xmlns="http://www.w3.org/2000/svg"
   xmlns:sodipodi="http://sodipodi.sourceforge.net/DTD/sodipodi-0.dtd"
   xmlns:inkscape="http://www.inkscape.org/namespaces/inkscape"
   clip-rule="evenodd"
   fill-rule="evenodd"
   stroke-linejoin="round"
   stroke-miterlimit="2"
   version="1.1"
   viewBox="0 0 123 123"
   xml:space="preserve"
   id="svg6082"
   sodipodi:docname="untag.svg"
   inkscape:version="1.0.1 (c497b03c, 2020-09-10)"><defs
     id="defs6086" /><sodipodi:namedview
     pagecolor="#ffffff"
     bordercolor="#666666"
     borderopacity="1"
     objecttolerance="10"
     gridtolerance="10"
     guidetolerance="10"
     inkscape:pageopacity="0"
     inkscape:pageshadow="2"
     inkscape:window-width="860"
     inkscape:window-height="480"
     id="namedview6084"
     showgrid="false"
     inkscape:zoom="1.9186992"
     inkscape:cx="61.5"
     inkscape:cy="61.5"
     inkscape:window-x="0"
     inkscape:window-y="23"
     inkscape:window-maximized="0"
     inkscape:current-layer="svg6082" /><metadata
     id="metadata6075"><rdf:RDF><cc:Work
         rdf:about=""><dc:format>image/svg+xml</dc:format><dc:type
           rdf:resource="http://purl.org/dc/dcmitype/StillImage" /><dc:title /></cc:Work></rdf:RDF></metadata><rect
     id="untag"
     width="122.88"
     height="122.88"
     fill="none" /><path
     d="m36.221 50.681 35.978 35.978-17.17 17.17c-3.464 3.464-9.088 3.464-12.552-0l-23.426-23.426c-3.464-3.464-3.464-9.088 0-12.552l17.17-17.17zm14.507-14.507 17.035-17.034c1.674-1.674 3.852-2.539 6.047-2.595 0.353-0.06 0.715-0.092 1.085-0.092h25.102c3.548 0 6.43 2.882 6.43 6.43v25.102c-0 0.37-0.032 0.732-0.092 1.085-0.056 2.195-0.921 4.373-2.595 6.047l-17.034 17.035-35.978-35.978zm33.668-2.73c-2.781-0-5.04 2.258-5.04 5.04 0 2.781 2.259 5.04 5.04 5.04 2.782-0 5.04-2.259 5.04-5.04 0-2.782-2.258-5.04-5.04-5.04z"
     id="path6078"
     style="fill:#d94727;fill-opacity:1" /><path
     d="m24.115 16.845c-0.964-0.964-2.272-1.506-3.635-1.506-2.82 0-5.141 2.321-5.141 5.141 0 1.363 0.542 2.671 1.506 3.635l81.92 81.92c0.961 0.969 2.27 1.515 3.635 1.515s2.674-0.546 3.635-1.515c0.969-0.961 1.515-2.27 1.515-3.635s-0.546-2.674-1.515-3.635l-81.92-81.92z"
     fill-rule="nonzero"
     id="path6080"
     style="fill:#d94727;fill-opacity:1" /></svg>
