<?xml version="1.0" encoding="UTF-8" standalone="no"?>
<svg
   xmlns:dc="http://purl.org/dc/elements/1.1/"
   xmlns:cc="http://creativecommons.org/ns#"
   xmlns:rdf="http://www.w3.org/1999/02/22-rdf-syntax-ns#"
   xmlns:svg="http://www.w3.org/2000/svg"
   xmlns="http://www.w3.org/2000/svg"
   xmlns:sodipodi="http://sodipodi.sourceforge.net/DTD/sodipodi-0.dtd"
   xmlns:inkscape="http://www.inkscape.org/namespaces/inkscape"
   id="svg122"
   clip-rule="evenodd"
   fill-rule="evenodd"
   stroke-linejoin="round"
   stroke-miterlimit="2"
   version="1.1"
   viewBox="0 0 123 123"
   xml:space="preserve"
   sodipodi:docname="view-off-outline.svg"
   inkscape:version="1.0.1 (c497b03c, 2020-09-10)"><defs
     id="defs11856" /><sodipodi:namedview
     pagecolor="#ffffff"
     bordercolor="#666666"
     borderopacity="1"
     objecttolerance="10"
     gridtolerance="10"
     guidetolerance="10"
     inkscape:pageopacity="0"
     inkscape:pageshadow="2"
     inkscape:window-width="860"
     inkscape:window-height="480"
     id="namedview11854"
     showgrid="false"
     inkscape:zoom="1.9186992"
     inkscape:cx="61.5"
     inkscape:cy="61.5"
     inkscape:window-x="0"
     inkscape:window-y="23"
     inkscape:window-maximized="0"
     inkscape:current-layer="svg122" /><metadata
     id="metadata128"><rdf:RDF><cc:Work
         rdf:about=""><dc:format>image/svg+xml</dc:format><dc:type
           rdf:resource="http://purl.org/dc/dcmitype/StillImage" /><dc:title /></cc:Work></rdf:RDF></metadata><rect
     id="view-off-outline"
     width="122.88"
     height="122.88"
     fill="none" /><g
     id="master"><rect
       id="ingombro"
       width="122.88"
       height="122.88"
       fill-opacity="0" /><g
       id="g119"><rect
         id="rect115"
         width="122.88"
         height="122.88"
         fill-opacity="0" /><path
         id="path117"
         d="m92.16 15.36h-61.44c-8.426 0-15.36 6.934-15.36 15.36v61.44c0 8.426 6.934 15.36 15.36 15.36h61.44c8.426 0 15.36-6.934 15.36-15.36v-61.44c0-8.426-6.934-15.36-15.36-15.36zm-61.44 81.92c-2.809-0-5.12-2.311-5.12-5.12v-40.96h71.68v40.96c-0 2.809-2.311 5.12-5.12 5.12h-61.44zm0-71.68h61.44c2.809 0 5.12 2.311 5.12 5.12v10.24h-71.68v-10.24c0-2.809 2.311-5.12 5.12-5.12z"
         fill-rule="nonzero"
         style="fill:#2b73d2;fill-opacity:1" /></g></g></svg>
