<?xml version="1.0" encoding="UTF-8" standalone="no"?>
<svg
   xmlns:dc="http://purl.org/dc/elements/1.1/"
   xmlns:cc="http://creativecommons.org/ns#"
   xmlns:rdf="http://www.w3.org/1999/02/22-rdf-syntax-ns#"
   xmlns:svg="http://www.w3.org/2000/svg"
   xmlns="http://www.w3.org/2000/svg"
   xmlns:sodipodi="http://sodipodi.sourceforge.net/DTD/sodipodi-0.dtd"
   xmlns:inkscape="http://www.inkscape.org/namespaces/inkscape"
   id="svg1030"
   clip-rule="evenodd"
   fill-rule="evenodd"
   stroke-linejoin="round"
   stroke-miterlimit="2"
   version="1.1"
   viewBox="0 0 123 123"
   xml:space="preserve"
   sodipodi:docname="waiting-outline.svg"
   inkscape:version="1.0.1 (c497b03c, 2020-09-10)"><defs
     id="defs11984" /><sodipodi:namedview
     pagecolor="#ffffff"
     bordercolor="#666666"
     borderopacity="1"
     objecttolerance="10"
     gridtolerance="10"
     guidetolerance="10"
     inkscape:pageopacity="0"
     inkscape:pageshadow="2"
     inkscape:window-width="860"
     inkscape:window-height="480"
     id="namedview11982"
     showgrid="false"
     inkscape:zoom="1.9186992"
     inkscape:cx="61.5"
     inkscape:cy="61.5"
     inkscape:window-x="0"
     inkscape:window-y="23"
     inkscape:window-maximized="0"
     inkscape:current-layer="svg1030" /><metadata
     id="metadata1036"><rdf:RDF><cc:Work
         rdf:about=""><dc:format>image/svg+xml</dc:format><dc:type
           rdf:resource="http://purl.org/dc/dcmitype/StillImage" /><dc:title /></cc:Work></rdf:RDF></metadata><rect
     id="waiting-outline"
     width="122.88"
     height="122.88"
     fill="none" /><g
     id="master"><rect
       id="ingombro"
       width="122.88"
       height="122.88"
       fill-opacity="0" /><path
       id="path1027"
       d="m88.539 104.98c-1.458 0.871-4.474 2.488-4.474 2.488-24.634 11.584-54.649 1.573-67.262-22.792-11.97-23.122-4.337-51.579 16.709-65.895 0-0 3.777-2.225 5.75-3.224 2.486-1.26 5.527-0.264 6.787 2.222 1.259 2.486 0.264 5.528-2.223 6.787-2.7 1.368-5.211 3.02-7.503 4.91-0.1 0.083-0.202 0.161-0.306 0.234-14.34 12.039-19.052 33.005-10.12 50.259 9.981 19.28 33.583 27.325 53.168 18.528l0.019 0.035c1.477-0.66 2.903-1.402 4.273-2.221 2.392-1.431 5.495-0.649 6.925 1.743 1.431 2.392 0.65 5.495-1.743 6.926zm11.951-28.89c-1.103 2.799-2.509 5.464-4.184 7.945-1.559 2.311-0.949 5.452 1.361 7.011s5.452 0.95 7.011-1.361c2.085-3.09 3.835-6.407 5.209-9.893 1.021-2.593-0.255-5.528-2.848-6.549-2.593-1.022-5.528 0.254-6.549 2.847zm-18.57-19.765h-15.36v-15.36c-0-2.809-2.311-5.12-5.12-5.12s-5.12 2.311-5.12 5.12v20.48c-0 2.809 2.311 5.12 5.12 5.12h20.48c2.809 0 5.12-2.311 5.12-5.12s-2.311-5.12-5.12-5.12zm19.76-6.696c0.393 1.351 0.721 2.735 0.978 4.15 0.287 1.572 0.48 3.14 0.582 4.698 0.183 2.781 2.59 4.89 5.371 4.707 2.781-0.184 4.891-2.59 4.707-5.371-0.127-1.938-0.367-3.888-0.723-5.844-0.321-1.76-0.728-3.482-1.217-5.162-0.779-2.677-3.584-4.217-6.26-3.438s-4.217 3.584-3.438 6.26zm-15.254-21.647c2.422 1.758 4.654 3.781 6.648 6.035 1.847 2.088 5.041 2.283 7.128 0.436 2.088-1.847 2.283-5.041 0.436-7.128-2.483-2.807-5.262-5.326-8.278-7.516-2.255-1.638-5.416-1.136-7.053 1.119-1.638 2.255-1.137 5.416 1.119 7.054zm-25.305-7.818c3.04-0.095 6.033 0.152 8.937 0.71 2.737 0.526 5.387-1.269 5.913-4.006s-1.269-5.386-4.006-5.912c-3.625-0.697-7.363-1.006-11.158-0.888-2.786 0.087-4.977 2.419-4.891 5.205 0.087 2.786 2.419 4.977 5.205 4.891z"
       style="fill:#2b73d2;fill-opacity:1" /></g></svg>
