<?xml version="1.0" encoding="UTF-8" standalone="no"?>
<svg
   xmlns:dc="http://purl.org/dc/elements/1.1/"
   xmlns:cc="http://creativecommons.org/ns#"
   xmlns:rdf="http://www.w3.org/1999/02/22-rdf-syntax-ns#"
   xmlns:svg="http://www.w3.org/2000/svg"
   xmlns="http://www.w3.org/2000/svg"
   xmlns:sodipodi="http://sodipodi.sourceforge.net/DTD/sodipodi-0.dtd"
   xmlns:inkscape="http://www.inkscape.org/namespaces/inkscape"
   id="svg225"
   clip-rule="evenodd"
   fill-rule="evenodd"
   stroke-linejoin="round"
   stroke-miterlimit="2"
   version="1.1"
   viewBox="0 0 93 93"
   xml:space="preserve"
   sodipodi:docname="zed-outline.svg"
   inkscape:version="1.0.1 (c497b03c, 2020-09-10)"><defs
     id="defs12097" /><sodipodi:namedview
     pagecolor="#ffffff"
     bordercolor="#666666"
     borderopacity="1"
     objecttolerance="10"
     gridtolerance="10"
     guidetolerance="10"
     inkscape:pageopacity="0"
     inkscape:pageshadow="2"
     inkscape:window-width="860"
     inkscape:window-height="480"
     id="namedview12095"
     showgrid="false"
     inkscape:zoom="2.5376344"
     inkscape:cx="46.5"
     inkscape:cy="46.5"
     inkscape:window-x="0"
     inkscape:window-y="23"
     inkscape:window-maximized="0"
     inkscape:current-layer="svg225" /><metadata
     id="metadata231"><rdf:RDF><cc:Work
         rdf:about=""><dc:format>image/svg+xml</dc:format><dc:type
           rdf:resource="http://purl.org/dc/dcmitype/StillImage" /><dc:title /></cc:Work></rdf:RDF></metadata><path
     id="path221"
     d="m76.886 0c8.43 0 15.274 6.844 15.274 15.274v61.612c0 8.43-6.844 15.274-15.274 15.274h-61.612c-8.43 0-15.274-6.844-15.274-15.274v-61.612c0-8.43 6.844-15.274 15.274-15.274h61.612zm0 10.08h-61.612c-2.867 0-5.194 2.327-5.194 5.194v61.612c0 2.867 2.327 5.194 5.194 5.194h61.612c2.867 0 5.194-2.327 5.194-5.194v-61.612c0-2.867-2.327-5.194-5.194-5.194z"
     style="fill:#2b73d2;fill-opacity:1" /><path
     id="path223"
     d="m66.306 32.182c-0.138 0.431-0.331 0.844-0.578 1.224-0.192 0.295-0.415 0.567-0.663 0.817l-22.238 22.237h18.553c2.781 0 5.04 2.259 5.04 5.04 0 2.782-2.259 5.04-5.04 5.04h-30.72-1e-3 -0.064l-0.027-1e-3h-0.03-8e-3l-6e-3 -1e-3h-0.016-0.011l-6e-3 -1e-3h-0.014-7e-3l-5e-3 -1e-3h-7e-3 -0.011l-7e-3 -1e-3h-7e-3 -8e-3l-8e-3 -1e-3h-7e-3 -9e-3l-9e-3 -1e-3h-5e-3 -6e-3l-0.013-1e-3 -0.011-1e-3h-5e-3l-0.016-1e-3 -0.011-1e-3c-0.172-0.011-0.342-0.031-0.509-0.059l-0.017-3e-3 -0.01-2e-3 -0.021-4e-3 -7e-3 -1e-3 -5e-3 -1e-3 -0.012-2e-3 -7e-3 -1e-3 -3e-3 -1e-3c-0.967-0.179-1.892-0.643-2.639-1.39s-1.211-1.672-1.39-2.639l-1e-3 -3e-3 -1e-3 -7e-3 -2e-3 -0.012-1e-3 -5e-3 -1e-3 -7e-3 -3e-3 -0.012-3e-3 -0.019-3e-3 -0.017c-0.028-0.167-0.048-0.337-0.059-0.509l-1e-3 -0.011-2e-3 -0.032-1e-3 -0.013v-6e-3 -5e-3l-1e-3 -9e-3v-9e-3 -7e-3l-1e-3 -8e-3v-8e-3 -7e-3l-1e-3 -7e-3v-0.011-7e-3l-1e-3 -5e-3v-7e-3 -0.014l-1e-3 -6e-3v-0.011-0.016l-1e-3 -0.014v-0.024-6e-3l-1e-3 -0.027v-0.064-0.031c3e-3 -0.516 0.084-1.013 0.231-1.481l3e-3 -0.011c0.138-0.431 0.331-0.844 0.578-1.224 0.192-0.295 0.415-0.567 0.663-0.817l22.5-22.237h-18.815c-0.703-2e-3 -1.402-0.147-2.045-0.433-0.602-0.268-1.148-0.654-1.602-1.131-0.434-0.454-0.782-0.99-1.02-1.572-0.218-0.533-0.342-1.102-0.368-1.677-0.024-0.551 0.041-1.106 0.195-1.636 0.137-0.471 0.344-0.921 0.611-1.332 0.586-0.902 1.46-1.606 2.468-1.982 0.553-0.207 1.139-0.311 1.729-0.317h0.032 30.72 1e-3 0.064l0.027 1e-3h0.03 8e-3l6e-3 1e-3h0.016 0.011l6e-3 1e-3h0.014 7e-3l5e-3 1e-3h7e-3 0.011l7e-3 1e-3h7e-3 8e-3l8e-3 1e-3h7e-3 9e-3l9e-3 1e-3h5e-3 6e-3l0.013 1e-3 0.011 1e-3h5e-3l0.016 1e-3 0.011 1e-3c0.172 0.011 0.342 0.031 0.509 0.059l0.017 3e-3 0.01 2e-3 0.021 4e-3 7e-3 1e-3 5e-3 1e-3 0.012 2e-3 7e-3 1e-3 3e-3 1e-3c0.967 0.179 1.892 0.643 2.639 1.39s1.211 1.672 1.39 2.639l1e-3 3e-3 1e-3 7e-3 2e-3 0.012 1e-3 5e-3 1e-3 7e-3 3e-3 0.012 3e-3 0.019 3e-3 0.017c0.028 0.167 0.048 0.337 0.059 0.509l1e-3 0.011 2e-3 0.032 1e-3 0.013v6e-3 5e-3l1e-3 9e-3v9e-3 7e-3l1e-3 8e-3v8e-3 7e-3l1e-3 7e-3v0.011 7e-3l1e-3 5e-3v7e-3 0.014l1e-3 6e-3v0.011 0.016l1e-3 0.014v0.024 6e-3l1e-3 0.027v0.064 0.031c-3e-3 0.516-0.084 1.013-0.231 1.481l-3e-3 0.011z"
     style="fill:#2b73d2;fill-opacity:1" /></svg>
